<svg id="loading" xmlns="http://www.w3.org/2000/svg" width="640" height="480">
 <!-- Created with SVG-edit - http://svg-edit.googlecode.com/ -->
 <g>
  <path d="m5.77504,97.71085c0,0 -0.21238,0.59723 0,1.10997c0.30036,0.72513 0.99658,2.27054 2.77494,6.10486c1.04429,2.25159 6.79895,8.22893 11.65474,12.20972c7.73743,6.34319 18.91081,11.53794 22.19949,12.76473c16.31963,6.08775 26.69567,11.4669 51.05884,18.86955c11.46306,3.483 33.84477,6.38229 46.06394,6.65985c5.54845,0.12604 10.48146,-1.79634 14.98466,-3.88492c3.83434,-1.77835 14.91391,-8.81285 22.19949,-14.98465c6.58759,-5.58054 7.49716,-8.12646 10.54477,-12.76472c2.45706,-3.73947 4.34467,-7.31006 2.77492,-8.87979c-0.39243,-0.39243 -2.77492,0 -14.98465,0c-4.99487,0 -14.09891,1.89337 -16.64961,3.8849c-4.33047,3.38115 -6.82564,8.22551 -7.76984,9.98977c-3.40437,6.36115 -5.09332,13.21967 -5.54988,26.08441c-0.67038,18.89032 3.19806,28.30994 2.77495,44.39902c-0.27759,10.55568 -4.38696,20.99365 -13.3197,32.18927c-4.16805,5.22386 -16.14017,15.74826 -23.30946,19.97955c-10.48233,6.18658 -25.4575,16.40646 -36.07418,12.76468c-15.22387,-5.22214 -11.58913,-29.02753 6.65984,-38.29413c17.28419,-8.77669 29.16979,-5.21512 41.06907,0c16.59619,7.27365 37.12262,12.68515 46.06395,7.76984c10.12018,-5.56335 21.38835,-16.94397 32.18927,-26.08441c8.13799,-6.88689 11.09975,-7.76984 12.20972,-7.76984c2.21996,0 5.29938,1.53729 6.10487,3.88492c1.83681,5.35342 2.21994,10.54477 2.21994,16.64963c0,3.88492 -2.78296,9.25638 -8.87979,12.20972c-5.21466,2.526 -13.87679,4.92747 -23.30948,-3.88492c-7.44478,-6.95522 -0.26758,-19.71057 12.76471,-31.63428c4.35268,-3.98239 8.39864,-5.95557 12.20972,-2.77495c8.52185,7.11217 8.58424,11.29881 11.65472,15.53966c2.54201,3.51096 13.84366,12.5126 32.18933,6.10486c7.85919,-2.74506 13.89117,-13.32178 13.31967,-17.75958c-0.38174,-2.96423 -17.34029,-7.99332 -24.41946,6.10484c-6.16103,12.26965 12.75174,30.84282 21.64453,23.30949c7.72751,-6.5462 0.03256,-20.18723 -2.77493,-27.19441c-0.46155,-1.15195 -0.83154,-0.58942 -1.10999,2.77495c-0.41196,4.97786 4.38,19.7746 24.97443,26.6394c6.86481,2.28827 14.05795,-3.25928 20.53455,-9.43478c5.237,-4.99356 4.43988,-12.20972 4.43988,-14.42969c0,-6.10486 0.39246,-7.37738 0,-7.76981c-0.39243,-0.39246 -1.1568,-0.08511 -2.21994,0.55499c-4.09006,2.46255 -8.15955,5.53355 -10.54474,10.54472c-1.96689,4.13237 -2.81641,9.16228 0.55496,13.87471c2.77786,3.88284 5.2692,3.76093 7.21484,2.21994c3.39795,-2.69119 7.31442,-15.54364 6.65985,-30.52429c-0.78131,-17.88074 -4.3187,-34.95326 -2.77496,-52.72382c2.40924,-27.73357 0.73657,-36.47363 -1.66495,-33.85423c-4.05679,4.42488 -6.90164,6.04694 -12.76468,17.7596c-13.75348,27.4754 -7.51511,51.18133 1.66495,73.25835c10.21259,24.56021 21.56229,45.65002 27.19437,48.83885c0.96591,0.54692 1.66495,0 2.21994,0c0.55499,0 0.55499,-0.55495 1.11002,-0.55495c0.55499,0 0.62097,-0.67456 1.66495,-3.88492c0.76755,-2.36037 1.40619,-2.27361 2.21994,-5.5499c2.96136,-11.92288 4.65158,-40.01331 8.3248,-62.15857c1.01532,-6.12131 1.10999,-4.9949 1.10999,-3.88492c0,3.88492 -0.39383,10.01642 -1.66495,17.20462c-0.98557,5.5733 -0.83459,10.5545 -1.10999,14.42966c-0.2782,3.91449 -1.67535,8.77228 -2.77493,16.09464c-1.1568,7.70325 -1.22452,11.16776 -0.55499,14.42967c0.84985,4.14032 2.21997,4.99489 3.32993,4.99489c0.55499,0 1.10999,0 1.66495,0c1.66498,0 3.47223,-0.99637 6.10489,-4.4399c4.11453,-5.38182 6.76932,-11.04131 9.98975,-17.20461c4.59769,-8.79918 7.46347,-16.34186 11.09976,-20.53455c4.62827,-5.3364 7.24207,-6.88547 12.76471,-6.10486c5.91858,0.83656 6.72449,2.74493 7.21484,3.88492c2.56674,5.96733 2.66898,9.96461 1.66495,14.42964c-0.62085,2.76097 -2.76953,5.43349 -3.3299,9.43483c-0.61581,4.39697 4.02588,13.57942 11.65472,20.53452c9.56573,8.72092 19.24088,7.28975 28.85934,3.88492c31.11905,-11.01587 61.57883,-17.40758 62.71356,-22.75449c0.11523,-0.54291 -0.32187,-1.54495 1.10999,-3.32993c2.32959,-2.90405 9.00653,-2.45192 9.98975,2.21996c2.80206,13.31404 -6.92838,21.72958 -8.87976,20.53453c-6.31439,-3.8671 -2.99661,-19.87244 2.21994,-19.42456c14.09756,1.21042 12.6749,20.56522 2.77487,36.62918c-18.17694,29.49432 -67.15341,44.39899 -97.12274,37.18414l34.9642,-9.43478l138.19183,0l43.289,-4.99487"/>
  <path d="m349.75903,144.09641c-0.60242,0 -1.02017,-0.2764 -1.80725,-0.60242c-0.55655,-0.23051 -1.98367,-0.17642 -2.40964,-0.60242c-0.42596,-0.42596 0,-1.2048 0.60242,-1.2048c0.60242,0 1.25067,-0.23051 1.80722,0c0.78708,0.32602 1.38129,0.77884 1.80725,1.2048c0.42596,0.42599 0.42596,1.38126 0,1.80725c-0.42596,0.42598 -0.60242,0.60239 -1.20483,0.60239c-0.60242,0 -1.2048,0 -1.80722,0c-0.60242,0 -1.20483,0 -1.80722,0c-0.60242,0 -0.37189,-0.64824 -0.60242,-1.2048c-0.32602,-0.78708 -0.60242,-1.20483 0,-1.20483c1.2048,0 1.80722,0 2.40964,0c0.60242,0 1.38126,-0.42596 1.80722,0c0.42596,0.42599 0,1.20483 0,1.80725c0,1.2048 0.42596,1.98364 0,2.40962c-0.42596,0.42598 -1.2048,0 -1.80722,0c-0.60242,0 -0.60242,-0.60242 -0.60242,-1.20482c0,-0.60242 0,-1.2048 0,-1.80722c0,-0.60242 0.41772,-0.87881 1.20483,-1.20483c0.55652,-0.23053 1.80722,0 2.40964,0c0.60239,0 1.2048,0 1.2048,0.60242c0,0.60242 -1.70105,1.49774 -3.01205,1.80722c-0.58627,0.13841 -1.2048,0 -1.2048,-0.60239c0,-0.60242 0.77884,-0.77887 1.2048,-1.20483c0.42596,-0.42596 0.60242,-0.60242 1.20483,-0.60242l0.60242,0" stroke-linecap="null" stroke-linejoin="null"/>
 </g>
</svg>