<?xml version="1.0" standalone="no"?>
<!DOCTYPE svg PUBLIC "-//W3C//DTD SVG 1.1//EN" "http://www.w3.org/Graphics/SVG/1.1/DTD/svg11.dtd" >
<svg xmlns="http://www.w3.org/2000/svg">
<metadata></metadata>
<defs>
<font id="timelessef-boldregular" horiz-adv-x="1024" >
<font-face units-per-em="2048" ascent="1638" descent="-410" />
<missing-glyph horiz-adv-x="512" />
<glyph horiz-adv-x="0" />
<glyph horiz-adv-x="682" />
<glyph unicode=" " horiz-adv-x="512" d="M0 0z" />
<glyph unicode="!" horiz-adv-x="583" d="M178 119q0 66 44.5 111.5t107.5 45.5t107 -46.5t44 -112.5q0 -60 -44 -103t-107 -43t-107.5 43.5t-44.5 104.5zM178 1212q0 83 40 128.5t114 45.5q67 0 107 -44.5t40 -118.5q0 -33 -6 -82l-96 -729h-98l-97 727q-4 27 -4 73z" />
<glyph unicode="&#x22;" horiz-adv-x="780" d="M92 1366h246l-41 -549h-164zM442 1366h246l-43 -549h-162z" />
<glyph unicode="#" horiz-adv-x="1228" d="M33 391l30 201h216l32 209h-213l31 200h213l57 365h226l-58 -365h213l58 365h227l-57 -365h211l-31 -200h-211l-33 -209h213l-31 -201h-213l-61 -391h-229l63 391h-213l-61 -391h-226l62 391h-215zM504 592h213l33 209h-213z" />
<glyph unicode="$" horiz-adv-x="1034" d="M74 1001q0 154 102 255.5t277 123.5v185h108v-185q117 -5 191 -22q69 -20 149 -60v-348h-88q-19 157 -78.5 235t-173.5 91v-461q138 -64 189.5 -92.5t105.5 -69.5q129 -97 129 -272q0 -101 -43 -182q-35 -68 -102 -123q-61 -49 -116.5 -68t-162.5 -28v-187h-108v187 q-70 5 -105 10.5t-90 23.5q-53 15 -82.5 27.5t-81.5 42.5v360h82q8 -76 17 -115.5t30 -80.5q25 -51 68 -94q34 -32 66.5 -45t95.5 -19v498q-91 42 -136.5 68t-99.5 67q-143 114 -143 278zM287 1071q0 -67 35.5 -110t130.5 -93v402q-79 -15 -122.5 -67t-43.5 -132zM561 94 q47 11 74 25q47 23 76.5 73.5t29.5 110.5q0 70 -32 119q-22 36 -53 60.5t-95 54.5v-443z" />
<glyph unicode="%" horiz-adv-x="1378" d="M59 1020q0 174 61.5 269t174.5 95q109 0 169 -97t60 -275q0 -163 -63 -260t-170 -97t-169.5 97.5t-62.5 267.5zM223 1024q0 -98 13 -215q9 -92 57 -92q67 0 67 274q0 92 -4 133q-9 124 -21.5 160.5t-45.5 36.5q-66 0 -66 -283v-14zM330 -55l590 1468h124l-587 -1468h-127 zM856 340q0 175 61 270t173 95q109 0 169 -97.5t60 -275.5q0 -163 -63.5 -260t-170.5 -97t-168 97.5t-61 267.5zM1018 344q0 -107 12 -215q9 -92 60 -92q67 0 67 274q0 69 -6 133q-9 124 -21.5 160.5t-46.5 36.5q-65 0 -65 -283v-14z" />
<glyph unicode="&#x26;" horiz-adv-x="1468" d="M80 315q0 156 131 287q42 42 81.5 72.5t121.5 83.5q-25 57 -41 102q-41 112 -41 209q0 138 91.5 223.5t238.5 85.5q117 0 192.5 -61t75.5 -156q0 -110 -80 -196q-35 -36 -72.5 -65.5t-122.5 -86.5q37 -70 76 -133q10 -17 62 -98q52 -82 100 -144q40 86 61 160 q21 75 21 113q0 44 -16.5 57.5t-67.5 15.5v72h422v-72q-69 -5 -99 -22q-29 -17 -47.5 -43t-74.5 -127l-48 -84l-86 -156q87 -106 148.5 -154t112.5 -48q69 0 102 96h76q-41 -138 -107 -202t-168 -64q-100 0 -204 75q-49 39 -111 101q-50 -54 -62 -66q-113 -110 -286 -110 q-161 0 -270 96t-109 239zM319 430q0 -117 74 -204t174 -87q49 0 87.5 19t90.5 67q-76 89 -131 170q-38 56 -59.5 91.5t-73.5 131.5l-30 56q-74 -69 -103 -123t-29 -121zM555 1139q0 -87 63 -238q80 72 113 129.5t33 124.5q0 57 -29 94t-73 37q-48 0 -77.5 -40t-29.5 -107z " />
<glyph unicode="'" horiz-adv-x="430" d="M92 1366h246l-41 -549h-164z" />
<glyph unicode="(" horiz-adv-x="714" d="M133 555q0 115 32.5 242.5t88.5 230.5q52 103 143 201q69 72 122.5 106t158.5 72v-76q-66 -34 -97 -61.5t-69 -85.5q-56 -92 -76 -180q-47 -180 -47 -437q0 -262 39 -432q21 -107 86 -207q32 -49 66 -79t102 -70v-76q-108 44 -163.5 79.5t-115.5 96.5 q-123 123 -196.5 307t-73.5 369z" />
<glyph unicode=")" horiz-adv-x="714" d="M33 -221q70 41 102.5 69.5t65.5 79.5q63 90 88 207q37 182 37 432q0 259 -45 437q-23 87 -78 180q-35 56 -66.5 84.5t-97.5 62.5v76q104 -38 156.5 -71.5t121.5 -106.5q124 -130 194.5 -309t70.5 -365q0 -249 -125 -479q-63 -114 -146 -197q-60 -62 -115.5 -97 t-162.5 -79v76z" />
<glyph unicode="*" horiz-adv-x="909" d="M66 793q0 47 44.5 78t143.5 51q40 6 43 8l43 10q29 6 36 9t7 9t-8.5 9.5t-38.5 9.5l-33 8l-63 12q-174 37 -174 123q0 42 30.5 74.5t71.5 32.5q52 0 108 -62l58 -63l33 -39l18 -19q21 -24 33 -24q4 0 4 12q0 8 -6 29l-8 24l-21 58q-33 88 -33 145q0 46 27.5 73.5 t71.5 27.5q46 0 73 -29t27 -78q0 -41 -35 -145q-13 -38 -16 -52l-6 -22q-9 -21 -9 -31q0 -14 7 -14q10 0 38 31l13 16q76 93 117 125.5t81 32.5q41 0 71 -30t30 -73q0 -55 -51 -84t-183 -51l-37 -6q-45 -6 -45 -23q0 -12 50 -20l28 -6q106 -24 154 -41q39 -14 61.5 -41 t22.5 -60q0 -41 -28 -70.5t-66 -29.5t-74.5 25.5t-89.5 87.5q-24 30 -35 41l-25 28q-19 23 -30 23q-9 0 -9 -16v-5q0 -1 7 -22l12 -35q14 -50 16 -55q29 -77 29 -123q0 -115 -100 -115q-44 0 -70.5 28t-26.5 75q0 41 29 129q16 49 18 51l13 37q6 21 6 35q0 16 -6 16 q-13 0 -41 -35l-21 -22q-71 -85 -111 -115.5t-79 -30.5q-40 0 -68 30t-28 73z" />
<glyph unicode="+" d="M68 588v205h333v327h222v-327h333v-205h-333v-328h-222v328h-333z" />
<glyph unicode="," horiz-adv-x="518" d="M111 127q0 63 44 106t109 43q80 0 133.5 -66.5t53.5 -164.5q0 -94 -48 -176q-35 -65 -90 -117q-37 -33 -67 -49.5t-88 -36.5v68q64 29 101.5 89.5t37.5 135.5q0 25 -18 25h-3l-12 -2l-14 2q-65 5 -102 42.5t-37 100.5z" />
<glyph unicode="-" horiz-adv-x="454" d="M0 403v183h455v-183h-455z" />
<glyph unicode="." horiz-adv-x="518" d="M102 125q0 63 46 108.5t110 45.5q65 0 110.5 -47.5t45.5 -114.5q0 -61 -45.5 -104.5t-110.5 -43.5q-64 0 -110 45.5t-46 110.5z" />
<glyph unicode="/" horiz-adv-x="724" d="M18 0l545 1364h142l-541 -1364h-146z" />
<glyph unicode="0" horiz-adv-x="1034" d="M80 676q0 202 57.5 364t160 253t230.5 91q120 0 218 -89.5t153 -246.5t55 -350q0 -208 -56 -371t-157 -254t-229 -91q-119 0 -218.5 91.5t-156.5 251t-57 351.5zM356 684q0 -198 25 -397q27 -211 141 -211q80 0 118 149t38 471q0 323 -37 457.5t-125 134.5q-51 0 -86 -53 t-49 -150q-25 -185 -25 -401z" />
<glyph unicode="1" horiz-adv-x="1034" d="M184 1155l396 227h88v-1099q0 -120 35 -164.5t133 -48.5v-70h-619v70q116 2 155.5 44.5t39.5 166.5v694v51q0 21 -9 66q-12 51 -51 51q-41 0 -135 -47z" />
<glyph unicode="2" horiz-adv-x="1034" d="M72 0v66q59 56 86 86q161 165 252 292q206 274 206 478q0 115 -58 186.5t-150 71.5q-86 0 -145 -54.5t-81 -152.5h-76q32 194 139.5 300.5t270.5 106.5q148 0 246 -101t98 -255q0 -92 -40 -188t-134 -226q-55 -80 -105 -140t-163 -185l-66 -72h363q48 0 68.5 4.5 t39.5 18.5q22 20 47 83h76l-104 -319h-770z" />
<glyph unicode="3" horiz-adv-x="1034" d="M152 135q0 37 26.5 63.5t63.5 26.5q28 0 62 -14t58 -37l31 -27q47 -41 99 -41q66 0 101.5 50.5t35.5 142.5q0 153 -82.5 244t-243.5 116v74q118 29 192 112t74 185q0 75 -44.5 123.5t-114.5 48.5q-60 0 -100 -34.5t-66 -110.5h-80q20 78 38 117.5t52 80.5 q105 123 266 123q124 0 203.5 -74.5t79.5 -191.5q0 -109 -72 -199q-26 -35 -54 -60t-85 -65q65 -25 95.5 -42t64.5 -48q100 -83 100 -247q0 -195 -132 -333t-319 -138q-109 0 -179 43.5t-70 111.5z" />
<glyph unicode="4" horiz-adv-x="1034" d="M45 369v135l545 862h192v-842h168v-155h-168v-369h-241v369h-496zM186 524h355v570z" />
<glyph unicode="5" horiz-adv-x="1034" d="M123 125q0 44 32 71t85 27q36 0 64 -12.5t63 -44.5l28 -25q30 -27 50.5 -36t50.5 -9q85 0 145.5 81t60.5 196q0 167 -147 278.5t-371 112.5l148 602h510l-51 -213h-396l-45 -178q98 -19 149.5 -36t112.5 -50q136 -72 209.5 -187t73.5 -256q0 -202 -146.5 -334 t-369.5 -132q-108 0 -182 42t-74 103z" />
<glyph unicode="6" horiz-adv-x="1034" d="M90 549q0 197 85.5 371.5t240.5 291.5q114 86 240 125.5t296 40.5v-65q-14 -2 -27.5 -4t-25.5 -3.5t-16 -2.5q-88 -17 -178.5 -67.5t-161.5 -121.5q-64 -67 -99 -133q-37 -68 -69 -188q72 39 117.5 52t103.5 13q160 0 266.5 -116t106.5 -291q0 -196 -124.5 -333.5 t-301.5 -137.5q-205 0 -329 155.5t-124 413.5zM354 555q0 -485 191 -485q81 0 125.5 80t44.5 223q0 173 -52 272.5t-143 99.5q-40 0 -73.5 -13.5t-90.5 -51.5q-2 -61 -2 -125z" />
<glyph unicode="7" horiz-adv-x="1034" d="M70 1004l123 362h753l-467 -1395l-157 45l378 1133h-307q-120 0 -166.5 -27t-83.5 -118h-73z" />
<glyph unicode="8" horiz-adv-x="1034" d="M94 324q0 76 41 147q30 55 70.5 92t128.5 94l35 23q-95 57 -138 96q-52 47 -81 113.5t-29 140.5q0 149 113 249.5t282 100.5q163 0 271 -91t108 -228q0 -60 -25 -115q-26 -57 -67 -95.5t-133 -92.5q56 -31 83.5 -52t67.5 -57q119 -116 119 -270q0 -162 -126 -280.5 t-298 -118.5t-297 101.5t-125 242.5zM340 354q0 -120 56.5 -198t142.5 -78q78 0 133 64t55 155q0 75 -41 139q-33 46 -81 87t-142 102q-18 -16 -45 -43q-78 -88 -78 -228zM346 1094q0 -59 29.5 -112.5t81.5 -88.5l114 -76q57 47 74 68q57 77 57 176q0 97 -52 160t-132 63 q-72 0 -122 -54.5t-50 -135.5z" />
<glyph unicode="9" horiz-adv-x="1034" d="M66 920q0 190 126.5 327t301.5 137q206 0 329 -156t123 -417q0 -166 -53 -299q-37 -93 -106 -189t-144 -157q-105 -90 -238 -132.5t-321 -47.5v67q19 2 44 5.5t30 4.5q161 25 280 123q70 58 125 142q40 61 59.5 107.5t39.5 131.5q-67 -38 -110 -50.5t-106 -12.5 q-166 0 -273 117.5t-107 298.5zM319 987q0 -177 54 -276t149 -99q80 0 158 64q8 63 8 133q0 481 -194 481q-80 0 -127.5 -82t-47.5 -221z" />
<glyph unicode=":" horiz-adv-x="565" d="M150 809q0 61 44 104t107 43q65 0 111.5 -45.5t46.5 -109.5q0 -63 -46 -108.5t-110 -45.5t-108.5 47t-44.5 115zM152 125q0 64 45 110t108 46q65 0 110.5 -47.5t45.5 -114.5q0 -61 -45.5 -104.5t-108.5 -43.5q-64 0 -109.5 45.5t-45.5 108.5z" />
<glyph unicode=";" horiz-adv-x="565" d="M160 125q0 65 43 108t108 43q80 0 134.5 -66.5t54.5 -164.5q0 -90 -47 -176q-37 -65 -93 -117q-35 -32 -65.5 -49t-89.5 -37v68q64 29 101.5 89.5t37.5 135.5q0 25 -16 25h-2l-13 -2l-14 2q-66 4 -102.5 41.5t-36.5 99.5zM168 807q0 60 43 102.5t104 42.5 q65 0 110.5 -46.5t45.5 -112.5q0 -60 -44 -104t-105 -44q-64 0 -109 48t-45 114z" />
<glyph unicode="&#x3c;" d="M68 588v186l888 438v-219l-653 -313l651 -313l2 -217z" />
<glyph unicode="=" d="M68 432v193h888v-193h-888zM68 770v195h888v-195h-888z" />
<glyph unicode="&#x3e;" d="M68 150v219l653 313l-651 313l-2 217l888 -438v-188z" />
<glyph unicode="?" horiz-adv-x="880" d="M96 1118q0 116 102 189t263 73q164 0 258 -84.5t94 -232.5q0 -78 -35 -152.5t-98 -126.5l-37 -30q-3 -3 -22.5 -22t-36.5 -36q-38 -36 -64 -65q-32 -40 -46 -88t-15 -129h-105q3 119 21 188.5t69 163.5l33 59q74 134 74 260q0 100 -36.5 156.5t-100.5 56.5q-35 0 -64 -16 q-17 -11 -29 -27.5t-12 -29.5v-2l6 -41l4 -17l17 -32q12 -21 12 -52q0 -49 -35 -81.5t-86 -32.5q-60 0 -95.5 41t-35.5 110zM250 133q0 60 44.5 101.5t108.5 41.5q63 0 107.5 -47t44.5 -114q0 -59 -44.5 -101.5t-107.5 -42.5q-64 0 -108.5 47.5t-44.5 114.5z" />
<glyph unicode="@" horiz-adv-x="1501" d="M68 674q0 147 56 279t151.5 227t228 150.5t280.5 55.5q183 0 331.5 -78t232.5 -215.5t84 -308.5q0 -124 -47 -234.5t-125.5 -176.5t-165.5 -66q-59 0 -102 33.5t-52 87.5q-43 -63 -111 -99t-145 -36q-123 0 -205 93t-82 232q0 109 48.5 203.5t131 150.5t177.5 56 q148 0 211 -119l18 99l154 -2l-78 -404q-15 -71 -15 -88q0 -37 16 -58.5t42 -21.5q54 0 106 72q86 116 86 276q0 205 -141 335t-362 130q-160 0 -291 -76t-206 -208t-75 -293q0 -114 41 -219.5t115 -180.5q152 -155 418 -155q217 0 397 73l37 -139q-194 -74 -428 -74 q-161 0 -289 45q-196 67 -319 249t-123 405zM571 625q0 -78 43 -126t111 -48q81 0 138 75t57 181q0 72 -40 116.5t-106 44.5q-82 0 -142.5 -72t-60.5 -171z" />
<glyph unicode="A" horiz-adv-x="1480" d="M10 0v72q58 3 89.5 16.5t60.5 48.5q28 32 48 71t52 124l418 1054h121l448 -1093q47 -114 82 -158q25 -34 55.5 -48t85.5 -15v-72h-606v72h29q62 0 90.5 18t28.5 57q0 21 -23 80l-55 142h-531l-51 -133q-18 -52 -18 -74q0 -52 33.5 -70t130.5 -20v-72h-488zM444 475h445 l-223 555z" />
<glyph unicode="B" horiz-adv-x="1370" d="M61 0v72q93 2 144 26q38 22 50.5 64.5t12.5 148.5v748q0 148 -37.5 191t-169.5 44v72h601q160 0 292 -27q119 -28 187.5 -112.5t68.5 -204.5q0 -86 -40 -153t-111 -99q-67 -33 -197 -59q83 -11 123 -20t84 -29q89 -37 143 -120t54 -182q0 -89 -41.5 -163t-118.5 -121 q-68 -42 -164.5 -59t-267.5 -17h-613zM547 113q17 -1 35.5 -2t30 -1.5t22.5 -0.5q160 0 243 69.5t83 204.5q0 75 -31.5 137.5t-85.5 91.5q-37 21 -80 29t-117 8q-43 0 -100 -2v-534zM547 752h49q132 0 201 30q62 26 94.5 84.5t32.5 141.5t-43 155q-35 57 -89 80t-151 23 q-41 0 -94 -2v-512z" />
<glyph unicode="C" horiz-adv-x="1429" d="M96 684q0 331 258 543q104 87 213 126.5t246 39.5q97 0 205 -27q68 -21 94 -31l23 -6q15 -6 36 -6q23 0 32 10t14 41q0 2 1 6t1 6h73l35 -471h-80q-16 64 -27.5 95.5t-33.5 66.5q-60 95 -161.5 154t-207.5 59q-187 0 -295 -155.5t-108 -425.5q0 -274 111.5 -440.5 t297.5 -166.5q78 0 164.5 34t147.5 89q40 35 67 72t70 113l82 -41q-200 -396 -592 -396q-188 0 -340.5 92.5t-239 255.5t-86.5 363z" />
<glyph unicode="D" horiz-adv-x="1638" d="M43 0v72q69 2 89 3.5t50 10.5q51 17 71.5 64.5t20.5 144.5v780q0 78 -9.5 116t-35.5 64q-23 23 -51 30t-100 7h-31v74l647 -2q35 0 76 -2q131 -3 182 -6q103 -6 222 -49q177 -68 284 -235t107 -376q0 -158 -63 -298.5t-177 -237.5q-104 -89 -231.5 -125.5t-333.5 -36.5z M551 137q7 -10 24 -16q49 -15 132 -15q263 0 405.5 153.5t142.5 436.5q0 255 -129 414q-62 75 -148.5 110t-213.5 35q-86 0 -213 -14v-1081v-23z" />
<glyph unicode="E" horiz-adv-x="1384" d="M61 0v72q63 2 91 6.5t55 19.5q40 22 52.5 63.5t12.5 149.5v748q0 112 -22 164q-17 40 -57 54.5t-132 16.5v72h1121l20 -332h-76q-25 123 -84.5 169t-197.5 46h-299v-477h239q72 0 97 3.5t53 17.5q61 35 61 151v17h74v-492h-74q-5 64 -7.5 80.5t-12.5 40.5 q-15 43 -54 57.5t-135 14.5h-241v-439q0 -76 15.5 -95t78.5 -19h6l193 2q129 1 204 26t122.5 84.5t84.5 173.5h78l-110 -395h-1156z" />
<glyph unicode="F" horiz-adv-x="1290" d="M53 0v72q65 2 94 6.5t58 19.5q39 22 52 64t13 149v748q0 112 -20 164q-15 38 -60 55q-25 10 -46 12t-91 4v72h1200l19 -354h-78q-17 138 -79 189.5t-208 51.5h-358v-481h270q61 0 88 4.5t51 18.5q32 19 44.5 53t15.5 113h69v-492h-69q-2 80 -23 125q-19 41 -52 53 t-122 12h-272v-354q0 -102 4.5 -127.5t28.5 -54.5q23 -26 61 -37t117 -12q3 0 16.5 -1t22.5 -1v-72h-746z" />
<glyph unicode="G" horiz-adv-x="1632" d="M86 674q0 273 162 456q103 117 260 185.5t321 68.5q94 0 170 -20l78 -21l27 -8l35 -8l35 -10q8 -2 26 -2q32 0 49.5 17t26.5 57h70l26 -476h-78q-19 84 -39.5 127.5t-64.5 92.5q-138 153 -346 153q-207 0 -325 -152.5t-118 -422.5q0 -295 124.5 -469t336.5 -174 q73 0 132 17.5t157 68.5v284q0 58 -8.5 91t-30.5 61q-23 28 -54.5 37.5t-99.5 9.5q-2 0 -11.5 1t-16.5 1v72h645v-72q-92 -10 -125 -51t-33 -144v-331q-189 -69 -268 -93q-171 -47 -320 -47q-165 0 -303.5 51t-235 142.5t-150.5 222t-54 285.5z" />
<glyph unicode="H" horiz-adv-x="1671" d="M61 0v72q62 2 89.5 6.5t56.5 19.5q38 22 51.5 65t13.5 148v748q0 112 -22 164q-17 40 -57 54.5t-132 16.5v72h695v-72q-56 -1 -90 -7.5t-59.5 -20t-37 -41.5t-17 -66t-5.5 -100v-301h575v301q0 77 -7.5 120t-31.5 70t-61.5 35.5t-106.5 9.5v72h693v-72q-61 -2 -83.5 -5 t-49.5 -15q-43 -17 -59.5 -64.5t-16.5 -150.5v-748q0 -114 14 -157q17 -43 62 -61.5t133 -20.5v-72h-693v72q93 2 142 26q40 22 52.5 63.5t12.5 149.5v334h-575v-334q0 -114 14 -157q17 -43 62 -61.5t133 -20.5v-72h-695z" />
<glyph unicode="I" horiz-adv-x="819" d="M61 0v72q95 2 144 26q40 22 52.5 63.5t12.5 149.5v748q0 77 -7.5 120t-31.5 70t-62.5 35.5t-107.5 9.5v72h695v-72q-56 -1 -90 -7.5t-59.5 -20t-37 -41.5t-17 -66t-5.5 -100v-748q0 -116 16 -157q15 -43 60 -61.5t133 -20.5v-72h-695z" />
<glyph unicode="J" horiz-adv-x="915" d="M14 166q0 53 34.5 88t86.5 35q97 0 123 -111l8 -37q14 -67 66 -67q61 0 61 73q0 21 -2 39l-4 27q-4 66 -4 115v731q0 79 -7 121.5t-31.5 69.5t-62.5 35t-108 9v72h694v-72q-56 -1 -90.5 -7.5t-60 -20t-37.5 -41.5t-17.5 -66t-5.5 -100v-541v-63q0 -146 -26 -232 q-37 -114 -133.5 -182t-221.5 -68q-114 0 -188 54t-74 139z" />
<glyph unicode="K" horiz-adv-x="1611" d="M61 0v72q63 2 91 6.5t55 19.5q40 22 52.5 63.5t12.5 149.5v748q0 112 -22 164q-17 40 -57 54.5t-132 16.5v72h697v-72q-71 -2 -109.5 -10.5t-63 -35.5t-31.5 -69t-7 -120v-359l377 418q71 77 71 125q0 26 -17 37.5t-58 11.5q-38 0 -52 2v72h557v-72q-105 -5 -170 -45 q-35 -19 -96 -69q-38 -32 -59 -53t-74 -78l-244 -263l478 -503q70 -74 133 -121q40 -32 94 -60q39 -19 115 -30v-72h-678v72h28q88 0 88 51q0 24 -41 70l-452 477v-359q0 -121 14 -157q15 -43 60.5 -61.5t136.5 -20.5v-72h-697z" />
<glyph unicode="L" horiz-adv-x="1292" d="M61 0v72q62 2 89.5 6.5t56.5 19.5q39 22 52 64.5t13 148.5v748q0 112 -22 164q-17 40 -57 54.5t-132 16.5v72h695v-72q-56 -1 -90.5 -7.5t-60 -20t-37.5 -41.5t-17.5 -66t-5.5 -100v-813q0 -104 18 -119q25 -21 133 -21h11l96 3q126 0 211 32q55 17 100 72q23 29 39 60.5 t51 119.5h82l-112 -393h-1113z" />
<glyph unicode="M" horiz-adv-x="1949" d="M43 1294v72h543l387 -954l379 954h555v-72q-23 -2 -52 -2q-39 0 -81 -10q-54 -12 -75.5 -52t-21.5 -130v-783q0 -150 36 -195t159 -48q3 0 14.5 -1t20.5 -1v-72h-721v72q66 2 95 6.5t56 19.5q40 22 53 64.5t13 148.5v848l-461 -1165h-84l-459 1145v-828q0 -110 15 -157 q15 -41 59.5 -61t128.5 -21v-72h-553v72l51 2q63 3 97 16.5t53 44.5q14 27 18 60t4 118v772q0 107 -30 150q-21 31 -60 43q-41 12 -139 16z" />
<glyph unicode="N" horiz-adv-x="1617" d="M33 0v72h41q57 4 84 8q50 12 75 43q20 25 26.5 61t6.5 127v863q-33 39 -52.5 56.5t-47.5 35.5q-44 25 -127 28v72h403l799 -946v641q0 75 -5 107.5t-22 62.5q-19 31 -54 45.5t-97 15.5l-55 2v72h581v-72q-66 -2 -90 -5t-53 -15q-43 -17 -59.5 -64.5t-16.5 -150.5v-1075 h-88l-889 1060v-731q0 -87 7.5 -124.5t29.5 -65.5q23 -28 61.5 -38t135.5 -13v-72h-594z" />
<glyph unicode="O" horiz-adv-x="1583" d="M96 676q0 315 190.5 509.5t499.5 194.5q310 0 505.5 -197t195.5 -509q0 -310 -193.5 -504.5t-502.5 -194.5q-314 0 -504.5 192.5t-190.5 508.5zM412 676q0 -290 98.5 -448t280.5 -158q178 0 278 160.5t100 443.5q0 289 -99 448.5t-279 159.5t-279 -159q-98 -157 -98 -441 v-6h-2z" />
<glyph unicode="P" horiz-adv-x="1224" d="M61 0v72q95 2 144 26q38 22 51.5 65t13.5 148v748q0 115 -22 164q-17 40 -56.5 54.5t-130.5 16.5v72h465q218 0 310 -10q163 -22 261.5 -124.5t98.5 -250.5q0 -172 -127.5 -282.5t-325.5 -110.5q-52 0 -91 7t-105 28v-312q0 -114 14 -157q17 -42 62.5 -61.5t132.5 -20.5 v-72h-695zM547 719q88 -21 119 -21q101 0 168 83t67 206q0 129 -69.5 201t-194.5 72q-36 0 -90 -5v-536z" />
<glyph unicode="Q" horiz-adv-x="1581" d="M96 678q0 209 85.5 369.5t242 248.5t360.5 88q205 0 364.5 -88.5t248 -248.5t88.5 -365q0 -156 -50.5 -289.5t-146.5 -230.5q-67 -67 -125.5 -99t-171.5 -63q26 -63 44 -93.5t50 -64.5q63 -63 125 -82q50 -18 92.5 -23.5t159.5 -8.5v-72q-43 -2 -96 -2q-138 0 -266 23 t-205 61q-79 44 -156 110q-50 43 -71.5 69t-49.5 77q-122 20 -186.5 53.5t-146.5 118.5q-189 195 -189 512zM410 682q0 -291 100 -451.5t281 -160.5q178 0 277 160.5t99 449.5q0 290 -98.5 448t-280.5 158q-178 0 -278 -160.5t-100 -443.5z" />
<glyph unicode="R" horiz-adv-x="1503" d="M61 0v72q93 2 142 26q39 22 52 64t13 149v748q0 77 -7.5 120t-31.5 70t-61.5 35.5t-106.5 9.5v72h662q117 0 175.5 -8.5t121.5 -34.5q97 -38 152 -123t55 -199q0 -163 -129 -266q-39 -29 -77 -47t-112 -45l291 -375q56 -70 107 -118q41 -38 81 -55t105 -23v-72h-410 l-473 612h-65v-301q0 -116 16 -157q15 -41 60 -61t131 -21v-72h-691zM545 713h69q78 3 124 14.5t87 38.5q101 69 101 223q0 129 -74.5 201t-206.5 72q-44 0 -100 -5v-544z" />
<glyph unicode="S" horiz-adv-x="1206" d="M133 -29l4 478h80q7 -79 29 -138q41 -100 138.5 -163.5t211.5 -63.5q101 0 169.5 61.5t68.5 153.5q0 47 -23 98q-23 52 -60.5 85t-117.5 71l-156 74q-131 60 -211 137q-56 54 -87.5 125t-31.5 143q0 152 116.5 251t295.5 99q99 0 217 -39l19 -6l36 -12q15 -6 31 -6 q55 0 64 67h78l12 -428h-80q-11 65 -31 119q-35 95 -121.5 153t-195.5 58q-88 0 -146.5 -51t-58.5 -129q0 -64 37 -111q55 -73 217 -149l86 -37q140 -65 211 -121q75 -60 119.5 -149.5t44.5 -182.5q0 -163 -125.5 -274t-308.5 -111q-103 0 -228 41l-39 13q-2 0 -8 1.5 t-19.5 4.5t-27.5 6q-38 10 -59 10q-32 0 -47 -17t-21 -61h-82z" />
<glyph unicode="T" horiz-adv-x="1247" d="M18 977l15 389h1184l10 -389h-78q-5 99 -19 151q-9 36 -38 68q-23 25 -51.5 33t-90.5 8h-188v-926q0 -114 14 -157q17 -42 61.5 -61.5t131.5 -20.5v-72h-693v72q62 2 89.5 6.5t54.5 19.5q40 22 52.5 63.5t12.5 149.5v926h-178q-59 0 -93.5 -9.5t-61.5 -33.5 q-30 -27 -39 -70q-13 -58 -15 -92q0 -8 -1 -26t-1 -29h-78z" />
<glyph unicode="U" horiz-adv-x="1636" d="M47 1294v72h692v-72q-70 -2 -107.5 -10.5t-61.5 -35.5t-31 -69t-7 -120v-510q0 -109 3.5 -150t17.5 -86q29 -97 118.5 -153t213.5 -56q165 0 270 97q57 52 79.5 127.5t22.5 210.5v522q0 103 -18 153q-12 39 -49 58q-24 12 -49 16.5t-86 5.5v72h532v-72q-54 -1 -86.5 -7.5 t-57 -20.5t-36 -42t-16.5 -65.5t-5 -99.5v-520q0 -166 -33.5 -260t-121.5 -170q-80 -71 -176 -103.5t-226 -32.5q-200 0 -350 78q-156 86 -200 223q-14 45 -18.5 100.5t-4.5 174.5v510q0 77 -7.5 120t-31.5 70t-62.5 35.5t-107.5 9.5z" />
<glyph unicode="V" horiz-adv-x="1388" d="M4 1294v72h571v-72q-84 -2 -116.5 -16t-32.5 -49q0 -21 33 -107l297 -749l301 733q33 90 33 119q0 38 -24.5 52.5t-86.5 14.5q-13 0 -21 2v72h426v-72q-70 -6 -101.5 -32.5t-65.5 -106.5l-29 -70l-449 -1110h-108l-461 1149l-25 60q-26 63 -53.5 84t-87.5 26z" />
<glyph unicode="W" horiz-adv-x="1912" d="M4 1294v72h510v-72q-55 -6 -75.5 -20.5t-20.5 -46.5q0 -21 20 -80l17 -47l254 -699l190 529l-82 219q-35 94 -58 117t-83 26q-13 0 -23 2v72h561v-72q-72 -3 -98 -18t-26 -53q0 -24 16 -70l12 -39l254 -702l219 622l21 60q28 98 28 123q0 43 -27 59.5t-100 17.5v72h396 v-72q-59 -8 -87 -41t-65 -137l-405 -1143h-107l-280 766l-273 -766h-108l-422 1149q-23 62 -49 113q-18 32 -41 44t-68 15z" />
<glyph unicode="X" horiz-adv-x="1507" d="M18 0v72q83 5 123 22q46 19 90.5 61t110.5 128l276 364l-317 445q-85 117 -141.5 157t-141.5 45v72h652v-72h-29q-104 0 -104 -55q0 -37 51 -106l192 -273l185 238q77 101 77 145q0 51 -79 51h-23v72h485v-72q-80 -5 -129 -28q-44 -22 -82.5 -58t-95.5 -110l-262 -346 l344 -476l27 -38q59 -81 123 -127q31 -23 59 -31t78 -8v-72h-641v72q6 0 14 1t10 1q53 2 76 14.5t23 40.5q0 29 -45 90l-230 324l-227 -299l-21 -29q-26 -37 -33 -54t-7 -38q0 -28 23.5 -39.5t80.5 -11.5h6h27v-72h-525z" />
<glyph unicode="Y" horiz-adv-x="1413" d="M4 1294v72h612v-72h-14q-58 0 -84 -13t-26 -42q0 -40 47 -115l249 -403l207 358l27 47q41 70 41 109q0 31 -30 45t-97 14h-33v72h504v-72q-61 -6 -93.5 -20t-64.5 -47q-63 -70 -125 -176l-272 -459v-342q0 -58 11.5 -91t39.5 -53q27 -19 57 -25t109 -9v-72h-707v72h13 q64 0 93.5 6t55.5 26q28 20 38.5 53t10.5 99v313l-299 484q-73 112 -104 153q-36 52 -66 67.5t-100 20.5z" />
<glyph unicode="Z" horiz-adv-x="1378" d="M61 0v72l828 1179h-342q-162 0 -224.5 -52t-82.5 -204h-74l35 371h1040v-74l-829 -1181h426h63q131 0 207 68.5t111 217.5h73l-71 -397h-1160z" />
<glyph unicode="[" horiz-adv-x="692" d="M221 -250v1614h393v-70q-76 0 -102.5 -3t-44.5 -15q-17 -12 -21 -28t-4 -70v-1250q0 -67 24.5 -87.5t104.5 -20.5q29 0 43 2v-72h-393z" />
<glyph unicode="\" d="M55 1536h215l664 -1706h-217z" />
<glyph unicode="]" horiz-adv-x="692" d="M76 -178q14 -2 43 -2q82 0 106.5 20.5t24.5 87.5v1250q0 53 -4.5 68.5t-22.5 29.5q-15 12 -42 15t-105 3v70h395v-1614h-395v72z" />
<glyph unicode="^" d="M25 709l342 663h290l342 -663h-235l-252 485l-254 -485h-233z" />
<glyph unicode="_" d="M0 -111h1024v-198h-1024v198z" />
<glyph unicode="`" d="M174 1405h281l120 -332h-96z" />
<glyph unicode="a" horiz-adv-x="1054" d="M86 207q0 69 36 133.5t97 105.5q63 41 148 75t254 85v127q0 86 -23.5 116t-91.5 30q-60 0 -91.5 -24.5t-31.5 -70.5v-12v-27v-10q0 -52 -30 -83t-81 -31q-54 0 -85 30.5t-31 83.5q0 101 99.5 161t266.5 60q236 0 307 -100q37 -53 37 -180v-457q0 -37 2 -51q0 -43 35 -43 q23 0 40.5 17.5t41.5 62.5l64 -33q-111 -195 -269 -195q-49 0 -86.5 20.5t-54.5 55.5q-14 27 -16 88q-83 -86 -153.5 -125t-143.5 -39q-103 0 -171.5 66t-68.5 164zM336 283q0 -60 34.5 -100t86.5 -40q79 0 164 101v280q-161 -63 -223 -115.5t-62 -125.5z" />
<glyph unicode="b" horiz-adv-x="1075" d="M10 1233v70l379 96v-559q78 64 132.5 89t119.5 25q157 0 257.5 -124t100.5 -318q0 -151 -64 -275t-177.5 -195t-251.5 -71q-76 0 -156 21q-77 20 -205 78v983q0 108 -18.5 148t-67.5 40q-18 0 -49 -8zM389 315l2 -57q1 -64 5 -84.5t16 -46.5q27 -55 112 -55 q118 0 183 88.5t65 249.5q0 167 -65.5 270.5t-171.5 103.5q-80 0 -146 -63v-406z" />
<glyph unicode="c" horiz-adv-x="913" d="M82 451q0 221 125.5 363t320.5 142q127 0 218.5 -61t91.5 -147q0 -49 -31.5 -80t-81.5 -31q-84 0 -115 90l-12 35q-19 54 -43 74t-70 20q-86 0 -142 -86.5t-56 -220.5q0 -156 80 -261.5t198 -105.5q140 0 236 137l69 -36q-41 -77 -61 -109.5t-51 -67.5 q-54 -66 -127.5 -101.5t-153.5 -35.5q-170 0 -282.5 137.5t-112.5 344.5z" />
<glyph unicode="d" horiz-adv-x="1116" d="M82 442q0 220 125.5 368t312.5 148q98 0 174 -49v183q0 94 -17 123.5t-71 29.5q-34 0 -86 -12v72l420 94v-1108l2 -76q0 -52 14 -72t50 -20q26 0 67 14v-74l-371 -102v129q-32 -28 -43 -35q-104 -80 -210 -80q-155 0 -261 135t-106 332zM307 537q0 -173 76 -283.5 t195 -110.5q51 0 118 39v445q0 79 -4.5 107.5t-23.5 60.5q-20 34 -58 53.5t-82 19.5q-100 0 -160.5 -90.5t-60.5 -240.5z" />
<glyph unicode="e" horiz-adv-x="980" d="M80 451q0 218 122.5 360.5t309.5 142.5q103 0 187 -46t135 -132q33 -56 46 -107.5t19 -148.5h-584q9 -167 78.5 -259.5t186.5 -92.5q153 0 254 162l69 -35q-30 -73 -49.5 -108t-54.5 -76q-116 -140 -305 -140q-185 0 -299.5 132.5t-114.5 347.5zM315 623h306 q-5 89 -21 139q-14 44 -45.5 69t-75.5 25q-72 0 -111.5 -56t-52.5 -177z" />
<glyph unicode="f" horiz-adv-x="667" d="M43 0v63q6 0 18 1.5t17 1.5q45 7 65 16q25 14 34 38.5t9 82.5v51v567h-139v105h141v24q0 48 2 68q1 78 26 135.5t79 108.5q121 112 283 112q95 0 155 -40t60 -103q0 -51 -28.5 -80t-78.5 -29q-32 0 -53 14t-49 54l-17 22q-39 56 -69 56q-68 0 -68 -129v-213h203v-105 h-203v-567v-47q2 -85 33 -114.5t121 -29.5h28v-63h-569z" />
<glyph unicode="g" horiz-adv-x="1042" d="M61 -145q0 38 22.5 77.5t76.5 96.5l39 43q-88 43 -88 129q0 55 36 100q21 29 40 48t73 65q-36 17 -59 37q-47 34 -76 92.5t-29 120.5q0 134 113 215.5t297 81.5q59 0 105 -11t132 -45l50 13q76 19 117.5 24.5t103.5 5.5v-162q-40 2 -58 5l-28 4q-42 6 -82 8 q25 -44 34 -70.5t9 -62.5q0 -135 -109 -219t-286 -84q-61 0 -140 14q-32 -28 -44.5 -49t-12.5 -47q0 -32 27.5 -45.5t111.5 -22.5l277 -24q101 -11 166 -41q44 -23 71 -69t27 -97q0 -148 -139 -246t-346 -98q-189 0 -310 59.5t-121 153.5zM233 -86q0 -69 89 -116.5 t219 -47.5q122 0 209.5 51t87.5 121q0 31 -19 47q-14 14 -59 21q-27 3 -60 6l-272 27q-67 6 -133 16q-37 -51 -49.5 -76.5t-12.5 -48.5zM342 651q8 -98 49.5 -152.5t108.5 -54.5q68 0 106.5 54.5t38.5 150.5q0 104 -42.5 167t-113.5 63q-69 0 -108 -53t-39 -146v-29z" />
<glyph unicode="h" horiz-adv-x="1153" d="M43 1233v70l381 96v-559q6 4 24.5 18t26.5 21q61 45 116 64.5t120 19.5q82 0 144 -33.5t93 -93.5q37 -67 37 -209v-418q0 -86 26.5 -115.5t108.5 -30.5v-63h-497v63q70 4 94 34t24 112v401q0 53 -8 111q-7 40 -41 65t-80 25q-43 0 -84.5 -18t-103.5 -62v-522 q0 -87 22 -114.5t97 -31.5v-63h-498v63q55 9 73 14.5t34 18.5q26 23 26 113v844q0 110 -17.5 149t-68.5 39q-18 0 -49 -8z" />
<glyph unicode="i" horiz-adv-x="604" d="M43 821v70l381 86v-768q0 -87 27 -116t110 -30v-63h-516v63q54 9 71.5 14.5t33.5 18.5q28 28 28 113v422q0 117 -17.5 157.5t-68.5 40.5q-9 0 -49 -8zM154 1243q0 56 40.5 95.5t98.5 39.5q59 0 100 -43t41 -104q0 -56 -41.5 -95.5t-99.5 -39.5t-98.5 42.5t-40.5 104.5z " />
<glyph unicode="j" horiz-adv-x="581" d="M-111 -229q0 44 26.5 71t68.5 27q31 0 49 -13t43 -51l14 -24q23 -35 51 -35q25 0 35 17t10 57v16v78v717q0 117 -17.5 157.5t-68.5 40.5q-11 0 -51 -8v70l379 86v-830q0 -6 -1 -36t-1 -52q-5 -99 -16.5 -150t-42.5 -102q-46 -75 -124.5 -118t-170.5 -43 q-82 0 -132.5 34.5t-50.5 90.5zM156 1243q0 57 41 97t100 40q58 0 99.5 -42.5t41.5 -102.5q0 -57 -41.5 -98t-99.5 -41t-99.5 43.5t-41.5 103.5z" />
<glyph unicode="k" horiz-adv-x="1126" d="M43 1233v70l381 96v-887l219 227q40 40 53 59t13 36q0 32 -56 32h-8v62h397v-62q-65 -3 -114.5 -24.5t-96.5 -67.5l-176 -176l303 -440q34 -50 61 -68t83 -27v-63h-469v63q78 0 78 35q0 13 -25 56l-186 286l-76 -73v-158q0 -84 20 -111t88 -35v-63h-485v63q57 10 73 15.5 t30 17.5q28 25 28 113v844q0 108 -18.5 148t-67.5 40q-18 0 -49 -8z" />
<glyph unicode="l" horiz-adv-x="604" d="M43 1233v70l383 96v-1190q0 -86 26.5 -115.5t108.5 -30.5v-63h-516v63q54 9 72.5 15t32.5 18q28 28 28 113v844q0 108 -18.5 148t-67.5 40q-18 0 -49 -8z" />
<glyph unicode="m" horiz-adv-x="1716" d="M43 0v63q91 14 114 38.5t23 107.5v422q0 93 -8 129q-13 69 -78 69q-9 0 -49 -8v70l371 86v-150q65 56 108 82q82 54 187 54q86 0 141 -31.5t98 -104.5q66 47 146 88q99 48 176 48q272 0 272 -308v-446q0 -87 27.5 -116t111.5 -30v-63h-495v63q67 6 91 36t24 110v444 q0 158 -134 158q-97 0 -188 -70v-532q0 -82 21.5 -109.5t91.5 -36.5v-63h-461v63q62 9 83 38.5t21 105.5v422q0 98 -29 140t-98 42q-43 0 -83.5 -17t-104.5 -63v-522q0 -86 20 -113t90 -33v-63h-489z" />
<glyph unicode="n" horiz-adv-x="1155" d="M43 821v70l369 86v-150q55 46 100 78q86 60 197 60q271 0 274 -306l4 -450q2 -86 27.5 -114.5t107.5 -31.5v-63h-497v63q72 6 95 34.5t23 111.5v393q0 88 -10 127q-21 80 -121 80q-94 0 -194 -84v-516q0 -87 23 -114t98 -32v-63h-494v63q89 15 111 39.5t22 106.5v422 q0 117 -17.5 157.5t-68.5 40.5q-9 0 -49 -8z" />
<glyph unicode="o" horiz-adv-x="1114" d="M72 467q0 217 139.5 355.5t359.5 138.5q212 0 341.5 -134t129.5 -352q0 -224 -136 -366t-351 -142q-217 0 -350 138t-133 362zM334 463q0 -406 225 -406q110 0 163.5 102.5t53.5 317.5q0 205 -49.5 297t-159.5 92q-120 0 -174.5 -93t-56.5 -296z" />
<glyph unicode="p" horiz-adv-x="1126" d="M33 -276q95 10 120 35t25 110v762q0 93 -8 129q-13 69 -78 69q-9 0 -49 -8v70l369 86v-178q54 56 96 90q91 72 194 72q146 0 247.5 -136t101.5 -333q0 -218 -129 -366.5t-318 -148.5q-47 0 -84 12t-96 46v-166q0 -89 29.5 -117t121.5 -28v-64h-542v64zM424 299 q0 -82 14 -123q13 -47 55 -76.5t95 -29.5q101 0 157 94t56 264q0 158 -59.5 253t-159.5 95q-42 0 -77.5 -16t-80.5 -55v-406z" />
<glyph unicode="q" horiz-adv-x="1093" d="M72 422q0 143 61 267.5t164 198t221 73.5q63 0 109 -15.5t114 -58.5l197 90l-4 -1108q0 -86 27 -115t110 -30v-64h-526v64q95 10 120 35t25 110v221q-35 -35 -47 -43q-38 -29 -96.5 -47t-112.5 -18q-152 0 -257 127t-105 313zM322 506q0 -172 60.5 -267.5t170.5 -95.5 q41 0 71 12t66 42v522q0 66 -41.5 106.5t-109.5 40.5q-101 0 -159 -96.5t-58 -263.5z" />
<glyph unicode="r" horiz-adv-x="780" d="M43 821v70l371 86v-197q112 185 239 185q53 0 88 -34.5t35 -88.5q0 -49 -33 -85t-79 -36q-41 0 -80 31l-19 12q-15 12 -30 12q-39 0 -119 -139v-428q0 -91 32 -118t146 -28v-63h-549v63q53 9 71 14.5t34 18.5q28 28 28 113v422q0 117 -17.5 157.5t-68.5 40.5q-9 0 -49 -8 z" />
<glyph unicode="s" horiz-adv-x="858" d="M100 -14v331h82q11 -110 84.5 -178.5t182.5 -68.5q63 0 99 32t36 86q0 32 -13 58q-15 28 -34.5 44t-71.5 42l-148 78q-117 62 -165 123.5t-48 152.5q0 120 80.5 193t212.5 73q59 0 156 -20l22 -6q27 -6 39 -6q17 0 24.5 9t12.5 32h72l2 -322h-86q-7 60 -18.5 91.5 t-36.5 60.5q-31 36 -78.5 57.5t-97.5 21.5q-55 0 -90 -29t-35 -75q0 -76 143 -145l117 -58q126 -61 184.5 -135.5t58.5 -171.5q0 -119 -86.5 -201t-212.5 -82q-74 0 -188 29l-31 10q-42 11 -57 11q-19 0 -27.5 -8.5t-11.5 -28.5h-72z" />
<glyph unicode="t" horiz-adv-x="692" d="M57 823v58q68 39 102.5 66.5t69.5 68.5q36 45 55.5 87.5t41.5 121.5h73v-297h250v-105h-248v-536q0 -18 2 -43q0 -10 1.5 -26t1.5 -21q5 -35 27 -56.5t56 -21.5t60.5 23.5t58.5 84.5l66 -30q-89 -222 -287 -222q-121 0 -184 82q-26 35 -35.5 82.5t-9.5 139.5v544h-101z " />
<glyph unicode="u" horiz-adv-x="1161" d="M33 866v62h379l4 -555l2 -68q0 -55 6 -90q8 -43 42.5 -67.5t86.5 -24.5q41 0 79 14.5t105 57.5v491q0 60 -5 92.5t-22.5 53.5t-44.5 27t-77 7v62h391v-670q0 -62 2 -76q3 -28 22 -43.5t48 -15.5q24 0 67 14v-71l-375 -105v143q-43 -34 -63 -47q-63 -48 -115.5 -68 t-113.5 -20q-138 0 -208.5 82.5t-70.5 243.5v418q0 61 -3 80t-17 36q-15 20 -41 27.5t-78 9.5z" />
<glyph unicode="v" horiz-adv-x="948" d="M4 866v64h453v-64q-95 -6 -95 -49q0 -32 29 -110l150 -381l151 403q23 64 23 90q0 47 -101 47v64h330v-64q-47 -12 -65 -33t-52 -104l-20 -53l-266 -701h-109l-289 730q-40 93 -57 118q-23 33 -82 43z" />
<glyph unicode="w" horiz-adv-x="1402" d="M4 866v64h389v-64q-63 -3 -63 -45q0 -7 8 -43l12 -33l168 -446l135 350l-45 117q-23 60 -47.5 80t-75.5 20v64h463v-64q-58 -3 -81 -15t-23 -38q0 -29 24 -88l148 -399l133 403q18 56 18 88q0 49 -86 49v64h316v-64q-46 -9 -65.5 -29t-41.5 -79l-14 -47l-250 -738h-119 l-192 519l-197 -519h-125l-287 777l-10 24q-20 54 -36 70t-56 22z" />
<glyph unicode="x" horiz-adv-x="993" d="M18 0v63q55 4 92 28.5t72 78.5l27 41l156 233l-189 283l-20 35q-16 27 -43 57q-25 30 -40.5 38.5t-45.5 8.5h-4v64h444v-64q-64 0 -64 -43q0 -10 9 -28l20 -35l10 -19l84 -129l74 115l18 31q27 55 27 73q0 19 -16 27t-54 8v64h351v-64q-68 -6 -102.5 -32t-92.5 -115 l-137 -211l154 -232q65 -100 110 -151q26 -28 49.5 -40.5t65.5 -21.5v-63h-459v63q57 3 57 35q0 28 -30 76l-19 29l-90 137l-98 -156q-35 -54 -35 -80q0 -41 78 -41h14v-63h-373z" />
<glyph unicode="y" horiz-adv-x="960" d="M10 866v64h457v-64q-53 -2 -73.5 -13t-20.5 -40q0 -26 20 -82l156 -397l153 407q21 49 21 82q0 43 -88 43h-12v64h333v-64q-44 -6 -64.5 -29t-49.5 -98l-15 -34l-286 -750q-72 -186 -151.5 -269t-186.5 -83q-66 0 -108 35t-42 90q0 44 32.5 75t78.5 31q22 0 49 -10 l39 -12q21 -7 35 -7q31 0 51 20t43 73l43 106l-293 750q-26 66 -48.5 86.5t-72.5 25.5z" />
<glyph unicode="z" horiz-adv-x="956" d="M72 0v37l473 784h-228q-75 0 -103 -32t-34 -127h-65l12 268h733v-39l-475 -789h209q81 0 115.5 10t56.5 38q17 22 24 56t9 99h67v-305h-794z" />
<glyph unicode="{" d="M264 410v186q60 12 87.5 52t27.5 114v332q0 157 70.5 223.5t236.5 66.5q30 0 57 -2q33 0 58 -2v-192h-29q-83 0 -123 -19q-29 -12 -39 -40.5t-10 -96.5v-287q0 -81 -22 -145q-12 -31 -33 -52.5t-68 -51.5q41 -27 60 -46.5t34 -50.5q29 -60 29 -157v-281v-31 q2 -51 12.5 -75.5t36.5 -34.5q43 -17 121 -17h31v-194q-46 0 -58 -2h-59q-164 0 -234.5 68.5t-70.5 228.5v325q0 85 -26 126.5t-89 54.5z" />
<glyph unicode="|" d="M401 -512v2048h222v-2048h-222z" />
<glyph unicode="}" d="M260 -197h29q103 0 136.5 25t35.5 102l2 27v287q0 89 20 145q12 32 34 55t69 52q-41 24 -60 43.5t-34 50.5q-29 57 -29 158v282l-2 31q-2 50 -12.5 75t-36.5 35q-43 17 -121 17h-31v192q27 2 57 2q18 0 38.5 1t21.5 1q164 0 235.5 -68.5t71.5 -228.5v-325 q0 -86 25.5 -127t87.5 -55v-185q-60 -13 -86.5 -52.5t-26.5 -113.5v-333q0 -155 -71.5 -222t-235.5 -67h-60q-12 2 -57 2v194z" />
<glyph unicode="~" horiz-adv-x="1366" d="M186 1245l15 33q32 65 46 89t40 54q75 90 198 90q75 0 220 -59q54 -20 92 -37q53 -16 92 -16q54 0 88 24.5t74 92.5l129 -74q-45 -95 -88 -148q-42 -52 -104 -81t-128 -29q-63 0 -190 53l-103 39q-55 20 -98 20q-65 0 -109 -51q-21 -26 -49 -82z" />
<glyph unicode="&#xa0;" horiz-adv-x="681" d="M0 0z" />
<glyph unicode="&#xa1;" horiz-adv-x="583" d="M102 811q0 60 45 101.5t107 41.5q63 0 108 -42t46 -103q0 -66 -45.5 -112t-108.5 -46t-107.5 47t-44.5 113zM104 -295q0 33 9 82l94 729h98l96 -727q7 -47 7 -74q0 -83 -41 -128.5t-115 -45.5q-67 0 -107.5 45t-40.5 119z" />
<glyph unicode="&#xa2;" horiz-adv-x="1034" d="M141 700q0 193 95 327t258 171v172h110v-162q130 -9 212.5 -68t82.5 -143q0 -47 -32 -78.5t-81 -31.5q-86 0 -116 92l-13 35q-12 37 -21.5 52t-31.5 28v-660h23q141 0 233 135l70 -34q-57 -112 -111 -179q-83 -102 -215 -131v-229h-110v225q-160 25 -256.5 156t-96.5 323 zM348 801q0 -102 40 -191.5t106 -136.5v625q-66 -25 -106 -106t-40 -191z" />
<glyph unicode="&#xa3;" horiz-adv-x="1034" d="M0 137q0 69 57 112.5t146 43.5q71 0 184 -39q12 52 12 90q0 71 -47 205l-28 84h-201v110h164l-21 60q-4 12 -8 23.5t-5.5 16.5t-2.5 7q-31 102 -31 180q0 155 118 255.5t300 100.5q136 0 220.5 -63t84.5 -164q0 -63 -31 -96t-88 -33q-46 0 -77 27t-31 65q0 19 8 43l8 29 q6 21 6 37q0 35 -26.5 54.5t-75.5 19.5q-75 0 -122.5 -50.5t-47.5 -128.5q0 -82 43 -219l20 -61l31 -103h260v-110h-233q22 -86 22 -150q0 -78 -17.5 -136.5t-64.5 -137.5q84 -28 119.5 -36.5t77.5 -8.5q56 0 108 22q38 17 60 48t41 94h88q-10 -85 -24.5 -129.5t-47.5 -94.5 q-83 -127 -233 -127q-52 0 -127 21q-56 18 -158 78q-64 -55 -112 -75.5t-111 -20.5q-90 0 -148.5 44t-58.5 113zM102 139q0 -32 24.5 -54t61.5 -22q77 0 136 74q-100 66 -154 66q-29 0 -48.5 -18.5t-19.5 -45.5z" />
<glyph unicode="&#xa4;" horiz-adv-x="1366" d="M66 1249l122 123l205 -207q74 52 142.5 74.5t148.5 22.5q151 0 285 -95l205 203l120 -121l-202 -202q53 -80 75.5 -145.5t22.5 -141.5t-22.5 -143t-73.5 -142l206 -205l-120 -120l-205 204q-135 -98 -291 -98q-77 0 -145 22.5t-146 73.5l-205 -202l-118 120l202 205 q-96 134 -96 285q0 78 22.5 145t73.5 139zM379 760q0 -126 89 -215.5t214 -89.5q126 0 215.5 89.5t89.5 215.5t-89 214.5t-214 88.5q-126 0 -215.5 -88.5t-89.5 -214.5z" />
<glyph unicode="&#xa5;" horiz-adv-x="1034" d="M-12 1294v72h487v-72h-10q-74 0 -74 -57q0 -23 10 -43l27 -68l162 -405l135 358q45 118 45 154q0 32 -20 46.5t-64 14.5h-22v72h383v-72q-46 -6 -69.5 -19t-51.5 -48q-49 -68 -92 -176l-29 -72h186v-111h-231l-111 -276h228v-111h-228v-231q0 -103 39 -139t156 -39v-72 h-637v72h14q104 0 140 37.5t36 146.5v225h-239v111h229l-125 276h-219v111h168l-33 74l-33 71q-41 101 -77 142q-23 23 -80 28z" />
<glyph unicode="&#xa7;" horiz-adv-x="917" d="M96 518q0 46 17 105q21 64 53 109.5t108 115.5q-56 59 -80 113.5t-24 123.5q0 132 90 214.5t236 82.5q118 0 192 -56.5t74 -147.5q0 -57 -33 -92t-88 -35q-46 0 -77.5 27.5t-31.5 68.5q0 13 7 31l8 30q8 25 8 33q0 28 -21 43.5t-59 15.5q-54 0 -88.5 -39t-34.5 -100 q0 -59 34 -110t112 -109l141 -104q180 -135 180 -310q0 -60 -18 -116q-22 -61 -55 -106t-107 -111q61 -68 82.5 -117t21.5 -117q0 -132 -88.5 -215.5t-228.5 -83.5q-123 0 -198.5 56t-75.5 145q0 57 34 94t88 37q46 0 77.5 -28.5t31.5 -71.5q0 -11 -4 -27l-10 -27 q-7 -25 -7 -37q0 -28 20 -44.5t54 -16.5q53 0 90 40.5t37 98.5t-35 111t-112 112l-33 25l-90 68l-53 39q-66 47 -105 123t-39 159zM256 612q0 -117 145 -221l88 -63q36 -26 93 -74q43 51 60 89t17 83q0 113 -108 199l-133 102l-41 31l-39 33q-46 -53 -64 -91.5t-18 -87.5z " />
<glyph unicode="&#xa8;" d="M166 1241q0 57 41.5 98t99.5 41q59 0 100.5 -41.5t41.5 -99.5t-43.5 -98.5t-104.5 -40.5q-56 0 -95.5 41.5t-39.5 99.5zM575 1239q0 58 42 98.5t102 40.5q57 0 98 -40.5t41 -98.5q0 -59 -41.5 -100t-101.5 -41q-57 0 -98.5 41.5t-41.5 99.5z" />
<glyph unicode="&#xa9;" horiz-adv-x="1513" d="M55 682q0 190 94 352t255.5 256t351.5 94q143 0 273 -55.5t224 -149.5t149.5 -224t55.5 -273t-55.5 -272.5t-149.5 -223t-224 -149t-273 -55.5q-190 0 -351.5 93.5t-255.5 255t-94 351.5zM152 682q0 -167 80.5 -309.5t220 -226t303.5 -83.5q165 0 304.5 83t220.5 225.5 t81 310.5t-81 311t-220.5 226.5t-304.5 83.5q-164 0 -303.5 -83.5t-220 -226.5t-80.5 -311zM328 682q0 180 135 303t332 123q90 0 194 -35l15 -4q12 -4 22 -4q15 0 21.5 6.5t9.5 26.5q0 4 2 6h47l22 -283h-51q-28 103 -103.5 164.5t-176.5 61.5q-121 0 -191.5 -94 t-70.5 -255q0 -164 73 -264t193 -100q51 0 107.5 20.5t95.5 53.5q26 22 43 43t47 67l51 -24q-128 -238 -385 -238q-185 0 -308.5 121.5t-123.5 304.5z" />
<glyph unicode="&#xaa;" horiz-adv-x="690" d="M72 944q0 41 22.5 79.5t59.5 63.5q72 45 249 97v76q0 51 -15 68.5t-56 17.5q-76 0 -76 -54v-10v-16v-6q0 -31 -19 -49.5t-51 -18.5t-51.5 19t-19.5 49q0 60 62 96.5t163 36.5q109 0 162 -33q29 -17 41 -47.5t12 -87.5v-275q0 -36 4.5 -46.5t18.5 -10.5q26 0 51 49l39 -18 q-67 -119 -166 -119q-49 0 -71.5 23.5t-24.5 74.5q-99 -96 -185 -96q-65 0 -107 38.5t-42 98.5zM86 608v68h559v-68h-559zM225 987q0 -34 22.5 -58t53.5 -24q48 0 102 60v168q-101 -37 -139.5 -68.5t-38.5 -77.5z" />
<glyph unicode="&#xab;" horiz-adv-x="983" d="M68 494l340 444h100l-193 -444l189 -447h-98zM453 494l333 444h103l-189 -442l189 -449h-98z" />
<glyph unicode="&#xac;" d="M68 346v201h888v-547h-223v346h-665z" />
<glyph unicode="&#xad;" horiz-adv-x="454" d="M0 403v183h455v-183h-455z" />
<glyph unicode="&#xae;" d="M102 1153q0 170 120 290t290 120t290 -120t120 -290q0 -169 -120.5 -289.5t-289.5 -120.5t-289.5 120.5t-120.5 289.5zM156 1153q0 -148 104 -252t252 -104t252 104t104 252q0 149 -104 252.5t-252 103.5t-252 -104t-104 -252zM305 942v23q41 2 52.5 14.5t11.5 58.5v232 q0 45 -12 58t-52 15v23h205q156 0 156 -113q0 -41 -23 -67t-76 -45l90 -115q26 -34 45 -46t48 -15v-23h-127l-148 191h-20v-95q0 -46 11.5 -59.5t51.5 -13.5v-23h-213zM455 1163q66 0 92 19.5t26 66.5q0 40 -23.5 62t-64.5 22q-16 0 -30 -2v-168z" />
<glyph unicode="&#xaf;" d="M213 1165v144h598v-144h-598z" />
<glyph unicode="&#xb0;" d="M205 1059q0 125 90 213t217 88t216 -88t89 -213q0 -124 -89.5 -212.5t-215.5 -88.5q-127 0 -217 88t-90 213zM340 1059q0 -69 50.5 -118.5t121.5 -49.5q70 0 120 49.5t50 118.5t-50 118.5t-120 49.5q-71 0 -121 -49.5t-49 -118.5h-2z" />
<glyph unicode="&#xb1;" d="M68 115v204h888v-204h-888zM68 721v207h333v327h222v-327h333v-207h-333v-328h-222v328h-333z" />
<glyph unicode="&#xb4;" d="M449 1073l120 332h281l-305 -332h-96z" />
<glyph unicode="&#xb5;" d="M70 -350v1333h221v-534q0 -79 7.5 -120.5t29.5 -74.5q28 -47 77.5 -73.5t108.5 -26.5q74 0 129 43q36 32 51 59q23 40 32 83.5t9 121.5v522h219v-983h-219v137q-36 -74 -69 -102q-67 -58 -158 -58q-89 0 -152 54q-30 24 -65 82v-463h-221z" />
<glyph unicode="&#xb6;" horiz-adv-x="1298" d="M51 1004q0 155 96 251q114 111 369 111h635v-172h-139v-1387h-189v1387h-188v-1387h-189v846q-12 -2 -26 -2q-164 0 -266.5 98t-102.5 255z" />
<glyph unicode="&#xb7;" horiz-adv-x="372" d="M0 723q0 77 54 131.5t130 54.5q78 0 133.5 -57t55.5 -139q0 -72 -55 -123t-132 -51t-131.5 54t-54.5 130z" />
<glyph unicode="&#xb8;" d="M256 -381l20 68q45 -11 78 -11q55 0 87 21t32 57q0 29 -20.5 45.5t-57.5 16.5q-1 0 -41 -4l152 188h102l-76 -94q154 -9 154 -113q0 -83 -83.5 -135.5t-215.5 -52.5q-48 0 -131 14z" />
<glyph unicode="&#xba;" horiz-adv-x="688" d="M43 1098q0 130 87 213.5t222 83.5q132 0 212.5 -80t80.5 -211q0 -135 -84 -220t-219 -85q-134 0 -216.5 82.5t-82.5 216.5zM55 606v72h578v-72h-578zM207 1096q0 -242 139 -242q67 0 99 61t32 189q0 123 -30 177t-99 54q-72 0 -105.5 -55t-33.5 -176z" />
<glyph unicode="&#xbb;" horiz-adv-x="983" d="M96 47l187 449l-187 442h103l331 -444l-335 -447h-99zM475 938h103l340 -444l-340 -447h-97l187 447z" />
<glyph unicode="&#xbf;" horiz-adv-x="880" d="M68 -137q0 78 35 152.5t96 125.5l39 33q20 16 59 55q26 26 61 66q33 40 47 88t15 129h106q-5 -121 -22 -190t-68 -160l-33 -60q-75 -136 -75 -260q0 -101 36 -158t101 -57q32 0 63 17q18 10 30.5 26.5t12.5 30.5v4l-8 39l-4 16l-16 33q-13 26 -13 51q0 49 35 82t86 33 q60 0 96.5 -41t36.5 -108q0 -117 -102.5 -191t-263.5 -74q-163 0 -256.5 85t-93.5 233zM326 811q0 60 43.5 101.5t105.5 41.5q65 0 110.5 -47t45.5 -114q0 -60 -45.5 -102t-108.5 -42t-107 47t-44 115z" />
<glyph unicode="&#xc0;" horiz-adv-x="1480" d="M10 0v72q58 3 89.5 16.5t60.5 48.5q28 32 48 71t52 124l418 1054h121l448 -1093q47 -114 82 -158q25 -34 55.5 -48t85.5 -15v-72h-606v72h29q62 0 90.5 18t28.5 57q0 21 -23 80l-55 142h-531l-51 -133q-18 -52 -18 -74q0 -52 33.5 -70t130.5 -20v-72h-488zM342 1733h332 l108 -279h-116zM444 475h445l-223 555z" />
<glyph unicode="&#xc1;" horiz-adv-x="1480" d="M10 0v72q58 3 89.5 16.5t60.5 48.5q28 32 48 71t52 124l418 1054h121l448 -1093q47 -114 82 -158q25 -34 55.5 -48t85.5 -15v-72h-606v72h29q62 0 90.5 18t28.5 57q0 21 -23 80l-55 142h-531l-51 -133q-18 -52 -18 -74q0 -52 33.5 -70t130.5 -20v-72h-488zM444 475h445 l-223 555zM680 1454l108 279h332l-323 -279h-117z" />
<glyph unicode="&#xc2;" horiz-adv-x="1480" d="M10 0v72q58 3 89.5 16.5t60.5 48.5q28 32 48 71t52 124l418 1054h121l448 -1093q47 -114 82 -158q25 -34 55.5 -48t85.5 -15v-72h-606v72h29q62 0 90.5 18t28.5 57q0 21 -23 80l-55 142h-531l-51 -133q-18 -52 -18 -74q0 -52 33.5 -70t130.5 -20v-72h-488zM430 1452 l168 281h276l166 -281h-133l-176 164l-176 -164h-125zM444 475h445l-223 555z" />
<glyph unicode="&#xc3;" horiz-adv-x="1480" d="M10 0v72q58 3 89.5 16.5t60.5 48.5q28 32 48 71t52 124l418 1054h121l448 -1093q47 -114 82 -158q25 -34 55.5 -48t85.5 -15v-72h-606v72h29q62 0 90.5 18t28.5 57q0 21 -23 80l-55 142h-531l-51 -133q-18 -52 -18 -74q0 -52 33.5 -70t130.5 -20v-72h-488zM385 1499 q67 118 120.5 165.5t119.5 47.5q38 0 94 -18l80 -25q94 -31 123 -31q34 0 56 17t48 63l70 -26q-53 -101 -112 -156t-116 -55q-26 0 -80 16l-81 23l-70 22q-46 14 -74 14q-33 0 -57.5 -19t-50.5 -64zM444 475h445l-223 555z" />
<glyph unicode="&#xc4;" horiz-adv-x="1480" d="M10 0v72q58 3 89.5 16.5t60.5 48.5q28 32 48 71t52 124l418 1054h121l448 -1093q47 -114 82 -158q25 -34 55.5 -48t85.5 -15v-72h-606v72h29q62 0 90.5 18t28.5 57q0 21 -23 80l-55 142h-531l-51 -133q-18 -52 -18 -74q0 -52 33.5 -70t130.5 -20v-72h-488zM350 1599 q0 59 42 101.5t102 42.5t102.5 -43t42.5 -103q0 -59 -43 -100t-104 -41q-59 0 -100.5 41.5t-41.5 101.5zM444 475h445l-223 555zM840 1595q0 60 43 103t104 43q60 0 101.5 -43t41.5 -103t-42.5 -102.5t-102.5 -42.5t-102.5 42.5t-42.5 102.5z" />
<glyph unicode="&#xc5;" horiz-adv-x="1480" d="M10 0v72q58 3 89.5 16.5t60.5 48.5q28 32 48 71t52 124l418 1054h121l448 -1093q47 -114 82 -158q25 -34 55.5 -48t85.5 -15v-72h-606v72h29q62 0 90.5 18t28.5 57q0 21 -23 80l-55 142h-531l-51 -133q-18 -52 -18 -74q0 -52 33.5 -70t130.5 -20v-72h-488zM444 475h445 l-223 555zM545 1620q0 73 56 125.5t134 52.5q83 0 142 -53.5t59 -128.5q0 -76 -57.5 -130t-139.5 -54q-80 0 -137 55t-57 133zM653 1618q0 -41 25.5 -70.5t60.5 -29.5t60.5 28t25.5 68q0 41 -25.5 70.5t-60.5 29.5t-60.5 -28t-25.5 -68z" />
<glyph unicode="&#xc6;" horiz-adv-x="2142" d="M10 0v72q71 0 99 12q42 17 94 102l26 45l559 893q54 84 54 121q0 28 -21 38.5t-76 10.5h-77v72h1271l19 -330h-74q-26 130 -83 173.5t-202 43.5h-292v-483h252q109 0 148.5 32t45.5 124l2 30h74v-489h-78q-5 82 -18 121q-17 41 -52.5 55t-124.5 14h-249v-460 q0 -53 20 -70.5t80 -17.5h188q144 0 228 34q59 21 102 80q25 34 40 64t42 104h78l-113 -391h-1153v72q63 2 91 6.5t55 19.5q40 22 52.5 63.5t12.5 149.5v226h-467l-182 -293q-32 -50 -41.5 -72t-9.5 -41q0 -29 26 -42t86 -15l60 -2v-72h-492zM629 643h401v645z" />
<glyph unicode="&#xc7;" horiz-adv-x="1429" d="M96 684q0 331 258 543q104 87 213 126.5t246 39.5q97 0 205 -27q68 -21 94 -31l23 -6q15 -6 36 -6q23 0 32 10t14 41q0 2 1 6t1 6h73l35 -471h-80q-16 64 -27.5 95.5t-33.5 66.5q-60 95 -161.5 154t-207.5 59q-187 0 -295 -155.5t-108 -425.5q0 -274 111.5 -440.5 t297.5 -166.5q78 0 164.5 34t147.5 89q40 35 67 72t70 113l82 -41q-47 -91 -99 -156q-63 -79 -141 -133q-59 -40 -103.5 -58t-125.5 -36l-90 -105q72 -7 105.5 -35.5t33.5 -81.5q0 -83 -83.5 -132.5t-223.5 -49.5q-72 0 -168 17l18 67q56 -10 92 -10q61 0 98.5 24t37.5 64 q0 67 -97 70h-28l157 159h-12q-99 0 -205.5 44.5t-195.5 123.5q-110 97 -169 237t-59 306z" />
<glyph unicode="&#xc8;" horiz-adv-x="1384" d="M61 0v72q63 2 91 6.5t55 19.5q40 22 52.5 63.5t12.5 149.5v748q0 112 -22 164q-17 40 -57 54.5t-132 16.5v72h1121l20 -332h-76q-25 123 -84.5 169t-197.5 46h-299v-477h239q72 0 97 3.5t53 17.5q61 35 61 151v17h74v-492h-74q-5 64 -7.5 80.5t-12.5 40.5 q-15 43 -54 57.5t-135 14.5h-241v-439q0 -76 15.5 -95t78.5 -19h6l193 2q129 1 204 26t122.5 84.5t84.5 173.5h78l-110 -395h-1156zM301 1733h332l108 -279h-116z" />
<glyph unicode="&#xc9;" horiz-adv-x="1384" d="M61 0v72q63 2 91 6.5t55 19.5q40 22 52.5 63.5t12.5 149.5v748q0 112 -22 164q-17 40 -57 54.5t-132 16.5v72h1121l20 -332h-76q-25 123 -84.5 169t-197.5 46h-299v-477h239q72 0 97 3.5t53 17.5q61 35 61 151v17h74v-492h-74q-5 64 -7.5 80.5t-12.5 40.5 q-15 43 -54 57.5t-135 14.5h-241v-439q0 -76 15.5 -95t78.5 -19h6l193 2q129 1 204 26t122.5 84.5t84.5 173.5h78l-110 -395h-1156zM592 1454l106 279h332l-323 -279h-115z" />
<glyph unicode="&#xca;" horiz-adv-x="1384" d="M61 0v72q63 2 91 6.5t55 19.5q40 22 52.5 63.5t12.5 149.5v748q0 112 -22 164q-17 40 -57 54.5t-132 16.5v72h1121l20 -332h-76q-25 123 -84.5 169t-197.5 46h-299v-477h239q72 0 97 3.5t53 17.5q61 35 61 151v17h74v-492h-74q-5 64 -7.5 80.5t-12.5 40.5 q-15 43 -54 57.5t-135 14.5h-241v-439q0 -76 15.5 -95t78.5 -19h6l193 2q129 1 204 26t122.5 84.5t84.5 173.5h78l-110 -395h-1156zM365 1452l170 281h276l166 -281h-133l-178 164l-174 -164h-127z" />
<glyph unicode="&#xcb;" horiz-adv-x="1384" d="M61 0v72q63 2 91 6.5t55 19.5q40 22 52.5 63.5t12.5 149.5v748q0 112 -22 164q-17 40 -57 54.5t-132 16.5v72h1121l20 -332h-76q-25 123 -84.5 169t-197.5 46h-299v-477h239q72 0 97 3.5t53 17.5q61 35 61 151v17h74v-492h-74q-5 64 -7.5 80.5t-12.5 40.5 q-15 43 -54 57.5t-135 14.5h-241v-439q0 -76 15.5 -95t78.5 -19h6l193 2q129 1 204 26t122.5 84.5t84.5 173.5h78l-110 -395h-1156zM281 1599q0 59 41.5 101.5t101.5 42.5t102.5 -43t42.5 -103q0 -59 -43 -100t-104 -41q-59 0 -100 41.5t-41 101.5zM770 1595q0 60 44 103 t106 43q59 0 100 -43.5t41 -104.5q0 -60 -38 -101.5t-93 -41.5q-66 0 -113 42t-47 103z" />
<glyph unicode="&#xcc;" horiz-adv-x="819" d="M45 1733h332l106 -279h-114zM61 0v72q95 2 144 26q40 22 52.5 63.5t12.5 149.5v748q0 77 -7.5 120t-31.5 70t-62.5 35.5t-107.5 9.5v72h695v-72q-56 -1 -90 -7.5t-59.5 -20t-37 -41.5t-17 -66t-5.5 -100v-748q0 -116 16 -157q15 -43 60 -61.5t133 -20.5v-72h-695z" />
<glyph unicode="&#xcd;" horiz-adv-x="819" d="M61 0v72q95 2 144 26q40 22 52.5 63.5t12.5 149.5v748q0 77 -7.5 120t-31.5 70t-62.5 35.5t-107.5 9.5v72h695v-72q-56 -1 -90 -7.5t-59.5 -20t-37 -41.5t-17 -66t-5.5 -100v-748q0 -116 16 -157q15 -43 60 -61.5t133 -20.5v-72h-695zM330 1454l106 279h332l-324 -279 h-114z" />
<glyph unicode="&#xce;" horiz-adv-x="819" d="M61 0v72q95 2 144 26q40 22 52.5 63.5t12.5 149.5v748q0 77 -7.5 120t-31.5 70t-62.5 35.5t-107.5 9.5v72h695v-72q-56 -1 -90 -7.5t-59.5 -20t-37 -41.5t-17 -66t-5.5 -100v-748q0 -116 16 -157q15 -43 60 -61.5t133 -20.5v-72h-695zM104 1452l168 281h277l166 -281 h-133l-176 164l-177 -164h-125z" />
<glyph unicode="&#xcf;" horiz-adv-x="819" d="M61 0v72q95 2 144 26q40 22 52.5 63.5t12.5 149.5v748q0 77 -7.5 120t-31.5 70t-62.5 35.5t-107.5 9.5v72h695v-72q-56 -1 -90 -7.5t-59.5 -20t-37 -41.5t-17 -66t-5.5 -100v-748q0 -116 16 -157q15 -43 60 -61.5t133 -20.5v-72h-695zM80 1599q0 59 42.5 101.5 t102.5 42.5t102 -43t42 -103q0 -59 -43.5 -100t-104.5 -41q-59 0 -100 41.5t-41 101.5zM446 1595q0 60 44 103t104 43t101.5 -43t41.5 -103t-42.5 -102.5t-102.5 -42.5t-103 42.5t-43 102.5z" />
<glyph unicode="&#xd1;" horiz-adv-x="1617" d="M33 0v72h41q57 4 84 8q50 12 75 43q20 25 26.5 61t6.5 127v863q-33 39 -52.5 56.5t-47.5 35.5q-44 25 -127 28v72h403l799 -946v641q0 75 -5 107.5t-22 62.5q-19 31 -54 45.5t-97 15.5l-55 2v72h581v-72q-66 -2 -90 -5t-53 -15q-43 -17 -59.5 -64.5t-16.5 -150.5v-1075 h-88l-889 1060v-731q0 -87 7.5 -124.5t29.5 -65.5q23 -28 61.5 -38t135.5 -13v-72h-594zM465 1499q66 118 120 165.5t120 47.5q38 0 94 -18l80 -25q97 -31 125 -31q33 0 54.5 16.5t49.5 63.5l70 -26q-54 -102 -113.5 -156.5t-116.5 -54.5q-27 0 -78 16l-84 23l-69 22 q-46 14 -74 14q-33 0 -57.5 -19t-50.5 -64z" />
<glyph unicode="&#xd2;" horiz-adv-x="1583" d="M96 676q0 315 190.5 509.5t499.5 194.5q310 0 505.5 -197t195.5 -509q0 -310 -193.5 -504.5t-502.5 -194.5q-314 0 -504.5 192.5t-190.5 508.5zM412 676q0 -290 98.5 -448t280.5 -158q178 0 278 160.5t100 443.5q0 289 -99 448.5t-279 159.5t-279 -159t-98 -447h-2z M424 1733h332l108 -279h-116z" />
<glyph unicode="&#xd3;" horiz-adv-x="1583" d="M96 676q0 315 190.5 509.5t499.5 194.5q310 0 505.5 -197t195.5 -509q0 -310 -193.5 -504.5t-502.5 -194.5q-314 0 -504.5 192.5t-190.5 508.5zM412 676q0 -290 98.5 -448t280.5 -158q178 0 278 160.5t100 443.5q0 289 -99 448.5t-279 159.5t-279 -159t-98 -447h-2z M717 1454l106 279h332l-321 -279h-117z" />
<glyph unicode="&#xd4;" horiz-adv-x="1583" d="M96 676q0 315 190.5 509.5t499.5 194.5q310 0 505.5 -197t195.5 -509q0 -310 -193.5 -504.5t-502.5 -194.5q-314 0 -504.5 192.5t-190.5 508.5zM412 676q0 -290 98.5 -448t280.5 -158q178 0 278 160.5t100 443.5q0 289 -99 448.5t-279 159.5t-279 -159t-98 -447h-2z M485 1452l170 281h277l166 -281h-133l-179 164l-174 -164h-127z" />
<glyph unicode="&#xd5;" horiz-adv-x="1583" d="M96 676q0 315 190.5 509.5t499.5 194.5q310 0 505.5 -197t195.5 -509q0 -310 -193.5 -504.5t-502.5 -194.5q-314 0 -504.5 192.5t-190.5 508.5zM412 676q0 -290 98.5 -448t280.5 -158q178 0 278 160.5t100 443.5q0 289 -99 448.5t-279 159.5t-279 -159t-98 -447h-2z M444 1499q67 118 121.5 165.5t120.5 47.5q35 0 94 -18l78 -25q97 -31 125 -31q33 0 55 17.5t49 62.5l70 -26q-51 -99 -111 -155t-116 -56q-26 0 -80 16l-82 23l-70 22q-46 14 -73 14q-34 0 -58.5 -18.5t-52.5 -64.5z" />
<glyph unicode="&#xd6;" horiz-adv-x="1583" d="M96 676q0 315 190.5 509.5t499.5 194.5q310 0 505.5 -197t195.5 -509q0 -310 -193.5 -504.5t-502.5 -194.5q-314 0 -504.5 192.5t-190.5 508.5zM401 1599q0 59 42 101.5t102 42.5t102.5 -43t42.5 -103q0 -59 -43 -100t-104 -41q-59 0 -100.5 41.5t-41.5 101.5zM412 676 q0 -290 98.5 -448t280.5 -158q178 0 278 160.5t100 443.5q0 289 -99 448.5t-279 159.5t-279 -159t-98 -447h-2zM891 1595q0 60 43 103t104 43q60 0 102 -43t42 -103t-43 -102.5t-103 -42.5t-102.5 42.5t-42.5 102.5z" />
<glyph unicode="&#xd8;" horiz-adv-x="1583" d="M70 37l176 176q-77 102 -112.5 213t-35.5 252q0 312 188 506t490 194q269 0 469 -164l185 185l83 -84l-176 -172q79 -111 115.5 -224t36.5 -247q0 -205 -86 -363.5t-241.5 -246t-356.5 -87.5q-146 0 -252.5 38.5t-216.5 131.5l-189 -190zM416 670q0 -93 4.5 -139.5 t21.5 -120.5l658 657q-47 103 -127.5 158t-181.5 55q-180 0 -277.5 -158.5t-97.5 -451.5zM483 291q96 -221 312 -221q180 0 277 160.5t97 455.5q0 86 -5 134.5t-23 127.5z" />
<glyph unicode="&#xd9;" horiz-adv-x="1636" d="M47 1294v72h692v-72q-70 -2 -107.5 -10.5t-61.5 -35.5t-31 -69t-7 -120v-510q0 -109 3.5 -150t17.5 -86q29 -97 118.5 -153t213.5 -56q165 0 270 97q57 52 79.5 127.5t22.5 210.5v522q0 103 -18 153q-12 39 -49 58q-24 12 -49 16.5t-86 5.5v72h532v-72q-54 -1 -86.5 -7.5 t-57 -20.5t-36 -42t-16.5 -65.5t-5 -99.5v-520q0 -166 -33.5 -260t-121.5 -170q-80 -71 -176 -103.5t-226 -32.5q-200 0 -350 78q-156 86 -200 223q-14 45 -18.5 100.5t-4.5 174.5v510q0 77 -7.5 120t-31.5 70t-62.5 35.5t-107.5 9.5zM524 1733h334l107 -279h-117z" />
<glyph unicode="&#xda;" horiz-adv-x="1636" d="M47 1294v72h692v-72q-70 -2 -107.5 -10.5t-61.5 -35.5t-31 -69t-7 -120v-510q0 -109 3.5 -150t17.5 -86q29 -97 118.5 -153t213.5 -56q165 0 270 97q57 52 79.5 127.5t22.5 210.5v522q0 103 -18 153q-12 39 -49 58q-24 12 -49 16.5t-86 5.5v72h532v-72q-54 -1 -86.5 -7.5 t-57 -20.5t-36 -42t-16.5 -65.5t-5 -99.5v-520q0 -166 -33.5 -260t-121.5 -170q-80 -71 -176 -103.5t-226 -32.5q-200 0 -350 78q-156 86 -200 223q-14 45 -18.5 100.5t-4.5 174.5v510q0 77 -7.5 120t-31.5 70t-62.5 35.5t-107.5 9.5zM815 1454l107 279h331l-323 -279h-115z " />
<glyph unicode="&#xdb;" horiz-adv-x="1636" d="M47 1294v72h692v-72q-70 -2 -107.5 -10.5t-61.5 -35.5t-31 -69t-7 -120v-510q0 -109 3.5 -150t17.5 -86q29 -97 118.5 -153t213.5 -56q165 0 270 97q57 52 79.5 127.5t22.5 210.5v522q0 103 -18 153q-12 39 -49 58q-24 12 -49 16.5t-86 5.5v72h532v-72q-54 -1 -86.5 -7.5 t-57 -20.5t-36 -42t-16.5 -65.5t-5 -99.5v-520q0 -166 -33.5 -260t-121.5 -170q-80 -71 -176 -103.5t-226 -32.5q-200 0 -350 78q-156 86 -200 223q-14 45 -18.5 100.5t-4.5 174.5v510q0 77 -7.5 120t-31.5 70t-62.5 35.5t-107.5 9.5zM584 1452l170 281h276l166 -281h-133 l-178 164l-174 -164h-127z" />
<glyph unicode="&#xdc;" horiz-adv-x="1636" d="M47 1294v72h692v-72q-70 -2 -107.5 -10.5t-61.5 -35.5t-31 -69t-7 -120v-510q0 -109 3.5 -150t17.5 -86q29 -97 118.5 -153t213.5 -56q165 0 270 97q57 52 79.5 127.5t22.5 210.5v522q0 103 -18 153q-12 39 -49 58q-24 12 -49 16.5t-86 5.5v72h532v-72q-54 -1 -86.5 -7.5 t-57 -20.5t-36 -42t-16.5 -65.5t-5 -99.5v-520q0 -166 -33.5 -260t-121.5 -170q-80 -71 -176 -103.5t-226 -32.5q-200 0 -350 78q-156 86 -200 223q-14 45 -18.5 100.5t-4.5 174.5v510q0 77 -7.5 120t-31.5 70t-62.5 35.5t-107.5 9.5zM504 1599q0 59 42.5 101.5t100.5 42.5 q60 0 103 -43t43 -103q0 -59 -43.5 -100t-104.5 -41q-59 0 -100 41.5t-41 101.5zM993 1595q0 60 44 103t106 43q58 0 99.5 -43t41.5 -103t-42 -102.5t-103 -42.5q-60 0 -103 42.5t-43 102.5z" />
<glyph unicode="&#xdf;" horiz-adv-x="1163" d="M43 0v63q91 14 114 38.5t23 107.5v792q0 191 107.5 290.5t314.5 99.5q172 0 282.5 -87.5t110.5 -222.5q0 -84 -49 -155t-129 -103l-33 -12q-18 -6 -18 -12q0 -4 22 -8l33 -5q127 -19 199 -124.5t72 -274.5q0 -186 -92 -298t-244 -112q-93 0 -154 52.5t-61 132.5 q0 43 26 71.5t66 28.5q34 0 55 -20t21 -54q0 -12 -7 -36l-4 -11q-6 -23 -6 -32q0 -35 45 -35q47 0 74 67.5t27 188.5q0 184 -78 305q-36 55 -81 78.5t-124 31.5v82q97 12 137.5 67.5t40.5 174.5q0 227 -164 227q-91 0 -127 -65q-20 -36 -20 -125v-846q0 -119 13.5 -153.5 t64.5 -43.5v-63h-457z" />
<glyph unicode="&#xe0;" horiz-adv-x="1054" d="M86 207q0 69 36 133.5t97 105.5q63 41 148 75t254 85v127q0 86 -23.5 116t-91.5 30q-60 0 -91.5 -24.5t-31.5 -70.5v-12v-27v-10q0 -52 -30 -83t-81 -31q-54 0 -85 30.5t-31 83.5q0 101 99.5 161t266.5 60q236 0 307 -100q37 -53 37 -180v-457q0 -37 2 -51q0 -43 35 -43 q23 0 40.5 17.5t41.5 62.5l64 -33q-111 -195 -269 -195q-49 0 -86.5 20.5t-54.5 55.5q-14 27 -16 88q-83 -86 -153.5 -125t-143.5 -39q-103 0 -171.5 66t-68.5 164zM184 1405h279l123 -332h-99zM336 283q0 -60 34.5 -100t86.5 -40q79 0 164 101v280q-161 -63 -223 -115.5 t-62 -125.5z" />
<glyph unicode="&#xe1;" horiz-adv-x="1054" d="M86 207q0 69 36 133.5t97 105.5q63 41 148 75t254 85v127q0 86 -23.5 116t-91.5 30q-60 0 -91.5 -24.5t-31.5 -70.5v-12v-27v-10q0 -52 -30 -83t-81 -31q-54 0 -85 30.5t-31 83.5q0 101 99.5 161t266.5 60q236 0 307 -100q37 -53 37 -180v-457q0 -37 2 -51q0 -43 35 -43 q23 0 40.5 17.5t41.5 62.5l64 -33q-111 -195 -269 -195q-49 0 -86.5 20.5t-54.5 55.5q-14 27 -16 88q-83 -86 -153.5 -125t-143.5 -39q-103 0 -171.5 66t-68.5 164zM336 283q0 -60 34.5 -100t86.5 -40q79 0 164 101v280q-161 -63 -223 -115.5t-62 -125.5zM449 1073l122 332 h281l-305 -332h-98z" />
<glyph unicode="&#xe2;" horiz-adv-x="1054" d="M86 207q0 69 36 133.5t97 105.5q63 41 148 75t254 85v127q0 86 -23.5 116t-91.5 30q-60 0 -91.5 -24.5t-31.5 -70.5v-12v-27v-10q0 -52 -30 -83t-81 -31q-54 0 -85 30.5t-31 83.5q0 101 99.5 161t266.5 60q236 0 307 -100q37 -53 37 -180v-457q0 -37 2 -51q0 -43 35 -43 q23 0 40.5 17.5t41.5 62.5l64 -33q-111 -195 -269 -195q-49 0 -86.5 20.5t-54.5 55.5q-14 27 -16 88q-83 -86 -153.5 -125t-143.5 -39q-103 0 -171.5 66t-68.5 164zM203 1071l194 332h230l200 -332h-114l-201 178l-197 -178h-112zM336 283q0 -60 34.5 -100t86.5 -40 q79 0 164 101v280q-161 -63 -223 -115.5t-62 -125.5z" />
<glyph unicode="&#xe3;" horiz-adv-x="1054" d="M86 207q0 69 36 133.5t97 105.5q63 41 148 75t254 85v127q0 86 -23.5 116t-91.5 30q-60 0 -91.5 -24.5t-31.5 -70.5v-12v-27v-10q0 -52 -30 -83t-81 -31q-54 0 -85 30.5t-31 83.5q0 101 99.5 161t266.5 60q236 0 307 -100q37 -53 37 -180v-457q0 -37 2 -51q0 -43 35 -43 q23 0 40.5 17.5t41.5 62.5l64 -33q-111 -195 -269 -195q-49 0 -86.5 20.5t-54.5 55.5q-14 27 -16 88q-83 -86 -153.5 -125t-143.5 -39q-103 0 -171.5 66t-68.5 164zM174 1159q38 59 74 103q33 36 72.5 57.5t74.5 21.5q20 0 62 -10l190 -47q41 -8 51 -8q26 0 47 15.5t52 58.5 l69 -29q-121 -191 -237 -191q-15 0 -72 11l-164 43q-46 10 -57 10q-27 0 -46 -13.5t-46 -50.5zM336 283q0 -60 34.5 -100t86.5 -40q79 0 164 101v280q-161 -63 -223 -115.5t-62 -125.5z" />
<glyph unicode="&#xe4;" horiz-adv-x="1054" d="M86 207q0 69 36 133.5t97 105.5q63 41 148 75t254 85v127q0 86 -23.5 116t-91.5 30q-60 0 -91.5 -24.5t-31.5 -70.5v-12v-27v-10q0 -52 -30 -83t-81 -31q-54 0 -85 30.5t-31 83.5q0 101 99.5 161t266.5 60q236 0 307 -100q37 -53 37 -180v-457q0 -37 2 -51q0 -43 35 -43 q23 0 40.5 17.5t41.5 62.5l64 -33q-111 -195 -269 -195q-49 0 -86.5 20.5t-54.5 55.5q-14 27 -16 88q-83 -86 -153.5 -125t-143.5 -39q-103 0 -171.5 66t-68.5 164zM178 1241q0 57 41.5 98t99.5 41q59 0 100.5 -41.5t41.5 -99.5t-43 -98.5t-105 -40.5q-56 0 -95.5 41.5 t-39.5 99.5zM336 283q0 -60 34.5 -100t86.5 -40q79 0 164 101v280q-161 -63 -223 -115.5t-62 -125.5zM588 1239q0 58 41.5 98.5t101.5 40.5q57 0 98 -40.5t41 -98.5q0 -59 -41.5 -100t-101.5 -41q-57 0 -98 41.5t-41 99.5z" />
<glyph unicode="&#xe5;" horiz-adv-x="1054" d="M86 207q0 69 36 133.5t97 105.5q63 41 148 75t254 85v127q0 86 -23.5 116t-91.5 30q-60 0 -91.5 -24.5t-31.5 -70.5v-12v-27v-10q0 -52 -30 -83t-81 -31q-54 0 -85 30.5t-31 83.5q0 101 99.5 161t266.5 60q236 0 307 -100q37 -53 37 -180v-457q0 -37 2 -51q0 -43 35 -43 q23 0 40.5 17.5t41.5 62.5l64 -33q-111 -195 -269 -195q-49 0 -86.5 20.5t-54.5 55.5q-14 27 -16 88q-83 -86 -153.5 -125t-143.5 -39q-103 0 -171.5 66t-68.5 164zM332 1225q0 72 55 123t133 51q82 0 139.5 -52t57.5 -126t-57 -126.5t-136 -52.5t-135.5 54t-56.5 129z M336 283q0 -60 34.5 -100t86.5 -40q79 0 164 101v280q-161 -63 -223 -115.5t-62 -125.5zM449 1223q0 -37 22 -62.5t53 -25.5t53.5 25t22.5 61q0 35 -22.5 61.5t-53.5 26.5q-30 0 -51.5 -25t-23.5 -61z" />
<glyph unicode="&#xe6;" horiz-adv-x="1519" d="M84 203q0 139 128.5 234.5t408.5 164.5v135q0 78 -26 109t-93 31q-63 0 -91 -24.5t-28 -80.5v-31q0 -59 -29.5 -91t-83.5 -32q-51 0 -83.5 32.5t-32.5 82.5q0 103 100.5 163t271.5 60q100 0 165.5 -19t117.5 -63q61 43 114.5 61.5t123.5 18.5q179 0 279.5 -112.5 t109.5 -321.5h-580q0 -95 6.5 -139t28.5 -88q29 -60 87.5 -94.5t131.5 -34.5q77 0 141 37q38 21 63 46t64 79l64 -31q-32 -76 -53.5 -114t-55.5 -75q-120 -135 -305 -135q-98 0 -172 35q-62 26 -99 60t-85 108q-64 -67 -125 -115q-63 -45 -111.5 -64.5t-103.5 -19.5 q-107 0 -177.5 65t-70.5 163zM334 279q0 -56 37.5 -96t89.5 -40q38 0 88 31.5t90 81.5q-18 90 -18 166v98q-96 -36 -132.5 -53.5t-74.5 -46.5q-37 -26 -58.5 -64t-21.5 -77zM856 621h303q-7 96 -15 124q-2 7 -5 17q-13 43 -45.5 67.5t-73.5 24.5q-42 0 -78.5 -24t-56.5 -66 q-22 -54 -29 -143z" />
<glyph unicode="&#xe7;" horiz-adv-x="913" d="M82 451q0 221 125.5 363t320.5 142q127 0 218.5 -61t91.5 -147q0 -49 -31.5 -80t-81.5 -31q-84 0 -115 90l-12 35q-19 54 -43 74t-70 20q-86 0 -142 -86.5t-56 -220.5q0 -156 80 -261.5t198 -105.5q140 0 236 137l69 -36q-60 -116 -112 -177q-44 -55 -85.5 -80.5 t-125.5 -50.5l-53 -69q153 -9 153 -113q0 -83 -83 -135.5t-214 -52.5q-48 0 -131 14l21 68q43 -11 75 -11q55 0 87 21t32 57q0 62 -78 62q-5 0 -10 -0.5t-13.5 -1.5t-17.5 -2l127 159q-169 25 -264.5 152.5t-95.5 327.5z" />
<glyph unicode="&#xe8;" horiz-adv-x="980" d="M80 451q0 218 122.5 360.5t309.5 142.5q103 0 187 -46t135 -132q33 -56 46 -107.5t19 -148.5h-584q9 -167 78.5 -259.5t186.5 -92.5q153 0 254 162l69 -35q-30 -73 -49.5 -108t-54.5 -76q-116 -140 -305 -140q-185 0 -299.5 132.5t-114.5 347.5zM176 1405h281l121 -332 h-99zM315 623h306q-5 89 -21 139q-14 44 -45.5 69t-75.5 25q-72 0 -111.5 -56t-52.5 -177z" />
<glyph unicode="&#xe9;" horiz-adv-x="980" d="M80 451q0 218 122.5 360.5t309.5 142.5q103 0 187 -46t135 -132q33 -56 46 -107.5t19 -148.5h-584q9 -167 78.5 -259.5t186.5 -92.5q153 0 254 162l69 -35q-30 -73 -49.5 -108t-54.5 -76q-116 -140 -305 -140q-185 0 -299.5 132.5t-114.5 347.5zM315 623h306 q-5 89 -21 139q-14 44 -45.5 69t-75.5 25q-72 0 -111.5 -56t-52.5 -177zM446 1073l121 332h281l-303 -332h-99z" />
<glyph unicode="&#xea;" horiz-adv-x="980" d="M80 451q0 218 122.5 360.5t309.5 142.5q103 0 187 -46t135 -132q33 -56 46 -107.5t19 -148.5h-584q9 -167 78.5 -259.5t186.5 -92.5q153 0 254 162l69 -35q-30 -73 -49.5 -108t-54.5 -76q-116 -140 -305 -140q-185 0 -299.5 132.5t-114.5 347.5zM199 1071l196 332h230 l200 -332h-116l-199 178l-199 -178h-112zM315 623h306q-5 89 -21 139q-14 44 -45.5 69t-75.5 25q-72 0 -111.5 -56t-52.5 -177z" />
<glyph unicode="&#xeb;" horiz-adv-x="980" d="M80 451q0 218 122.5 360.5t309.5 142.5q103 0 187 -46t135 -132q33 -56 46 -107.5t19 -148.5h-584q9 -167 78.5 -259.5t186.5 -92.5q153 0 254 162l69 -35q-30 -73 -49.5 -108t-54.5 -76q-116 -140 -305 -140q-185 0 -299.5 132.5t-114.5 347.5zM166 1241q0 57 41.5 98 t99.5 41q59 0 100.5 -41.5t41.5 -99.5t-43.5 -98.5t-104.5 -40.5q-56 0 -95.5 41.5t-39.5 99.5zM315 623h306q-5 89 -21 139q-14 44 -45.5 69t-75.5 25q-72 0 -111.5 -56t-52.5 -177zM575 1239q0 58 42 98.5t102 40.5q57 0 98 -40.5t41 -98.5q0 -59 -41.5 -100t-101.5 -41 q-57 0 -98.5 41.5t-41.5 99.5z" />
<glyph unicode="&#xec;" horiz-adv-x="604" d="M4 1405h281l98 -332h-102zM43 821v70l381 86v-768q0 -87 27 -116t110 -30v-63h-516v63q54 9 71.5 14.5t33.5 18.5q28 28 28 113v422q0 117 -17.5 157.5t-68.5 40.5q-9 0 -49 -8z" />
<glyph unicode="&#xed;" horiz-adv-x="604" d="M43 821v70l381 86v-768q0 -87 27 -116t110 -30v-63h-516v63q54 9 71.5 14.5t33.5 18.5q28 28 28 113v422q0 117 -17.5 157.5t-68.5 40.5q-9 0 -49 -8zM209 1073l98 332h281l-277 -332h-102z" />
<glyph unicode="&#xee;" horiz-adv-x="604" d="M8 1071l174 332h207l180 -332h-102l-180 178l-178 -178h-101zM43 821v70l381 86v-768q0 -87 27 -116t110 -30v-63h-516v63q54 9 71.5 14.5t33.5 18.5q28 28 28 113v422q0 117 -17.5 157.5t-68.5 40.5q-9 0 -49 -8z" />
<glyph unicode="&#xef;" horiz-adv-x="604" d="M4 1241q0 51 37.5 88t89.5 37q53 0 90 -37t37 -90q0 -52 -38.5 -88.5t-94.5 -36.5q-50 0 -85.5 37.5t-35.5 89.5zM66 821v70l378 86v-768q0 -86 27.5 -115.5t110.5 -30.5v-63h-514v63q53 9 70.5 14.5t33.5 18.5q29 29 29 113v422q0 117 -17.5 157.5t-68.5 40.5 q-13 0 -49 -8zM346 1239q0 53 37.5 90t91.5 37q51 0 88 -37.5t37 -89.5q0 -53 -37.5 -90t-91.5 -37q-52 0 -88.5 37t-36.5 90z" />
<glyph unicode="&#xf1;" horiz-adv-x="1155" d="M43 821v70l369 86v-150q55 46 100 78q86 60 197 60q271 0 274 -306l4 -450q2 -86 27.5 -114.5t107.5 -31.5v-63h-497v63q72 6 95 34.5t23 111.5v393q0 88 -10 127q-21 80 -121 80q-94 0 -194 -84v-516q0 -87 23 -114t98 -32v-63h-494v63q89 15 111 39.5t22 106.5v422 q0 117 -17.5 157.5t-68.5 40.5q-9 0 -49 -8zM207 1159q49 72 76 103q31 35 71.5 57t75.5 22q20 0 62 -10l190 -47q39 -8 49 -8q27 0 47 15t53 59l70 -29q-121 -191 -237 -191q-19 0 -72 11l-164 43q-46 10 -57 10q-28 0 -47.5 -13.5t-44.5 -50.5z" />
<glyph unicode="&#xf2;" horiz-adv-x="1114" d="M72 467q0 217 139.5 355.5t359.5 138.5q212 0 341.5 -134t129.5 -352q0 -224 -136 -366t-351 -142q-217 0 -350 138t-133 362zM225 1405h281l121 -332h-97zM334 463q0 -406 225 -406q110 0 163.5 102.5t53.5 317.5q0 205 -49.5 297t-159.5 92q-120 0 -174.5 -93 t-56.5 -296z" />
<glyph unicode="&#xf3;" horiz-adv-x="1114" d="M72 467q0 217 139.5 355.5t359.5 138.5q212 0 341.5 -134t129.5 -352q0 -224 -136 -366t-351 -142q-217 0 -350 138t-133 362zM334 463q0 -406 225 -406q110 0 163.5 102.5t53.5 317.5q0 205 -49.5 297t-159.5 92q-120 0 -174.5 -93t-56.5 -296zM492 1073l120 332h281 l-303 -332h-98z" />
<glyph unicode="&#xf4;" horiz-adv-x="1114" d="M72 467q0 217 139.5 355.5t359.5 138.5q212 0 341.5 -134t129.5 -352q0 -224 -136 -366t-351 -142q-217 0 -350 138t-133 362zM246 1071l194 332h230l200 -332h-114l-201 178l-199 -178h-110zM334 463q0 -406 225 -406q110 0 163.5 102.5t53.5 317.5q0 205 -49.5 297 t-159.5 92q-120 0 -174.5 -93t-56.5 -296z" />
<glyph unicode="&#xf5;" horiz-adv-x="1114" d="M72 467q0 217 139.5 355.5t359.5 138.5q212 0 341.5 -134t129.5 -352q0 -224 -136 -366t-351 -142q-217 0 -350 138t-133 362zM211 1159q41 62 76 103q31 36 71 57.5t76 21.5q18 0 60 -10l192 -47q39 -8 49 -8q26 0 47.5 15.5t53.5 58.5l67 -29q-118 -191 -237 -191 q-17 0 -70 11l-166 43q-46 10 -55 10q-28 0 -48 -13.5t-46 -50.5zM334 463q0 -406 225 -406q110 0 163.5 102.5t53.5 317.5q0 205 -49.5 297t-159.5 92q-120 0 -174.5 -93t-56.5 -296z" />
<glyph unicode="&#xf6;" horiz-adv-x="1114" d="M72 467q0 217 139.5 355.5t359.5 138.5q212 0 341.5 -134t129.5 -352q0 -224 -136 -366t-351 -142q-217 0 -350 138t-133 362zM211 1241q0 57 41.5 98t99.5 41q59 0 100.5 -41.5t41.5 -99.5t-43 -98.5t-105 -40.5q-56 0 -95.5 41.5t-39.5 99.5zM334 463q0 -406 225 -406 q110 0 163.5 102.5t53.5 317.5q0 205 -49.5 297t-159.5 92q-120 0 -174.5 -93t-56.5 -296zM621 1239q0 58 41.5 98.5t101.5 40.5q57 0 98 -40.5t41 -98.5q0 -59 -41.5 -100t-101.5 -41q-57 0 -98 41.5t-41 99.5z" />
<glyph unicode="&#xf7;" d="M68 588v205h888v-205h-888zM379 334q0 54 39 92.5t94 38.5q56 0 94.5 -38.5t38.5 -94.5q0 -54 -39.5 -92.5t-93.5 -38.5q-56 0 -94.5 38.5t-38.5 94.5zM379 1049q0 55 38.5 94t94.5 39t94.5 -39t38.5 -94t-39.5 -94.5t-93.5 -39.5q-55 0 -94 39t-39 95z" />
<glyph unicode="&#xf8;" horiz-adv-x="1114" d="M57 35l115 115q-96 130 -96 311q0 218 138.5 356.5t356.5 138.5q194 0 314 -102l100 100l72 -69l-105 -101q52 -73 73.5 -142t21.5 -163q0 -226 -137.5 -369t-352.5 -143q-92 0 -160.5 24t-156.5 87l-113 -115zM334 481q0 -76 8 -164l414 410q-22 66 -70 101.5t-117 35.5 q-121 0 -178 -93t-57 -290zM365 205q60 -148 196 -148q114 0 169.5 101.5t55.5 310.5q0 90 -6 143z" />
<glyph unicode="&#xf9;" horiz-adv-x="1161" d="M33 866v62h379l4 -555l2 -68q0 -55 6 -90q8 -43 42.5 -67.5t86.5 -24.5q41 0 79 14.5t105 57.5v491q0 60 -5 92.5t-22.5 53.5t-44.5 27t-77 7v62h391v-670q0 -62 2 -76q3 -28 22 -43.5t48 -15.5q24 0 67 14v-71l-375 -105v143q-43 -34 -63 -47q-63 -48 -115.5 -68 t-113.5 -20q-138 0 -208.5 82.5t-70.5 243.5v418q0 61 -3 80t-17 36q-15 20 -41 27.5t-78 9.5zM174 1405h281l120 -332h-96z" />
<glyph unicode="&#xfa;" horiz-adv-x="1161" d="M33 866v62h379l4 -555l2 -68q0 -55 6 -90q8 -43 42.5 -67.5t86.5 -24.5q41 0 79 14.5t105 57.5v491q0 60 -5 92.5t-22.5 53.5t-44.5 27t-77 7v62h391v-670q0 -62 2 -76q3 -28 22 -43.5t48 -15.5q24 0 67 14v-71l-375 -105v143q-43 -34 -63 -47q-63 -48 -115.5 -68 t-113.5 -20q-138 0 -208.5 82.5t-70.5 243.5v418q0 61 -3 80t-17 36q-15 20 -41 27.5t-78 9.5zM467 1073l121 332h280l-305 -332h-96z" />
<glyph unicode="&#xfb;" horiz-adv-x="1161" d="M33 866v62h379l4 -555l2 -68q0 -55 6 -90q8 -43 42.5 -67.5t86.5 -24.5q41 0 79 14.5t105 57.5v491q0 60 -5 92.5t-22.5 53.5t-44.5 27t-77 7v62h391v-670q0 -62 2 -76q3 -28 22 -43.5t48 -15.5q24 0 67 14v-71l-375 -105v143q-43 -34 -63 -47q-63 -48 -115.5 -68 t-113.5 -20q-138 0 -208.5 82.5t-70.5 243.5v418q0 61 -3 80t-17 36q-15 20 -41 27.5t-78 9.5zM242 1071l194 332h230l200 -332h-114l-201 178l-197 -178h-112z" />
<glyph unicode="&#xfc;" horiz-adv-x="1161" d="M33 866v62h379l4 -555l2 -68q0 -55 6 -90q8 -43 42.5 -67.5t86.5 -24.5q41 0 79 14.5t105 57.5v491q0 60 -5 92.5t-22.5 53.5t-44.5 27t-77 7v62h391v-670q0 -62 2 -76q3 -28 22 -43.5t48 -15.5q24 0 67 14v-71l-375 -105v143q-43 -34 -63 -47q-63 -48 -115.5 -68 t-113.5 -20q-138 0 -208.5 82.5t-70.5 243.5v418q0 61 -3 80t-17 36q-15 20 -41 27.5t-78 9.5zM211 1241q0 57 41.5 98t99.5 41t99 -41t41 -100q0 -58 -43 -98.5t-105 -40.5q-55 0 -94 41t-39 100zM621 1239q0 58 41.5 98.5t101.5 40.5q57 0 97 -40.5t40 -98.5 q0 -59 -41.5 -100t-99.5 -41t-98.5 41t-40.5 100z" />
<glyph unicode="&#xff;" horiz-adv-x="960" d="M10 866v64h457v-64q-53 -2 -73.5 -13t-20.5 -40q0 -26 20 -82l156 -397l153 407q21 49 21 82q0 43 -88 43h-12v64h333v-64q-44 -6 -64.5 -29t-49.5 -98l-15 -34l-286 -750q-72 -186 -151.5 -269t-186.5 -83q-66 0 -108 35t-42 90q0 44 32.5 75t78.5 31q22 0 49 -10 l39 -12q21 -7 35 -7q31 0 51 20t43 73l43 106l-293 750q-26 66 -48.5 86.5t-72.5 25.5zM162 1241q0 57 41.5 98t99.5 41q59 0 100 -41t41 -100q0 -58 -43.5 -98.5t-103.5 -40.5q-56 0 -95.5 41.5t-39.5 99.5zM571 1239q0 58 42 98.5t102 40.5q57 0 98 -40.5t41 -98.5 q0 -59 -41.5 -100t-101.5 -41q-57 0 -98.5 41.5t-41.5 99.5z" />
<glyph unicode="&#x152;" horiz-adv-x="2170" d="M96 678q0 324 192 512t523 188q75 0 164 -12h995l17 -332h-70q-15 70 -32 105t-50 63q-53 47 -176 47h-324v-479h281q97 0 131 38t37 148h76v-489h-76q-7 120 -41.5 156t-138.5 36h-269v-417q0 -15 1 -35.5t1 -24.5q0 -28 15 -51q19 -22 92 -22h172l78 4q91 6 135 19 t84 46q67 54 127 215h74l-113 -393h-977q-125 -25 -211 -25q-127 0 -222.5 23t-180.5 74q-151 91 -232.5 248t-81.5 358zM412 686q0 -228 63 -391q88 -223 356 -223q143 0 195 71q33 42 33 162v787q0 72 -25 112q-25 37 -80.5 58.5t-124.5 21.5q-203 0 -310 -153.5 t-107 -444.5z" />
<glyph unicode="&#x153;" horiz-adv-x="1695" d="M72 459q0 219 139 358t358 139q116 0 202.5 -36.5t164.5 -118.5q73 87 134.5 119t154.5 32q100 0 181 -40t130 -115q38 -55 53 -111.5t21 -167.5h-582v-14q0 -85 8 -127.5t31 -85.5q31 -59 90 -93t131 -34q80 0 140.5 37.5t123.5 126.5l68 -35q-79 -173 -176.5 -247.5 t-243.5 -74.5q-70 0 -135 21q-48 15 -83.5 37.5t-86.5 72.5q-59 -51 -66 -55q-111 -84 -276 -84q-215 0 -348 137.5t-133 358.5zM336 465q0 -211 53.5 -309.5t167.5 -98.5t167.5 99.5t53.5 312.5q0 207 -50.5 300t-162.5 93q-117 0 -173 -97t-56 -300zM1032 618h303l-2 31 q-12 205 -139 205q-41 0 -76 -24t-55 -66q-24 -55 -31 -146z" />
<glyph unicode="&#x178;" horiz-adv-x="1413" d="M4 1294v72h612v-72h-14q-58 0 -84 -13t-26 -42q0 -40 47 -115l249 -403l207 358l27 47q41 70 41 109q0 31 -30 45t-97 14h-33v72h504v-72q-61 -6 -93.5 -20t-64.5 -47q-63 -70 -125 -176l-272 -459v-342q0 -58 11.5 -91t39.5 -53q27 -19 57 -25t109 -9v-72h-707v72h13 q64 0 93.5 6t55.5 26q28 20 38.5 53t10.5 99v313l-299 484q-73 112 -104 153q-36 52 -66 67.5t-100 20.5zM356 1599q0 59 43 101.5t101 42.5q60 0 102.5 -43t42.5 -103q0 -59 -43 -100t-104 -41q-59 0 -100.5 41.5t-41.5 101.5zM846 1595q0 60 44 103t105 43q58 0 100 -43 t42 -103t-42.5 -102.5t-103.5 -42.5q-60 0 -102.5 42.5t-42.5 102.5z" />
<glyph unicode="&#x2c6;" d="M199 1071l196 332h230l200 -332h-116l-199 178l-199 -178h-112z" />
<glyph unicode="&#x2dc;" d="M166 1159q38 59 74 103q33 36 73 57.5t76 21.5q18 0 60 -10l190 -47q41 -8 51 -8q26 0 47.5 15.5t53.5 58.5l67 -29q-121 -191 -237 -191q-17 0 -70 11l-166 43q-46 10 -55 10q-29 0 -48 -13.5t-46 -50.5z" />
<glyph unicode="&#x2000;" horiz-adv-x="899" />
<glyph unicode="&#x2001;" horiz-adv-x="1798" />
<glyph unicode="&#x2002;" horiz-adv-x="899" />
<glyph unicode="&#x2003;" horiz-adv-x="1798" />
<glyph unicode="&#x2004;" horiz-adv-x="599" />
<glyph unicode="&#x2005;" horiz-adv-x="449" />
<glyph unicode="&#x2006;" horiz-adv-x="299" />
<glyph unicode="&#x2007;" horiz-adv-x="299" />
<glyph unicode="&#x2008;" horiz-adv-x="224" />
<glyph unicode="&#x2009;" horiz-adv-x="359" />
<glyph unicode="&#x200a;" horiz-adv-x="99" />
<glyph unicode="&#x2010;" horiz-adv-x="454" d="M0 403v183h455v-183h-455z" />
<glyph unicode="&#x2011;" horiz-adv-x="454" d="M0 403v183h455v-183h-455z" />
<glyph unicode="&#x2012;" horiz-adv-x="454" d="M0 403v183h455v-183h-455z" />
<glyph unicode="&#x2013;" d="M68 588v205h888v-205h-888z" />
<glyph unicode="&#x2014;" horiz-adv-x="1363" d="M0 414v164h1364v-164h-1364z" />
<glyph unicode="&#x2018;" horiz-adv-x="518" d="M88 1030q0 89 47 178q40 68 92 115q35 32 65.5 49t90.5 39v-70q-139 -68 -139 -225q0 -22 16 -22h2h12h15q60 0 99.5 -41t39.5 -103q0 -64 -44 -106.5t-110 -42.5q-78 0 -132 66t-54 163z" />
<glyph unicode="&#x2019;" horiz-adv-x="516" d="M88 1233q0 63 44.5 106t109.5 43q79 0 132.5 -66.5t53.5 -164.5q0 -90 -47 -176q-35 -65 -90 -117q-37 -32 -67.5 -49t-88.5 -37v68q139 70 139 225q0 25 -18 25h-2l-12 -3h-15q-59 0 -99 42.5t-40 103.5z" />
<glyph unicode="&#x201a;" horiz-adv-x="518" d="M88 121q0 63 44.5 106t109.5 43q79 0 132.5 -66t53.5 -163q0 -95 -47 -178q-36 -66 -90 -115q-37 -32 -67 -49t-89 -39v70q139 70 139 225q0 22 -18 22h-2h-12h-15q-59 0 -99 41.5t-40 102.5z" />
<glyph unicode="&#x201c;" horiz-adv-x="956" d="M90 1026q0 90 47 176q35 64 90 117q37 32 67.5 49t88.5 37v-68q-67 -34 -103 -92t-36 -133q0 -25 18 -25h2l12 3h15q59 0 99 -42.5t40 -103.5q0 -63 -44.5 -106t-109.5 -43q-79 0 -132.5 66.5t-53.5 164.5zM526 1026q0 96 47 176q33 63 91 117q37 33 67 49.5t88 36.5v-68 q-67 -34 -103 -92t-36 -133q0 -25 18 -25h2l13 3h14q59 0 99 -42.5t40 -103.5q0 -63 -44 -106t-109 -43q-80 0 -133.5 66.5t-53.5 164.5z" />
<glyph unicode="&#x201d;" horiz-adv-x="956" d="M90 1233q0 63 44 106t110 43q78 0 132 -66.5t54 -164.5q0 -90 -47 -176q-37 -65 -90 -117q-37 -32 -67.5 -49t-90.5 -37v68q141 69 141 225q0 25 -18 25h-2l-12 -3h-15q-60 0 -99.5 42t-39.5 104zM526 1233q0 63 44 106t108 43q80 0 134 -66.5t54 -164.5q0 -90 -47 -176 q-39 -67 -92 -117q-35 -32 -65.5 -48.5t-90.5 -37.5v68q69 34 104.5 91.5t35.5 133.5q0 25 -17 25h-2l-12 -3h-14q-60 0 -100 42t-40 104z" />
<glyph unicode="&#x201e;" horiz-adv-x="956" d="M90 127q0 63 44 106t110 43q78 0 132 -66.5t54 -164.5q0 -90 -47 -176q-37 -65 -90 -117q-37 -32 -67.5 -49t-90.5 -37v68q141 69 141 225q0 25 -18 25h-2l-12 -2h-15q-60 0 -99.5 41.5t-39.5 103.5zM526 127q0 63 44 106t108 43q80 0 134 -66.5t54 -164.5 q0 -90 -47 -176q-39 -67 -92 -117q-35 -32 -65.5 -48.5t-90.5 -37.5v68q140 72 140 225q0 25 -17 25h-2l-12 -2h-14q-60 0 -100 41.5t-40 103.5z" />
<glyph unicode="&#x2022;" horiz-adv-x="1366" d="M401 696q0 119 83 203t200 84q116 0 198.5 -84.5t82.5 -202.5t-82.5 -202t-198.5 -84q-117 0 -200 84t-83 202z" />
<glyph unicode="&#x2026;" horiz-adv-x="1552" d="M102 125q0 63 46 108.5t110 45.5q65 0 110.5 -47.5t45.5 -114.5q0 -61 -45.5 -104.5t-110.5 -43.5q-64 0 -110 45.5t-46 110.5zM621 125q0 63 45 108.5t108 45.5q65 0 111.5 -47.5t46.5 -114.5q0 -61 -45.5 -104.5t-110.5 -43.5q-64 0 -109.5 45.5t-45.5 110.5zM1139 125 q0 63 44.5 108.5t108.5 45.5q65 0 110.5 -47.5t45.5 -114.5q0 -61 -45.5 -104.5t-110.5 -43.5q-64 0 -108.5 45.5t-44.5 110.5z" />
<glyph unicode="&#x202f;" horiz-adv-x="359" />
<glyph unicode="&#x2039;" horiz-adv-x="589" d="M61 492l338 444h97l-185 -440l189 -449h-101z" />
<glyph unicode="&#x203a;" horiz-adv-x="589" d="M90 47l191 449l-185 440h97l335 -444l-335 -445h-103z" />
<glyph unicode="&#x205f;" horiz-adv-x="449" />
<glyph unicode="&#x2122;" horiz-adv-x="1855" d="M29 1145l8 221h674l6 -221h-45q-3 57 -9.5 80.5t-23.5 42.5q-21 24 -80 24h-108v-526q0 -54 4.5 -76t17.5 -35q26 -26 96 -26v-41h-393v41q77 0 100 30q19 25 19 107v526h-102q-65 0 -89 -24q-17 -17 -23 -39.5t-9 -83.5h-43zM752 1325v41h309l221 -543l217 543h316v-41 q-84 -1 -108 -21.5t-24 -89.5v-446q0 -85 20.5 -110.5t90.5 -28.5h21v-41h-410v41q81 0 104 30q19 22 19 107v481l-262 -663h-49l-263 653v-471q0 -54 4.5 -76.5t18.5 -34.5q26 -26 94 -26v-41h-315v41q51 2 69 5t31 13q15 12 21 36.5t6 82.5v440q0 72 -24 94t-107 25z" />
<glyph unicode="&#x25fc;" horiz-adv-x="931" d="M0 0v932h932v-932h-932z" />
<glyph unicode="&#xfb01;" horiz-adv-x="1165" d="M43 0v63q93 10 118 36t25 110v614h-143v105h143v47q0 198 117.5 299.5t347.5 101.5q138 0 212.5 -41.5t74.5 -117.5q0 -43 -31 -72t-78 -29q-71 0 -114 70l-17 26q-25 39 -53.5 55.5t-73.5 16.5q-75 0 -109 -42t-34 -136v-178h199q189 0 358 24v-743q0 -87 27 -116 t110 -30v-63h-497v63q67 0 90.5 30.5t23.5 115.5v491q0 78 -12 97q-19 26 -86 26h-213v-614q0 -77 25 -109.5t88 -36.5v-63h-498z" />
<glyph unicode="&#xfb02;" horiz-adv-x="1161" d="M43 0v63q92 12 116.5 37.5t24.5 108.5v614h-141v105h141l2 71q3 76 13.5 117t38.5 84q54 84 151.5 132t214.5 48q65 0 107.5 -10.5t111.5 -44.5q76 23 162 57v-1173q0 -87 26 -116t107 -30v-63h-493v63q67 9 89.5 40t22.5 114v879q0 81 -26 116q-25 31 -68.5 49.5 t-89.5 18.5q-73 0 -100 -33.5t-27 -124.5v-194h205v-105h-205v-612q0 -85 20.5 -112t92.5 -36v-63h-496z" />
</font>
</defs>
</svg>
