<?xml version="1.0" standalone="no"?>
<!DOCTYPE svg PUBLIC "-//W3C//DTD SVG 1.1//EN" "http://www.w3.org/Graphics/SVG/1.1/DTD/svg11.dtd" >
<svg xmlns="http://www.w3.org/2000/svg">
<metadata></metadata>
<defs>
<font id="timelesstligregular" horiz-adv-x="1024" >
<font-face units-per-em="2048" ascent="1651" descent="-397" />
<missing-glyph horiz-adv-x="512" />
<glyph horiz-adv-x="0" />
<glyph horiz-adv-x="512" />
<glyph unicode=" "  horiz-adv-x="512" />
<glyph unicode="&#x09;" horiz-adv-x="512" />
<glyph unicode="&#xa0;" horiz-adv-x="512" />
<glyph unicode="!" horiz-adv-x="561" d="M307 390h-49l-71 718q-8 87 -8 131q0 149 104 149q53 0 81 -46q22 -36 22 -99q0 -50 -7 -117zM282 211q46 0 80 -33q36 -35 36 -85q0 -46 -33 -81t-83 -35q-48 0 -83 34q-35 35 -35 84q0 48 33 81q35 35 85 35z" />
<glyph unicode="&#x22;" horiz-adv-x="613" d="M190 830h-53l-48 395q-7 53 -7 73q0 81 81 81t81 -82q0 -21 -5 -62zM477 830h-54l-47 395q-7 53 -7 73q0 81 81 81t81 -82q0 -19 -5 -62z" />
<glyph unicode="#" d="M704 461l-82 -461h-95l81 461h-273l-81 -461h-96l82 461h-186l16 89h185l52 292h-186l16 89h185l77 434h95l-76 -434h273l77 434h95l-76 -434h185l-15 -89h-186l-52 -292h186l-16 -89h-185zM624 550l51 292h-273l-51 -292h273z" />
<glyph unicode="$" d="M884 1297v-351h-51q-7 319 -268 350v-511q136 -67 226 -142q148 -122 148 -296q0 -191 -147 -294q-88 -62 -227 -75v-189h-87v189q-110 4 -199 25q-43 11 -158 49v374h53q5 -155 61 -236q78 -111 243 -128v548q-133 76 -226 147q-138 104 -138 269q0 133 79 228 q92 112 285 123v187h87v-189q167 -5 319 -78zM478 1297q-72 -10 -116 -39q-89 -59 -89 -162q0 -98 98 -184q25 -21 107 -76v461zM565 559v-497q193 60 193 246q0 96 -68 161q-46 44 -125 90z" />
<glyph unicode="%" horiz-adv-x="1305" d="M313 1381q48 0 92.5 -30.5t69.5 -81.5q49 -97 49 -233q0 -145 -53 -248q-27 -54 -74.5 -85t-101.5 -31q-108 0 -164 113q-49 97 -49 229q0 148 54 250q30 54 77 85.5t100 31.5zM305 1326q-61 0 -88 -104q-22 -85 -22 -202q0 -99 19 -185q24 -108 86 -108q68 0 92 118 q20 95 20 186q0 295 -107 295zM1087 1463l-767 -1564h-95l766 1564h96zM1012 689q48 0 92 -30.5t70 -81.5q49 -97 49 -233q0 -145 -53 -248q-28 -54 -75 -85t-101 -31q-108 0 -164 113q-49 97 -49 229q0 148 54 250q29 54 76.5 85.5t100.5 31.5zM1004 634q-61 0 -88 -104 q-22 -85 -22 -203q0 -99 19 -184q24 -108 86 -108q68 0 92 118q20 94 20 186q0 295 -107 295z" />
<glyph unicode="&#x26;" horiz-adv-x="1479" d="M1392 863v-48q-79 -5 -121 -34q-41 -29 -87 -103q-13 -22 -71 -126q-93 -164 -160 -250q58 -68 103 -106q88 -75 181 -75q91 0 141 87q11 20 26 55l48 -20q-16 -61 -57 -125q-97 -152 -249 -152q-96 0 -198 81q-45 35 -121 112q-96 -76 -150 -109q-134 -84 -260 -84 q-150 0 -244 94q-91 91 -91 232q0 187 169 330q65 55 212 136q-32 99 -44 151q-17 71 -17 141q0 151 85 243q93 100 227 100q111 0 183 -73t72 -179q0 -156 -147 -262q-35 -25 -165 -99q93 -211 246 -415q188 261 188 399q0 30 -18 41q-18 10 -59 10h-22v48h400zM628 849 q104 57 146 108q69 85 69 186q0 66 -33 116q-38 57 -102 57q-61 0 -98 -50q-41 -55 -41 -147q0 -128 59 -270zM496 684q-84 -48 -130 -91q-95 -90 -95 -217q0 -112 70 -199q60 -75 159 -75t188 51q31 18 86 63q-56 63 -141 204q-84 143 -137 264z" />
<glyph unicode="'" horiz-adv-x="326" d="M190 830h-53l-48 395q-7 53 -7 73q0 81 81 81t81 -82q0 -21 -5 -62z" />
<glyph unicode="(" horiz-adv-x="665" d="M624 1433v-50q-124 -73 -199 -198q-80 -131 -114 -319q-32 -180 -32 -340q0 -207 54 -415q80 -303 289 -423v-50q-204 97 -339 292q-187 269 -187 601q0 333 188 611q132 195 340 291z" />
<glyph unicode=")" horiz-adv-x="665" d="M41 -362v50q124 74 199 198q79 131 114 319q32 180 32 341q0 206 -54 414q-79 302 -289 423v50q204 -97 339 -291q187 -270 187 -602q0 -333 -188 -611q-133 -195 -340 -291z" />
<glyph unicode="*" horiz-adv-x="916" d="M429 1078q-8 63 -37 184q-8 31 -8 62q0 37 23 60q22 22 51 22q31 0 53 -24q19 -20 19 -52t-26 -143q-15 -64 -20 -108q58 28 163 93q51 31 87 31q27 0 48 -17q26 -20 26 -54q0 -46 -44 -67q-28 -13 -154 -23q-63 -6 -108 -15q42 -44 138 -126q60 -52 60 -97 q0 -26 -15 -46q-21 -26 -56 -26q-41 0 -67 41q-16 26 -57 123q-26 62 -47 99q-31 -58 -78 -171q-38 -91 -97 -91q-35 0 -55 27q-16 21 -16 42q0 38 48 84q10 9 74 65q53 47 79 75q-64 12 -186 21q-120 10 -120 87q0 29 23 50q20 20 46 20q29 0 73 -24q19 -10 84 -49 q56 -34 96 -53z" />
<glyph unicode="+" d="M464 634h-341v96h341v342h96v-342h341v-96h-341v-340h-96v340z" />
<glyph unicode="," horiz-adv-x="506" d="M219 191q73 0 127 -68q44 -56 44 -148q0 -139 -115 -242q-86 -79 -127 -79q-24 0 -24 23q0 10 25 28q153 113 153 240q0 26 -7 41q-6 13 -27 13q-13 0 -38 -8q-16 -5 -32 -5q-39 0 -64 28q-26 29 -26 72q0 35 21 65q27 40 90 40z" />
<glyph unicode="-" horiz-adv-x="460" d="M460 589v-161h-460v161h460z" />
<glyph unicode="." horiz-adv-x="506" d="M255 211q46 0 80 -33q36 -35 36 -85q0 -46 -33 -81t-83 -35q-48 0 -83 34q-35 35 -35 84q0 48 33 81q35 35 85 35z" />
<glyph unicode="/" horiz-adv-x="796" d="M714 1365l-671 -1693h-90l667 1693h94z" />
<glyph unicode="0" d="M517 1392q107 0 203 -80q126 -105 179 -307q43 -161 43 -336q0 -294 -109 -478q-62 -105 -145.5 -161.5t-177.5 -56.5q-111 0 -210 80q-218 177 -218 646q0 304 112 487q127 206 323 206zM506 1317q-154 0 -205 -248q-12 -59 -21 -176t-9 -211q0 -112 13 -236t33 -197 q54 -201 197 -201q154 0 205 226q35 154 35 386q0 114 -11.5 241t-28.5 198q-52 218 -208 218z" />
<glyph unicode="1" d="M642 1419v-1139q3 -161 77 -198q45 -24 167 -33v-49h-674v49q125 5 181 38q75 41 77 178v798q0 73 -14 97q-23 39 -84 39q-48 0 -179 -44v59q263 78 449 205z" />
<glyph unicode="2" d="M904 246l-95 -246h-738v48q172 153 349 370q247 301 247 525q0 134 -81 216q-72 72 -177 72q-123 0 -196 -104q-32 -46 -48 -114h-50q12 113 60 200q42 76 112 122q85 57 192 57q151 0 255 -108q103 -108 103 -281q0 -92 -34.5 -185.5t-108.5 -203.5q-96 -141 -291 -350 q-66 -70 -107 -117h360q87 1 119 16q54 27 81 83h48z" />
<glyph unicode="3" d="M616 806q92 -53 138 -97q103 -98 103 -260q0 -180 -144 -325q-75 -76 -175 -116q-90 -36 -175 -36q-113 0 -188 56q-51 37 -51 88q0 37 27 61q29 27 66 27q41 0 111 -57q82 -66 137 -66q85 0 152 71q77 81 77 211q0 110 -56 189q-68 95 -189 117q-40 8 -109 9v48 q112 4 192 73q104 90 104 225q0 95 -47 152q-58 69 -158 69q-94 0 -156 -62q-35 -36 -54 -102h-48q12 101 68 180q93 131 242 131q131 0 221 -86q89 -85 89 -211q0 -174 -177 -289z" />
<glyph unicode="4" d="M947 512v-147h-183v-365h-161v365h-516v177l589 853h88v-883h183zM603 512v630l-435 -630h435z" />
<glyph unicode="5" d="M886 1365l-61 -147h-394l-98 -226q190 -44 307 -127q212 -149 212 -393q0 -202 -144 -348q-148 -151 -348 -151q-108 0 -177 42q-56 34 -56 94q0 29 19 49q19 21 47 21q26 0 96 -44q89 -54 161 -54q93 0 166 63q48 42 76.5 107.5t28.5 134.5q0 152 -119 268 q-109 107 -276 155q-72 20 -147 22l234 534h473z" />
<glyph unicode="6" d="M898 1409v-50q-118 -16 -222 -76t-174 -151q-69 -88 -125 -241q-20 -56 -36 -124q126 81 235 81q133 0 230 -99q113 -116 113 -312q0 -180 -103 -314q-55 -72 -141 -112q-84 -39 -173 -39q-177 0 -281 146q-107 151 -107 385q0 252 125 479q85 153 225 264 q202 160 434 163zM315 663q-13 -108 -13 -165q0 -196 72 -325q70 -126 174 -126q98 0 148 92q44 82 44 218q0 154 -45 261q-59 137 -189 137q-64 0 -126 -39q-13 -9 -39 -29.5t-26 -23.5z" />
<glyph unicode="7" d="M931 1365l-433 -1403l-108 36l371 1207h-362q-129 -2 -176 -65q-28 -35 -61 -112l-44 23l128 314h685z" />
<glyph unicode="8" d="M612 737q83 -58 142 -125q131 -149 131 -306q0 -144 -108 -239q-109 -94 -256 -94q-170 0 -280 102q-101 93 -101 226q0 194 267 377q-118 92 -180 190t-62 194q0 132 100 229q105 101 255 101q154 0 254 -107q89 -94 89 -219q0 -64 -29.5 -125.5t-79.5 -102.5 q-31 -26 -142 -101zM553 783q77 63 108 110q52 77 52 177t-49 168q-57 79 -152 79q-90 0 -146 -71q-45 -58 -45 -131q0 -99 105 -215q26 -29 75 -74t52 -43zM467 628q-162 -147 -162 -315q0 -122 77 -204q56 -61 144 -61q91 0 149 63q54 58 54 146q0 104 -89 207 q-31 35 -100.5 101t-72.5 63z" />
<glyph unicode="9" d="M125 -43v51q124 13 256 96q107 67 176 183q90 152 125 313q-133 -82 -247 -82q-130 0 -222 96q-109 112 -109 301q0 185 99 323q53 74 135 115q82 40 176 40q181 0 291 -157q105 -150 105 -372q0 -252 -126 -480q-85 -153 -225 -264q-200 -158 -434 -163zM708 703 q13 105 13 164q0 197 -72 325q-69 125 -173 125q-92 0 -142 -83q-50 -82 -50 -226q0 -137 39 -241q57 -154 195 -154q64 0 126 39q13 8 38.5 28.5t25.5 22.5z" />
<glyph unicode=":" horiz-adv-x="506" d="M255 211q46 0 80 -33q36 -35 36 -85q0 -46 -33 -81t-83 -35q-48 0 -83 34q-35 35 -35 84q0 48 33 81q35 35 85 35zM254 948q47 0 83 -35q34 -33 34 -82q0 -50 -36 -84q-34 -33 -81 -33q-49 0 -84 35q-33 34 -33 82q0 50 34 83q35 34 83 34z" />
<glyph unicode=";" horiz-adv-x="565" d="M293 948q47 0 83 -35q34 -33 34 -82q0 -50 -36 -84q-34 -33 -81 -33q-49 0 -84 35q-33 34 -33 82q0 50 34 83q35 34 83 34zM279 191q73 0 127 -68q44 -56 44 -148q0 -138 -114 -241q-88 -80 -128 -80q-24 0 -24 23q0 10 25 29q153 112 153 240q0 56 -30 56q-11 0 -28 -6 q-27 -10 -48 -10q-37 0 -62 28q-26 29 -26 72q0 35 21 65q27 40 90 40z" />
<glyph unicode="&#x3c;" d="M937 1262v-85l-620 -403l620 -415v-226l-850 571v13z" />
<glyph unicode="=" d="M123 785v96h778v-96h-778zM123 484v96h778v-96h-778z" />
<glyph unicode="&#x3e;" d="M87 133v85l620 403l-620 415v226l850 -571v-13z" />
<glyph unicode="?" horiz-adv-x="801" d="M403 370h-55q5 126 11 168q13 92 75 202q51 90 73 147q33 85 33 166q0 107 -43 185q-49 89 -145 89q-66 0 -111 -39q-41 -36 -41 -82q0 -34 41 -99q24 -37 24 -66q0 -30 -21 -51q-24 -24 -60 -24q-45 0 -75 41q-28 38 -28 96q0 137 115 226q83 65 191 65q151 0 243 -97 q83 -87 83 -225q0 -115 -69 -223q-33 -52 -114 -150q-83 -101 -100 -134q-28 -58 -28 -161q0 -11 1 -34zM385 211q46 0 80 -33q36 -35 36 -85q0 -46 -33 -81t-83 -35q-48 0 -83 34q-35 35 -35 84q0 48 33 81q35 35 85 35z" />
<glyph unicode="@" horiz-adv-x="1579" d="M1085 1057h128l-150 -541q-14 -49 -14 -78q0 -32 23 -49q19 -14 48 -14q38 0 82.5 22t79.5 58q134 140 134 383q0 205 -105 320q-126 140 -350 140q-297 0 -512 -224q-103 -109 -162 -252q-54 -132 -54 -269q0 -212 159 -354q150 -135 398 -135q251 0 438 109l36 -69 q-224 -124 -502 -124q-296 0 -486 143q-208 156 -208 441q0 171 72 327t205 273q128 112 293 170q146 51 299 51q286 0 447 -174q126 -136 126 -366q0 -276 -171 -433q-77 -71 -178 -103q-51 -16 -98 -16q-69 0 -109 35q-36 31 -36 90q0 60 39 160q-45 -87 -100 -156 q-104 -129 -232 -129q-79 0 -129 51q-57 58 -57 153q0 117 68 246q93 177 235 265q98 61 192 61q110 0 126 -107zM933 1009q-108 0 -219 -155q-123 -172 -123 -342q0 -118 92 -118q119 0 230 185q50 82 82 177t32 160q0 93 -94 93z" />
<glyph unicode="A" horiz-adv-x="1383" d="M697 1409l498 -1167q62 -133 95 -152q45 -34 127 -37v-53h-564v53l18 1q73 3 98 14q34 16 34 60q0 27 -23 80l-99 238h-488l-89 -212q-31 -75 -31 -107q0 -64 77 -69q61 -4 71 -5v-53h-455v53q92 1 143 39q54 37 109 167zM637 1031l-214 -513h426z" />
<glyph unicode="B" horiz-adv-x="1282" d="M818 708q131 -26 203 -68q159 -94 159 -269q0 -134 -88 -231q-127 -140 -393 -140h-631v53l19 1q88 2 130 39q34 30 44 84q5 26 5 110v791q-1 107 -14 142q-32 87 -165 91l-19 1v53h522q223 0 328 -55q92 -48 142 -128.5t50 -181.5q0 -156 -145 -240q-66 -38 -147 -52z M471 1273v-499q0 -16 11 -19q21 -6 80 -6q143 0 229 60q106 74 106 217q0 167 -143 239q-67 34 -181 34q-13 0 -73 -3q-22 -1 -26 -7q-3 -3 -3 -16zM471 643v-538q0 -18 26 -21q59 -9 109 -9q127 0 219 59q123 78 123 242q0 173 -139 249q-90 48 -207 48q-17 0 -96 -4 q-26 -2 -32 -8q-3 -4 -3 -18z" />
<glyph unicode="C" horiz-adv-x="1313" d="M1208 1382q-1 -38 -1 -67q0 -226 33 -382l-53 -9q-26 116 -83 208q-107 173 -313 173q-200 0 -330 -165q-137 -173 -137 -444q0 -193 68 -343q63 -138 178 -208q102 -62 226 -62q279 0 420 274l57 -34q-66 -129 -162 -210q-157 -133 -376 -133q-203 0 -366 118 q-166 119 -235 313q-43 119 -43 251q0 151 50 290q75 209 261 328q164 106 343 106q134 0 287 -63q47 -20 67 -20q31 0 45 25q7 14 13 54h51z" />
<glyph unicode="D" horiz-adv-x="1539" d="M266 287v791q-1 107 -14 142q-32 87 -165 91l-19 1v53h504q246 0 343 -17q258 -44 393 -217q138 -176 138 -427q0 -415 -337 -601q-140 -77 -295 -94q-82 -9 -179 -9h-567v53l19 1q88 2 130 39q34 30 44 84q5 26 5 110zM471 1259v-1148q93 -30 201 -30q148 0 268 71 q143 83 214 242q60 134 60 296q0 194 -85 348q-89 161 -263 218q-96 31 -201 31q-106 0 -194 -28z" />
<glyph unicode="E" horiz-adv-x="1288" d="M1102 1365l21 -330h-53q-13 115 -71 178q-54 63 -213 67h-315v-517h269q81 0 123.5 13t64.5 45q31 46 33 143h51v-483h-51q-3 114 -45 155q-27 28 -80 37q-33 5 -96 5h-269v-491q0 -68 21 -87q20 -15 93 -15h229q103 0 165 19q114 38 175 158q23 45 43 102l50 -14 l-108 -350h-1071v53l19 1q88 2 130 39q34 30 44 84q5 26 5 110v791q-1 107 -14 142q-32 87 -165 91l-19 1v53h1034z" />
<glyph unicode="F" horiz-adv-x="1204" d="M1166 1365l24 -326h-53q-19 122 -76 180q-51 49 -164 59q-33 2 -93 2h-333v-516h277q91 0 126 15q42 17 63 63.5t20 121.5h50v-483h-51q-3 112 -40 153q-29 33 -79 41q-18 4 -89 4h-277v-392q1 -107 14 -142q32 -87 165 -91l19 -1v-53h-601v53l19 1q88 2 130 39 q34 30 44 84q5 26 5 110v791q-1 107 -14 142q-32 87 -165 91l-19 1v53h1098z" />
<glyph unicode="G" horiz-adv-x="1569" d="M1305 1383q-5 -38 -5 -83q0 -193 33 -355l-50 -7q-23 113 -95 207q-56 73 -145 115q-93 44 -200 44q-156 0 -282 -92q-236 -171 -236 -511q0 -180 73 -335q74 -156 220 -239q117 -66 244 -66q135 0 236 78q30 24 30 54v263q0 106 -14 141q-32 85 -165 92h-19v54h605v-54 h-23q-91 -3 -130 -40q-34 -29 -44 -84q-5 -25 -5 -109v-337q-111 -63 -198 -91q-148 -48 -312 -48q-310 0 -508 178q-222 199 -222 524q0 323 211 516q98 90 212 137q124 51 290 51q138 0 289 -56q68 -25 90 -25q55 0 68 78h52z" />
<glyph unicode="H" horiz-adv-x="1558" d="M471 733h615v345q-1 107 -14 142q-32 87 -165 91l-19 1v53h601v-53l-19 -1q-88 -2 -130 -39q-34 -30 -44 -84q-5 -26 -5 -110v-791q1 -107 14 -142q32 -87 165 -91l19 -1v-53h-601v53l19 1q88 2 130 39q34 30 44 84q5 26 5 110v374h-615v-374q1 -107 14 -142 q32 -87 165 -91l19 -1v-53h-601v53l19 1q88 2 130 39q34 30 44 84q5 26 5 110v791q-1 107 -14 142q-32 87 -165 91l-19 1v53h601v-53l-19 -1q-88 -2 -130 -39q-34 -30 -44 -84q-5 -26 -5 -110v-345z" />
<glyph unicode="I" horiz-adv-x="737" d="M471 1078v-791q1 -107 14 -142q32 -87 165 -91l19 -1v-53h-601v53l19 1q88 2 130 39q34 30 44 84q5 26 5 110v791q-1 107 -14 142q-32 87 -165 91l-19 1v53h601v-53l-19 -1q-88 -2 -130 -39q-34 -30 -44 -84q-5 -26 -5 -110z" />
<glyph unicode="J" horiz-adv-x="836" d="M597 1078v-662q0 -158 -30 -232q-83 -205 -303 -205q-117 0 -178 56q-48 44 -48 100q0 41 29 70q30 30 79 30q50 0 83 -34q18 -18 49 -88q19 -42 53 -42q31 0 49.5 24.5t18.5 64.5q0 18 -4 82q-3 47 -3 131v705q-1 107 -14 142q-32 87 -165 91l-19 1v53h601v-53l-19 -1 q-88 -2 -130 -39q-34 -30 -44 -84q-5 -26 -5 -110z" />
<glyph unicode="K" horiz-adv-x="1484" d="M1336 1365v-53q-79 0 -165 -50q-52 -33 -216 -203l-46 -47l-244 -251l517 -563q87 -95 168 -123q66 -24 157 -24h18v-51h-671v51q51 0 85 7q42 8 42 42q0 23 -37 64l-419 459q-32 33 -54 34v-370q1 -107 14 -142q32 -87 165 -91l19 -1v-53h-601v53l19 1q88 2 130 39 q34 30 44 84q5 26 5 110v791q-1 107 -14 142q-32 87 -165 91l-19 1v53h601v-53l-19 -1q-88 -2 -130 -39q-34 -30 -44 -84q-5 -26 -5 -110v-359q28 7 78 49t133 128q143 148 215 241q56 73 56 110q0 36 -27 50q-23 13 -91 14v54h501z" />
<glyph unicode="L" horiz-adv-x="1247" d="M1226 385l-120 -385h-1038v53l19 1q88 2 130 39q34 30 44 84q5 26 5 110v791q-1 107 -14 142q-32 87 -165 91l-19 1v53h601v-53l-19 -1q-88 -2 -130 -39q-34 -30 -44 -84q-5 -26 -5 -110v-829q0 -74 12 -104q11 -28 35 -36q19 -9 74 -9h143q149 1 209 20q159 46 226 265 h56z" />
<glyph unicode="M" horiz-adv-x="1855" d="M1384 1102l-518 -1094l-518 1086v-807q1 -107 14 -142q32 -87 165 -91l19 -1v-53h-485v53l19 1q88 2 130 39q34 30 44 84q5 26 5 110v791q-1 107 -14 142q-32 87 -165 91l-19 1v53h392l475 -1001l475 1001h384v-53l-19 -1q-88 -2 -130 -39q-34 -30 -44 -84 q-5 -26 -5 -110v-791q0 -107 14 -142q32 -87 165 -91l19 -1v-53h-601v53l19 1q88 2 130 39q34 30 44 84q5 26 5 110v815z" />
<glyph unicode="N" horiz-adv-x="1532" d="M1279 -16l-930 1106v-803q0 -107 14 -142q32 -87 165 -91l19 -1v-53h-485v53l19 1q88 2 130 39q34 30 44 84q5 26 5 110v908q-62 76 -143 104q-44 14 -121 14v52h400l794 -936v649q-1 107 -14 142q-32 87 -165 91l-19 1v53h485v-53l-19 -1q-88 -2 -130 -39 q-34 -30 -44 -84q-5 -26 -5 -110v-1094z" />
<glyph unicode="O" horiz-adv-x="1465" d="M751 1385q169 0 324 -100q297 -192 297 -593q0 -321 -192 -518q-91 -94 -210 -144.5t-247 -50.5q-195 0 -355 111q-166 115 -234 312q-42 122 -42 269q0 328 190 517q95 95 217 146t252 51zM737 1303q-123 0 -226 -87q-97 -83 -147 -251q-39 -133 -39 -286 q0 -256 103 -436q49 -86 129 -134t175 -48q131 0 231 91q100 90 147 271q30 117 30 253q0 268 -98 444q-102 183 -305 183z" />
<glyph unicode="P" horiz-adv-x="1161" d="M473 656v-369q1 -107 14 -142q32 -87 165 -91l19 -1v-53h-601v53l19 1q88 2 130 39q34 30 44 84q5 26 5 110v791q-1 107 -14 142q-32 87 -165 91l-19 1v53h509q224 0 320 -42q98 -43 153 -122q61 -89 61 -206q0 -88 -33.5 -165.5t-91.5 -125.5q-103 -86 -266 -86 q-89 0 -249 38zM473 1243v-487q0 -29 40 -42q56 -17 120 -17q88 0 149 52q99 84 99 243q0 156 -104 238q-70 55 -172 55q-50 0 -99 -10q-33 -7 -33 -32z" />
<glyph unicode="Q" horiz-adv-x="1468" d="M1350 -311v-48q-202 6 -388 76q-137 51 -249 137q-61 47 -162 146q-96 39 -146 67q-147 82 -234 251q-79 153 -79 353q0 383 261 577q184 137 391 137q251 0 441 -188q92 -90 141 -219t49 -277q0 -156 -45.5 -288t-129.5 -221q-90 -96 -195 -148q-40 -20 -113 -44 q66 -128 176 -211q130 -94 282 -100zM737 1303q-124 0 -226 -88q-96 -84 -147 -261q-40 -139 -40 -278q0 -220 84 -399q55 -117 165 -180q73 -42 161 -42q148 0 257 115q91 97 130 279q22 104 22 224q0 241 -78 409q-103 221 -328 221z" />
<glyph unicode="R" horiz-adv-x="1409" d="M821 667l300 -412q51 -70 88 -108t75 -60q50 -28 114 -32q27 -2 30 -2l8 -1v-52h-377l-463 630q-42 -1 -63 -1q-20 0 -62 1v-343q1 -107 14 -142q32 -87 165 -91l19 -1v-53h-601v53l19 1q88 2 130 39q34 30 44 84q5 26 5 110v791q-1 107 -14 142q-32 87 -165 91l-19 1v53 h566q176 0 286 -42q112 -43 165 -147q39 -76 39 -165q0 -175 -151 -277q-67 -44 -152 -67zM471 1237v-505q0 -19 18 -23q15 -4 55 -4q143 0 236 66q112 79 112 229q0 132 -80 214q-73 75 -197 75q-50 0 -109 -14q-25 -6 -31 -15q-4 -6 -4 -23z" />
<glyph unicode="S" horiz-adv-x="1044" d="M878 1400l-3 -450h-52q-7 116 -54 199q-40 70 -108 108q-63 36 -134 36q-98 0 -162 -58q-65 -59 -65 -148q0 -84 67 -145q48 -44 201 -132q214 -123 284 -195q45 -46 70.5 -113.5t25.5 -137.5q0 -183 -144 -296q-114 -89 -273 -89q-94 0 -257 54q-44 14 -66 14 q-55 0 -70 -61h-53l7 447h53q4 -111 46 -188q48 -89 146 -135q72 -33 151 -33q117 0 190 69q71 66 71 163q0 103 -85 177q-26 24 -209 134q-147 90 -183 116q-162 118 -162 286q0 172 137 281q104 83 249 83q70 0 216 -42q29 -8 52 -8q54 0 61 64h53z" />
<glyph unicode="T" horiz-adv-x="1210" d="M1167 1365l23 -319h-51q-12 112 -56 160q-42 47 -132 61q-30 4 -130 4h-112v-984q0 -107 14 -142q32 -86 165 -91l38 -1v-53h-639v53l38 1q89 2 130 39q34 30 44 84q5 26 5 110v984h-95q-125 0 -193 -17q-129 -32 -144 -210h-52l23 321h1124z" />
<glyph unicode="U" horiz-adv-x="1500" d="M1270 1078v-566q0 -170 -31 -252q-55 -145 -200 -217q-126 -63 -277 -63q-259 0 -410 151q-85 86 -105 201q-8 49 -8 180v566q-1 107 -14 142q-32 87 -165 91l-19 1v53h601v-53l-19 -1q-88 -2 -130 -39q-34 -30 -44 -84q-5 -26 -5 -110v-566q0 -134 14 -195 q26 -119 117 -184q100 -72 229 -72q111 0 203 54q112 66 147 186q16 56 16 219v558q-1 107 -14 142q-32 87 -165 91l-19 1v53h496v-53l-19 -1q-88 -2 -130 -39q-34 -30 -44 -84q-5 -26 -5 -110z" />
<glyph unicode="V" horiz-adv-x="1335" d="M1370 1365v-53q-83 3 -136 -47q-39 -37 -103 -190l-466 -1111l-444 1075q-71 168 -94 198q-56 75 -152 75h-9v53h598v-53q-96 -4 -128 -19q-50 -24 -50 -82q0 -40 27 -105l320 -756l294 709q44 105 44 159q0 88 -148 94v53h447z" />
<glyph unicode="W" horiz-adv-x="1857" d="M1891 1365v-53q-95 -5 -136 -32q-51 -35 -98 -167l-410 -1161l-324 897l-326 -889l-414 1169q-42 121 -95 155q-45 28 -122 28v53h558v-53q-19 -1 -26 -2q-68 -4 -90 -19q-29 -20 -29 -58q0 -23 12 -57l267 -758l212 582l-59 162q-21 57 -34 81q-27 53 -97 64 q-26 3 -65 5v53h550v-53h-11q-70 -3 -90 -12q-40 -16 -40 -65q0 -35 22 -96l262 -721l250 711q21 60 21 100q0 85 -112 85q-9 0 -28 -2v53h452z" />
<glyph unicode="X" horiz-adv-x="1402" d="M1390 1365v-54q-24 1 -39 1q-107 0 -165 -63q-19 -20 -109 -138l-279 -366l294 -462q99 -154 169 -194q53 -31 141 -36v-53h-632v53q65 2 97 9q55 12 55 63q0 35 -48 110l-211 333l-259 -338q-57 -74 -57 -112q0 -37 31 -51q28 -12 97 -14v-53h-475v53q90 1 146 30 q53 29 141 145l324 423l-262 411q-98 155 -147 197q-59 49 -177 52v54h626v-54l-23 -1q-70 -2 -94 -16q-31 -19 -31 -50t47 -105l197 -311l232 302q63 81 63 122q0 29 -23 45.5t-63 16.5q-15 0 -45 -3v54h479z" />
<glyph unicode="Y" horiz-adv-x="1334" d="M1365 1365v-53q-99 -2 -151 -35q-51 -34 -127 -159l-317 -527v-304q1 -107 14 -142q32 -87 165 -91l19 -1v-53h-601v53l19 1q88 2 130 39q34 30 44 84q5 26 5 110v302l-344 563q-60 97 -90 121q-50 40 -142 40q-11 0 -34 -1v53h607v-53q-21 -1 -27 -1q-61 -2 -81 -11 q-35 -17 -35 -56q0 -30 15 -56q3 -5 33 -53l265 -426l264 434q44 71 44 110q0 42 -52 52q-28 6 -81 7v53h458z" />
<glyph unicode="Z" horiz-adv-x="1265" d="M1212 1365l-855 -1280h425q154 1 200 17q94 27 160 134q27 47 43 111h53l-75 -347h-1115l857 1280h-320q-141 0 -185 -11q-120 -32 -150 -127q-17 -51 -26 -134h-53l34 357h1007z" />
<glyph unicode="[" horiz-adv-x="554" d="M137 1365h359v-68h-213v-1557h217v-68h-363v1693z" />
<glyph unicode="\" horiz-adv-x="796" d="M82 1365h94l667 -1693h-90z" />
<glyph unicode="]" horiz-adv-x="554" d="M418 -328h-360v68h214v1557h-217v68h363v-1693z" />
<glyph unicode="^" d="M1076 583h-85l-402 620l-416 -620h-225l570 850h14z" />
<glyph unicode="_" d="M42 -181h939v-97h-939v97z" />
<glyph unicode="`" d="M228 1406h210l140 -316l-25 -18z" />
<glyph unicode="a" horiz-adv-x="954" d="M593 122q-135 -154 -274 -154q-99 0 -166 68q-64 63 -64 160q0 155 173 260q71 42 311 128l20 7v129q0 58 -20 100q-16 34 -52 54.5t-79 20.5q-76 0 -119 -54q-25 -31 -25 -65q0 -18 7 -49q5 -25 5 -41q0 -33 -24 -58t-60 -25q-39 0 -64 28t-25 68q0 90 81 167 q93 89 244 89q86 0 154 -30t104 -84q26 -39 33 -85q4 -27 4 -80v-476q0 -51 6 -68q14 -35 47 -35q45 0 94 58l36 -33q-42 -53 -70 -81q-74 -73 -157 -73q-53 0 -83.5 39t-36.5 115zM593 520q-103 -27 -206 -84q-136 -76 -136 -191q0 -68 50 -113q47 -42 110 -42q62 0 130 53 q40 30 47 60q5 21 5 49v268z" />
<glyph unicode="b" horiz-adv-x="1039" d="M164 79v1042q0 54 -11 76q-17 34 -59 34q-23 0 -76 -12v50q120 26 310 135v-609q123 160 271 160q155 0 261 -148q92 -127 92 -311q0 -223 -132 -381q-119 -142 -308 -142q-121 0 -260 60q-50 22 -88 46zM328 669v-436q0 -67 15 -94q25 -44 74 -70q42 -21 93 -21 q60 0 113 30t86 83q68 109 68 272q0 159 -76 263q-79 107 -189 107q-83 0 -150 -67q-34 -34 -34 -67z" />
<glyph unicode="c" horiz-adv-x="880" d="M852 349q-50 -165 -118 -246q-111 -130 -276 -130q-86 0 -160.5 40t-121.5 110q-89 137 -89 330q0 236 134 378q117 125 298 125q98 0 177 -43q115 -62 115 -164q0 -45 -28 -71q-26 -24 -67 -24q-79 0 -92 96q-17 130 -146 130q-95 0 -154 -80q-76 -104 -76 -264 q0 -161 77 -276q39 -59 96.5 -93.5t115.5 -34.5q107 0 190 90q50 53 79 140z" />
<glyph unicode="d" horiz-adv-x="1075" d="M877 1404v-1140q0 -73 9 -97q20 -52 73 -52q27 0 68 20v-52q-236 -87 -314 -129v139q-118 -121 -258 -121q-98 0 -183 56q-183 122 -183 424q0 248 121 379q115 124 272 124q135 0 231 -100v266q0 54 -11 76q-17 34 -59 34q-23 0 -76 -12v50q56 12 97 30t213 105z M713 239v411q0 52 -8 81t-31 62q-61 87 -160 87q-95 0 -167 -80q-49 -55 -72 -156q-18 -77 -18 -160q0 -191 83 -300q77 -101 191 -101q109 0 167 83q15 20 15 73z" />
<glyph unicode="e" horiz-adv-x="944" d="M221 554q1 -15 1 -31q1 -65 21 -137t51 -120q83 -128 237 -128q135 0 212 91q49 58 67 133h55q-27 -143 -78 -221q-52 -82 -134 -126q-79 -42 -169 -42q-83 0 -160.5 36.5t-128.5 99.5q-108 134 -108 353q0 234 133 381q102 112 265 112q211 0 302 -197q32 -68 39 -154 q1 -16 3 -50h-608zM224 629h413q-2 72 -20 116q-47 114 -167 114t-181 -98q-31 -50 -45 -132z" />
<glyph unicode="f" horiz-adv-x="638" d="M553 928v-68h-177v-676q1 -96 54 -119q25 -11 89 -16l14 -1v-48h-478v48l14 1q72 6 97 21q45 24 46 114v676h-138v68h138v66q0 144 49 241q88 174 302 174q88 0 154 -39q85 -51 85 -122q0 -31 -20 -55q-24 -29 -64 -29q-42 0 -73 34q-14 15 -44 69q-39 68 -100 68 q-93 0 -114 -115q-11 -58 -11 -174v-118h177z" />
<glyph unicode="g" horiz-adv-x="921" d="M874 902v-109h-147q38 -71 38 -152q0 -133 -95 -217q-91 -81 -223 -81q-54 0 -120 18l-11 -13q-53 -63 -53 -91q0 -50 107 -50q35 0 91 -2q78 -2 100 -2q128 -1 159 -6q88 -14 132 -74q42 -57 42 -131q0 -153 -173 -254q-136 -80 -320 -80q-149 0 -263 68q-91 55 -91 121 q0 44 68 127q26 32 95 103q-91 32 -91 110q0 50 51 109q31 36 88 90q-62 36 -93 74q-60 73 -60 179q0 133 96 225q100 96 231 96q79 0 189 -58h253zM417 896q-60 0 -100 -48q-39 -46 -39 -136q0 -142 59 -230q49 -73 121 -73q61 0 102 47q39 45 39 135q0 120 -52 217 q-47 88 -130 88zM273 67q-71 -90 -71 -142q0 -76 88 -110q90 -35 216 -35q184 0 265 82q42 43 42 96q0 72 -76 87q-48 10 -358 16q-59 1 -106 6z" />
<glyph unicode="h" horiz-adv-x="1124" d="M362 1404v-642q61 82 116 125q88 68 189 68q93 0 164 -51q65 -46 86 -135q9 -38 9 -135v-450q1 -96 54 -119q25 -11 89 -16l14 -1v-48h-478v48l14 1q72 6 97 21q45 24 46 114v430q0 96 -26 136q-41 63 -140 63q-126 0 -234 -120v-509q1 -96 54 -119q25 -11 89 -16l14 -1 v-48h-478v48l14 1q72 6 97 21q45 24 46 114v937q0 55 -11 77q-17 33 -60 33q-25 0 -76 -12v50q51 10 166 61q93 42 145 74z" />
<glyph unicode="i" horiz-adv-x="573" d="M376 975v-791q1 -96 54 -119q25 -11 89 -16l14 -1v-48h-478v48l14 1q72 6 97 21q45 24 46 114v502q0 106 -67 106q-23 0 -68 -16v49q49 17 156 68q100 49 143 82zM284 1382q42 0 74 -30q36 -34 36 -83q0 -44 -31 -76q-32 -33 -79 -33q-45 0 -77 30q-35 33 -35 81 q0 42 28 74q33 37 84 37z" />
<glyph unicode="j" horiz-adv-x="532" d="M376 974v-920q0 -180 -90 -284q-50 -57 -118 -89q-62 -28 -122 -28q-72 0 -122 33q-48 31 -48 85q0 35 24 59q22 22 54 22t57 -25q6 -6 36 -47q23 -33 65 -33q100 0 100 151v787q0 107 -67 107q-24 0 -70 -16v49q52 17 157 68q98 47 144 81zM278 1382q42 0 74 -30 q36 -34 36 -83q0 -44 -31 -76q-32 -33 -79 -33q-45 0 -77 30q-35 33 -35 81q0 42 28 74q33 37 84 37z" />
<glyph unicode="k" horiz-adv-x="999" d="M362 519l241 260q54 58 54 74q0 23 -41 26q-2 1 -20 1h-12v48h358v-48q-95 -8 -167 -60q-56 -42 -169 -156l-95 -99l259 -354q58 -79 93 -112q47 -42 123 -51v-48h-402v48q14 1 19 1q33 -1 45.5 5t12.5 23q0 20 -71 117l-228 311v-321q1 -96 54 -119q25 -11 89 -16l14 -1 v-48h-478v48l14 1q72 6 97 21q45 24 46 114v937q0 55 -11 77q-17 33 -59 33q-24 0 -76 -12v50q49 10 165 61q100 45 145 74v-885z" />
<glyph unicode="l" horiz-adv-x="560" d="M362 1404v-1220q1 -96 54 -119q25 -11 89 -16l14 -1v-48h-478v48l14 1q72 6 97 21q45 24 46 114v937q0 55 -11 77q-17 33 -60 33q-24 0 -75 -12v50q54 12 165 61q95 43 145 74z" />
<glyph unicode="m" horiz-adv-x="1709" d="M376 968v-211q68 93 121 131q93 68 195 68q142 0 206 -108q18 -30 34 -91q10 12 46 55q50 59 130 104q69 39 149 39q92 0 158 -51q97 -74 97 -245v-475q0 -96 54 -119q25 -11 89 -16l14 -1v-48h-478v48l14 1q72 6 97 21q45 24 46 114v439q0 98 -37 144q-41 50 -131 50 q-92 0 -168 -56q-43 -32 -69 -74v-503q1 -96 54 -119q25 -11 89 -16l14 -1v-48h-478v48l14 1q72 6 97 21q45 24 46 114v425q0 87 -15 124q-35 83 -152 83q-142 0 -236 -135v-497q1 -96 54 -119q25 -11 89 -16l14 -1v-48h-478v48l14 1q72 6 97 21q45 24 46 114v501 q0 55 -11 77q-17 34 -58 34q-25 0 -77 -13v50q121 26 310 135z" />
<glyph unicode="n" horiz-adv-x="1143" d="M376 968v-212q52 75 110 125q88 74 205 74q173 0 231 -150q23 -60 23 -185v-436q1 -96 54 -119q25 -11 89 -16l14 -1v-48h-478v48l14 1q72 6 97 21q45 24 46 114v465q0 70 -35 115q-43 54 -133 54q-80 0 -142 -40q-49 -32 -95 -103v-491q1 -96 54 -119q25 -11 89 -16 l14 -1v-48h-478v48l14 1q72 6 97 21q45 24 46 114v501q0 55 -11 77q-17 34 -58 34q-25 0 -77 -13v50q47 9 165 61q68 30 145 74z" />
<glyph unicode="o" horiz-adv-x="1047" d="M547 956q93 0 176 -43.5t139 -120.5q98 -136 98 -319q0 -198 -114 -339q-61 -75 -148 -118q-88 -43 -183 -43q-166 0 -284 115q-144 139 -144 360q0 200 109 338q64 82 165 128q91 42 186 42zM508 881q-54 0 -102.5 -32t-80.5 -88q-64 -112 -64 -273q0 -199 86 -332 q70 -108 185 -108q58 0 108.5 32.5t81.5 88.5q64 116 64 272q0 167 -63 292q-75 148 -215 148z" />
<glyph unicode="p" horiz-adv-x="1051" d="M362 969v-158q63 54 98 79q91 65 180 65q137 0 233 -135q91 -127 91 -320q0 -247 -151 -397q-52 -53 -128 -84q-80 -32 -149 -32q-89 0 -174 49v-180q1 -96 54 -119q25 -11 89 -16l14 -1v-48h-478v48l14 1q72 6 97 21q45 24 46 114v859q0 120 -80 120q-23 0 -54 -9v51 q169 35 298 92zM362 738v-507q0 -53 22 -87q55 -82 157 -82q134 0 203 128q48 87 48 238q0 185 -74 287q-36 50 -86 77t-97 27q-74 0 -173 -81z" />
<glyph unicode="q" horiz-adv-x="1036" d="M878 982v-1126q1 -96 54 -119q25 -11 89 -16l14 -1v-48h-478v48l14 1q72 6 97 21q45 24 46 114v259q-39 -45 -90 -78q-99 -64 -192 -64q-153 0 -247 134q-99 140 -99 332q0 218 142 375q60 67 146 105q83 37 165 37q69 0 144 -42q21 -12 56 -35q42 12 82 43q36 29 57 60z M714 200v512q0 44 -22 80q-55 89 -169 89q-118 0 -189 -93q-79 -104 -79 -287q0 -185 77 -287t198 -102q79 0 147 52q37 27 37 36z" />
<glyph unicode="r" horiz-adv-x="725" d="M373 968v-192q40 69 74 108q67 74 143 74q52 0 87 -32q35 -34 35 -82q0 -43 -30 -71q-26 -25 -59 -25q-42 0 -74 44q-18 24 -39 24q-62 0 -104 -86q-30 -62 -30 -174v-372q1 -96 54 -119q25 -11 89 -16l14 -1v-48h-478v48l14 1q72 6 97 21q45 24 46 114v501q0 55 -11 77 q-17 34 -58 34q-25 0 -77 -13v50q48 10 165 61q103 45 142 74z" />
<glyph unicode="s" horiz-adv-x="775" d="M634 957l6 -322h-50q-14 102 -62 160q-69 86 -172 86q-72 0 -112 -53q-24 -32 -24 -74q0 -54 45 -92q26 -22 155 -98q128 -75 180 -119q87 -74 87 -196q0 -129 -103 -211q-82 -65 -180 -65q-69 0 -188 37q-18 5 -32 5q-28 0 -44 -34h-50v314h50q19 -113 72 -173 q30 -33 74.5 -53.5t89.5 -20.5q66 0 113 48q40 41 40 99q0 54 -41 95q-30 30 -108 77q-147 87 -196 131q-95 84 -95 197q0 118 85 193q77 68 182 68q52 0 123 -21q52 -15 68 -15q25 0 38 37h49z" />
<glyph unicode="t" horiz-adv-x="635" d="M355 1227v-299h195v-68h-195v-569q0 -97 14 -132q23 -55 87 -55q69 0 125 84l40 -28q-25 -45 -64 -88q-92 -99 -190 -99q-96 0 -144 73q-32 48 -32 153v661h-128v68q90 15 159 99q72 92 85 200h48z" />
<glyph unicode="u" horiz-adv-x="1129" d="M931 928v-679q0 -63 15 -99q16 -40 70 -40q23 0 60 9v-49q-60 -11 -187 -61q-92 -35 -122 -57v215q-57 -72 -104 -113q-94 -82 -212 -82q-140 0 -208 105q-45 67 -45 200v467q-1 96 -54 119q-25 11 -89 16l-14 1v48h321v-585q0 -103 18 -148q35 -85 144 -85 q144 0 243 131v503q-1 96 -54 119q-25 11 -89 16l-14 1v48h321z" />
<glyph unicode="v" horiz-adv-x="902" d="M435 -18l-303 774q-25 62 -51 90q-28 27 -81 34v48h416v-48h-27q-63 -1 -85 -16q-23 -15 -23 -51q0 -25 23 -83l193 -483l196 515q12 30 12 58q0 59 -112 60v48h309v-48q-46 -8 -70 -32q-20 -22 -40 -71l-312 -795h-45z" />
<glyph unicode="w" horiz-adv-x="1352" d="M1352 928v-48q-42 0 -71 -35q-13 -14 -47 -97l-296 -763h-44l-198 587l-226 -587h-48l-296 793q-26 70 -54 85q-31 18 -72 17v48h400v-48q-11 -1 -14 -1q-55 -6 -72 -20q-26 -21 -26 -51q0 -17 8 -37l194 -510l164 432l-29 83q-24 72 -66 92q-30 12 -73 12v48h403v-48 q-52 -2 -72 -15q-27 -16 -27 -55q0 -24 12 -59l161 -474l188 489q10 26 10 47q0 32 -19 47q-25 19 -100 20v48h310z" />
<glyph unicode="x" horiz-adv-x="990" d="M949 928v-48q-69 -2 -107 -15q-56 -18 -99 -77l-188 -262l195 -292q73 -112 124 -153q37 -29 103 -33v-48h-410v48q72 1 72 41q0 30 -25 68l-154 235l-163 -226q-30 -42 -30 -78q0 -34 57 -37q45 -3 55 -3v-48h-365v48q40 1 69 11q31 12 52 32q25 23 59 71l218 303 l-206 316q-39 61 -86 81q-34 17 -101 18v48h444v-48q-40 0 -57 -5q-35 -11 -35 -45q0 -20 18 -47l119 -183l125 176q27 38 27 59q0 30 -28 39q-12 4 -58 6v48h375z" />
<glyph unicode="y" horiz-adv-x="923" d="M923 928v-48q-40 -1 -59 -11q-36 -17 -76 -107q-18 -43 -45 -110l-260 -655q-69 -173 -116 -229q-85 -103 -199 -103q-62 0 -97 37q-26 28 -26 66q0 44 33 70q29 23 69 23q34 0 71 -21q36 -20 54 -20q40 0 69 43q25 36 50 95l24 58l-266 735q-36 99 -83 118 q-27 11 -66 11v48h415v-48q-52 -2 -74 -14q-31 -18 -31 -62q0 -26 13 -62l178 -504l129 331q68 176 68 228q0 65 -64 77q-21 3 -73 6v48h362z" />
<glyph unicode="z" horiz-adv-x="833" d="M790 928v-32l-533 -821h319q123 2 152 63q24 45 24 143h47v-281h-765v30l533 823h-233q-138 0 -165 -70q-14 -37 -14 -134h-49v279h684z" />
<glyph unicode="{" horiz-adv-x="555" d="M182 540q41 -10 68 -53q35 -55 35 -204v-406v-36q0 -70 37 -89q22 -12 99 -12h74v-68h-130q-98 0 -144 11q-61 16 -75 73q-9 41 -9 144v400q-1 113 -28 164q-26 48 -66 76q44 28 68 66q26 45 26 146v386q0 99 10 143q16 61 74 75q38 8 144 9h129v-68h-72q-93 1 -116 -24 q-22 -25 -21 -112v-391q-2 -84 -5 -115q-15 -109 -98 -115z" />
<glyph unicode="|" d="M450 1365h124v-1706h-124v1706z" />
<glyph unicode="}" horiz-adv-x="555" d="M374 497q-42 10 -68 54q-35 56 -35 203v406q1 88 -21 113q-25 25 -116 24h-73v68h130q98 0 144 -10q60 -17 75 -74q9 -41 9 -144v-400q1 -113 27 -164q27 -48 67 -76q-44 -28 -68 -66q-26 -45 -26 -146v-385q0 -100 -10 -144q-16 -61 -74 -75q-38 -8 -144 -9h-129v68h72 q93 -1 116 24q22 24 21 113v390q2 99 5 115q15 109 98 115z" />
<glyph unicode="~" horiz-adv-x="1365" d="M1078 1502l31 -20q-41 -72 -98 -123q-86 -78 -179 -78q-42 0 -185 47q-118 39 -176 39q-71 0 -123 -49q-23 -22 -59 -66l-32 20q121 203 280 203q56 0 183 -44q110 -38 161 -38q110 0 197 109z" />
<glyph unicode="&#xa1;" horiz-adv-x="561" d="M254 529h50l70 -717q9 -95 9 -132q0 -149 -104 -149q-54 0 -82 46q-22 36 -22 99q0 48 7 117zM281 941q47 0 82 -34t35 -84q0 -48 -33 -81q-35 -35 -84 -35q-47 0 -81 33q-36 35 -36 84q0 48 33 82q34 35 84 35z" />
<glyph unicode="&#xa2;" d="M572 204v-170h-87v165q-133 13 -216 97q-62 61 -98 165q-35 101 -35 217q0 236 134 379q84 90 215 118v170h87v-163q106 -5 174 -42q115 -63 115 -165q0 -39 -22 -64q-26 -30 -72 -30q-55 0 -78 42q-9 18 -18 74q-8 47 -37 72q-17 15 -62 32v-744h16q106 0 190 90 q49 53 79 141l45 -14q-96 -329 -330 -370zM485 1101q-73 -22 -112 -75q-76 -105 -76 -264q0 -160 77 -277q41 -62 111 -101v717z" />
<glyph unicode="&#xa3;" d="M779 730v-76h-247q15 -85 15 -162q0 -168 -72 -303q86 -40 174 -40q116 0 188 46q73 47 72 130h49q-7 -103 -45 -178q-40 -78 -113 -123q-64 -39 -143 -39q-77 0 -165 47q-39 21 -103 59q-110 -108 -211 -108q-70 0 -109 40q-37 37 -37 93q0 60 45 97q51 42 128 42 q62 0 156 -27q18 72 18 123q0 87 -48 303h-188v76h171q-35 150 -35 251q0 193 105 299q100 101 257 101q107 0 178 -54q68 -51 68 -126q0 -42 -29 -70q-25 -24 -67 -24q-46 0 -69 29q-19 23 -19 48q0 13 6 43q3 14 3 24q0 30 -23 50q-24 20 -55 20q-78 0 -125 -77 q-44 -72 -44 -178q0 -99 52 -336h262zM303 137q-67 32 -114 32q-43 0 -63 -24q-12 -16 -12 -35q0 -24 18 -41q20 -18 48 -18q27 0 58 18q30 17 65 68z" />
<glyph unicode="&#xa4;" d="M262 380l-155 -154l-62 62l157 157q-73 104 -73 226q0 138 94 251l-155 154l62 63l158 -157q103 72 225 72t225 -73l155 155l62 -62l-152 -152q93 -111 93 -251q0 -126 -72 -225l154 -155l-62 -62l-152 152q-110 -94 -251 -94q-143 0 -251 93zM509 935q-106 0 -183 -77 q-78 -78 -78 -187q0 -110 78 -188q77 -77 186 -77q110 0 188 77q77 78 77 187q0 112 -77 188q-80 77 -191 77z" />
<glyph unicode="&#xa5;" horiz-adv-x="1121" d="M750 797h231v-75h-268l-66 -131v-53h279v-75h-279v-176q0 -107 11 -141q27 -88 139 -92l16 -1v-53h-504v53l16 1q73 2 109 40q29 28 37 84q4 25 4 109v176h-281v75h281v51l-69 133h-266v75h227l-182 355q-35 68 -52 94q-47 69 -171 67v52h510v-52q-18 -1 -23 -1 q-51 -1 -68 -11q-29 -17 -29 -57q0 -30 13 -56q3 -6 27 -53l223 -426l221 434q37 71 37 111q0 41 -44 52q-23 6 -68 7v52h386v-52q-83 -2 -128 -36q-44 -35 -107 -160z" />
<glyph unicode="&#xa6;" d="M450 1365h124v-691h-124v691zM450 314h124v-655h-124v655z" />
<glyph unicode="&#xa7;" d="M372 877q-43 40 -65 67q-64 78 -64 178q0 130 100 206q81 63 200 63q125 0 198 -78q57 -61 57 -138q0 -44 -26 -71q-23 -25 -55 -25q-33 0 -54 24q-15 18 -15 43q0 15 10 66q3 13 3 28q0 48 -40 76q-34 24 -87 24q-85 0 -131 -51q-39 -44 -39 -97q0 -80 92 -163 q61 -56 175 -149q117 -94 149 -130q89 -98 89 -210q0 -111 -84 -209q-13 -15 -131 -127q45 -44 68 -72q66 -81 66 -177q0 -131 -105 -210q-79 -60 -196 -60q-124 0 -194 72q-60 63 -60 141q0 48 28 76q24 23 53 23q43 0 61 -41q6 -12 6 -27t-11 -68q-2 -9 -2 -22 q0 -37 26 -66q34 -39 105 -39q74 0 119 41q48 44 48 111q0 63 -51 121q-42 48 -274 237q-92 74 -127 124q-57 81 -57 173q0 116 94 219q42 47 121 117zM410 843q-140 -133 -140 -228q0 -72 93 -162q19 -17 135 -117l93 -78l26 -22q63 63 87 96q48 65 48 123q0 72 -58 139 q-64 73 -284 249z" />
<glyph unicode="&#xa8;" d="M696 1335q42 0 72 -30q31 -30 31 -74q0 -42 -29 -73q-30 -32 -75 -32q-43 0 -73 29q-32 31 -32 76q0 43 31 73q31 31 75 31zM331 1336q40 0 70 -28q34 -31 34 -77q0 -41 -28 -72q-30 -33 -76 -33q-43 0 -73 29q-33 31 -33 77q0 41 28 71q31 33 78 33z" />
<glyph unicode="&#xa9;" horiz-adv-x="1543" d="M779 1385q135 0 263 -54t226 -152q99 -98 152.5 -227.5t53.5 -268.5t-53.5 -268.5t-152.5 -228.5q-205 -206 -498 -206t-496 206q-99 100 -153 234q-53 129 -53 262q0 193 102 364q101 169 277 261q149 78 332 78zM762 1306q-251 0 -432 -183q-87 -87 -135 -203t-48 -237 t48 -237.5t135 -203.5q180 -183 440 -183t442 183q87 87 135 202t48 238q0 124 -48 240.5t-135 200.5q-187 183 -450 183zM1067 1102q-1 -21 -1 -45q0 -139 21 -232l-45 -8q-49 226 -228 226q-115 0 -190 -95q-79 -100 -79 -258q0 -178 87 -274q74 -81 185 -81 q161 0 245 166l45 -28q-105 -212 -326 -212q-190 0 -306 154q-81 109 -81 254q0 171 91 286q61 77 158 119q68 30 144 30q82 0 171 -37q26 -11 37 -11q15 0 21 11q3 7 7 35h44z" />
<glyph unicode="&#xaa;" horiz-adv-x="635" d="M384 609q-80 -82 -167 -82q-65 0 -109 42q-43 39 -43 99q0 96 113 159q46 26 197 77l8 2v71q0 97 -89 97q-45 0 -70 -29q-14 -17 -14 -34q0 -10 4 -28q4 -15 4 -25q0 -22 -17 -39t-43 -17q-27 0 -45 19q-18 18 -18 44q0 57 53 104q61 54 159 54q118 0 168 -70 q25 -34 25 -101v-281q0 -54 27 -54q26 0 58 37l33 -29q-31 -36 -49 -53q-49 -45 -103 -45q-65 0 -82 82zM383 851q-52 -12 -120 -47q-82 -42 -82 -108q0 -35 29 -60q28 -23 65 -23q36 0 78 30q23 15 27 31q3 12 3 28v149z" />
<glyph unicode="&#xab;" horiz-adv-x="997" d="M493 504l362 447h60l-233 -447l233 -449h-60zM68 504l357 447h59l-230 -447l230 -449h-59z" />
<glyph unicode="&#xac;" d="M741 0v454h-670v92h882v-546h-212z" />
<glyph unicode="&#xad;" horiz-adv-x="460" d="M460 589v-161h-460v161h460z" />
<glyph unicode="&#xae;" horiz-adv-x="1543" d="M779 1385q135 0 263 -54t226 -152q99 -98 152.5 -227.5t53.5 -268.5t-53.5 -268.5t-152.5 -228.5q-205 -206 -498 -206t-496 206q-99 100 -153 234q-53 129 -53 262q0 193 102 364q101 169 277 261q149 78 332 78zM762 1306q-251 0 -432 -183q-87 -87 -135 -203t-48 -237 t48 -237.5t135 -203.5q180 -183 440 -183t442 183q87 87 135 202t48 238q0 124 -48 240.5t-135 200.5q-187 183 -450 183zM878 670l138 -236q51 -77 83 -97q24 -16 57 -18q18 -1 25 -2v-44h-211l-239 372q-21 -1 -32 -1q-10 0 -31 1v-196q0 -62 7 -81q18 -46 91 -50h18v-45 h-368v45h18q51 2 72 22q19 16 24 45q3 14 3 64v467q0 62 -8 81q-17 46 -91 50h-18v45h341q295 0 295 -215q0 -152 -174 -207zM667 1010v-298q0 -9 46 -9q72 0 125 38q63 45 63 129q0 75 -45 122q-41 42 -111 42q-20 0 -62 -8q-16 -3 -16 -16z" />
<glyph unicode="&#xaf;" d="M42 1726h939v-97h-939v97z" />
<glyph unicode="&#xb0;" horiz-adv-x="714" d="M361 1392q104 0 181 -74t77 -180q0 -105 -76 -180q-77 -75 -186 -75q-108 0 -185 75q-76 75 -76 179q0 108 76 180q79 75 189 75zM355 1301q-66 0 -116 -48q-48 -47 -48 -115t48 -116q49 -48 118 -48t119 49q48 47 48 114q0 70 -49 116q-50 48 -120 48z" />
<glyph unicode="&#xb1;" d="M464 634h-341v96h341v342h96v-342h341v-96h-341v-340h-96v340zM123 34v96h778v-96h-778z" />
<glyph unicode="&#xb2;" horiz-adv-x="679" d="M597 705l-66 -159h-476v39q111 92 221 219q154 176 154 307q0 74 -49 120q-43 41 -107 41q-116 0 -148 -128h-44q8 76 40 129q65 108 197 108q98 0 165 -66t67 -170q0 -107 -91 -234q-63 -86 -184 -207q-39 -38 -57 -57h211q66 1 93 21q17 13 29 37h45z" />
<glyph unicode="&#xb3;" horiz-adv-x="679" d="M419 1029q49 -28 77 -52q68 -60 68 -159q0 -109 -93 -197q-96 -91 -226 -91q-72 0 -122 34q-35 24 -35 57q0 25 19 42q20 17 46 17q28 0 75 -35q50 -37 82 -37q51 0 91 40q47 46 47 119q0 109 -93 157q-42 21 -131 22v42q73 1 123 41q63 51 63 128q0 55 -28 85 q-35 39 -94 39q-99 0 -127 -97h-43q7 68 45 117q61 80 158 80q85 0 143 -52q59 -53 59 -130q0 -104 -104 -170z" />
<glyph unicode="&#xb4;" d="M796 1406l-325 -334l-25 18l140 316h210z" />
<glyph unicode="&#xb5;" d="M1012 129v-53l-207 -94q-7 -3 -14 -3q-29 0 -50.5 30t-31.5 80q-4 23 -4 83q-140 -200 -306 -200q-51 0 -102 27t-84 71q-23 33 -37 89q0 -103 7 -160q9 -64 43 -193q13 -47 13 -85q0 -41 -23 -69q-23 -29 -65 -29q-45 0 -72 35q-23 29 -23 72q0 34 32 230q50 300 51 665 v310h164v-584q0 -92 8 -125q15 -57 65 -87q45 -28 101 -28q78 0 148 51q32 24 77 82v691h164v-680q0 -83 14 -111q16 -33 59 -33q27 0 73 18z" />
<glyph unicode="&#xb6;" d="M462 652q-47 -25 -106 -25q-154 0 -236 99q-79 94 -79 262q0 251 168 345q47 27 146 31q34 1 109 1h509v-49l-30 -1q-79 -5 -108 -35q-34 -37 -35 -140v-1243q1 -103 35 -139q29 -31 108 -35l30 -2v-49h-288v1617h-108v-1617h-292v49l36 2q77 3 107 35q33 35 34 139v755z " />
<glyph unicode="&#xb7;" horiz-adv-x="488" d="M245 613q42 0 73 -30q33 -31 33 -77q0 -43 -30 -74q-31 -33 -76 -33q-44 0 -76 31q-32 32 -32 77q0 44 31 75t77 31z" />
<glyph unicode="&#xb8;" d="M606 0l-76 -107q17 1 29 1q57 0 89 -39q22 -26 22 -68q0 -103 -109 -151q-59 -26 -142 -26q-63 0 -104 14l9 46q32 -10 73 -10q66 0 100 24q36 25 36 69q0 27 -22 46t-58 19q-24 0 -53 -12l129 194h77z" />
<glyph unicode="&#xb9;" horiz-adv-x="679" d="M428 1402v-684q1 -91 44 -110q28 -15 110 -20v-42h-439v42q83 3 118 22q44 23 45 99v471q0 27 -3 41q-7 32 -53 32q-32 0 -119 -28v49q173 48 297 128z" />
<glyph unicode="&#xba;" horiz-adv-x="694" d="M361 1124q127 0 204 -99q63 -82 63 -193q0 -120 -73 -205q-84 -97 -214 -97q-107 0 -183 69q-93 85 -93 219q0 120 71 204q41 49 106 77q58 25 119 25zM337 1066q-68 0 -110 -68q-39 -64 -39 -157q0 -116 53 -192q43 -61 111 -61q73 0 114 68q39 66 39 156q0 98 -39 170 q-45 84 -129 84z" />
<glyph unicode="&#xbb;" horiz-adv-x="997" d="M503 504l-361 -449h-60l233 449l-233 447h60zM929 504l-357 -449h-60l230 449l-230 447h60z" />
<glyph unicode="&#xbc;" horiz-adv-x="1606" d="M428 1402v-684q1 -91 44 -110q28 -15 110 -20v-42h-439v42q83 3 118 22q44 23 45 99v471q0 27 -3 41q-7 32 -53 32q-32 0 -119 -28v49q173 48 297 128zM1183 1365l-661 -1365h-100l662 1365h99zM1547 316v-101h-115v-215h-115v215h-325v114l374 508h66v-521h115z M1317 316v344l-253 -344h253z" />
<glyph unicode="&#xbd;" horiz-adv-x="1606" d="M428 1402v-684q1 -91 44 -110q28 -15 110 -20v-42h-439v42q83 3 118 22q44 23 45 99v471q0 27 -3 41q-7 32 -53 32q-32 0 -119 -28v49q173 48 297 128zM1183 1365l-661 -1365h-100l662 1365h99zM1524 159l-66 -159h-476v39q109 91 221 219q154 175 154 308q0 74 -49 120 q-44 41 -107 41q-116 0 -148 -129h-44q8 76 40 129q64 109 197 109q98 0 165 -66t67 -171q0 -107 -91 -234q-61 -84 -184 -207l-57 -57h211q66 1 93 21q17 13 29 37h45z" />
<glyph unicode="&#xbe;" horiz-adv-x="1607" d="M419 1029q49 -28 77 -52q68 -60 68 -159q0 -109 -93 -197q-96 -91 -226 -91q-72 0 -122 34q-35 24 -35 57q0 25 19 42q20 17 46 17q28 0 75 -35q50 -37 82 -37q51 0 91 40q47 46 47 119q0 109 -93 157q-42 21 -131 22v42q73 1 123 41q63 51 63 128q0 55 -28 85 q-35 39 -94 39q-99 0 -127 -97h-43q7 68 45 117q61 80 158 80q85 0 143 -52q59 -53 59 -130q0 -104 -104 -170zM1183 1365l-661 -1365h-99l661 1365h99zM1548 316v-101h-116v-215h-115v215h-325v114l374 508h66v-521h116zM1317 316v344l-253 -344h253z" />
<glyph unicode="&#xbf;" horiz-adv-x="801" d="M399 549h55l-1 -25q-5 -118 -18 -179q-19 -77 -67 -166q-54 -97 -73 -147q-33 -86 -33 -166q0 -107 43 -185q49 -89 145 -89q66 0 111 39q41 36 41 82q0 34 -41 98q-24 37 -24 66q0 30 21 51q24 24 60 24q46 0 75 -40q28 -38 28 -97q0 -136 -115 -225q-83 -65 -191 -65 q-151 0 -243 97q-83 87 -83 225q0 115 69 223q36 56 114 151q79 95 98 133q30 61 30 156q0 12 -1 39zM419 941q47 0 82 -34t35 -84q0 -48 -33 -81q-35 -35 -84 -35q-47 0 -81 33q-36 35 -36 84q0 48 33 82q34 35 84 35z" />
<glyph unicode="&#xc0;" horiz-adv-x="1383" d="M697 1409l498 -1167q62 -133 95 -152q45 -34 127 -37v-53h-564v53l18 1q73 3 98 14q34 16 34 60q0 27 -23 80l-99 238h-488l-89 -212q-31 -75 -31 -107q0 -64 77 -69q61 -4 71 -5v-53h-455v53q92 1 143 39q54 37 109 167zM637 1031l-214 -513h426zM592 1747l164 -237 l-25 -22l-404 259h265z" />
<glyph unicode="&#xc1;" horiz-adv-x="1383" d="M697 1409l498 -1167q62 -133 95 -152q45 -34 127 -37v-53h-564v53l18 1q73 3 98 14q34 16 34 60q0 27 -23 80l-99 238h-488l-89 -212q-31 -75 -31 -107q0 -64 77 -69q61 -4 71 -5v-53h-455v53q92 1 143 39q54 37 109 167zM637 1031l-214 -513h426zM792 1747h264 l-404 -259l-25 22z" />
<glyph unicode="&#xc2;" horiz-adv-x="1383" d="M697 1409l498 -1167q62 -133 95 -152q45 -34 127 -37v-53h-564v53l18 1q73 3 98 14q34 16 34 60q0 27 -23 80l-99 238h-488l-89 -212q-31 -75 -31 -107q0 -64 77 -69q61 -4 71 -5v-53h-455v53q92 1 143 39q54 37 109 167zM637 1031l-214 -513h426zM592 1746h199l203 -229 l-35 -28l-271 147l-268 -148l-31 31z" />
<glyph unicode="&#xc3;" horiz-adv-x="1383" d="M697 1409l498 -1167q62 -133 95 -152q45 -34 127 -37v-53h-564v53l18 1q73 3 98 14q34 16 34 60q0 27 -23 80l-99 238h-488l-89 -212q-31 -75 -31 -107q0 -64 77 -69q61 -4 71 -5v-53h-455v53q92 1 143 39q54 37 109 167zM637 1031l-214 -513h426zM1020 1705 q-34 -68 -76 -116q-67 -79 -119 -79q-18 0 -55 12l-72 23q-126 40 -165 40q-78 0 -130 -89l-39 24q37 65 68 102q83 96 142 96q22 0 78 -19l70 -24q80 -27 119 -27q83 0 140 83z" />
<glyph unicode="&#xc4;" horiz-adv-x="1383" d="M697 1409l498 -1167q62 -133 95 -152q45 -34 127 -37v-53h-564v53l18 1q73 3 98 14q34 16 34 60q0 27 -23 80l-99 238h-488l-89 -212q-31 -75 -31 -107q0 -64 77 -69q61 -4 71 -5v-53h-455v53q92 1 143 39q54 37 109 167zM637 1031l-214 -513h426zM917 1726q45 0 78 -33 q32 -34 32 -79q0 -46 -32 -79t-79 -33q-46 0 -79 32q-34 32 -34 80q0 47 33 79q34 33 81 33zM469 1725q44 0 76 -32q34 -33 34 -80q0 -45 -31 -78q-33 -33 -80 -33q-45 0 -77 31q-35 33 -35 81q0 46 32 78q33 33 81 33z" />
<glyph unicode="&#xc5;" horiz-adv-x="1383" d="M697 1409l498 -1167q62 -133 95 -152q45 -34 127 -37v-53h-564v53l18 1q73 3 98 14q34 16 34 60q0 27 -23 80l-99 238h-488l-89 -212q-31 -75 -31 -107q0 -64 77 -69q61 -4 71 -5v-53h-455v53q92 1 143 39q54 37 109 167zM637 1031l-214 -513h426zM696 1815q70 0 121 -51 q56 -55 56 -132q0 -72 -50 -124q-53 -55 -131 -55q-71 0 -123 47q-59 53 -59 132q0 73 49 124q55 59 137 59zM690 1741q-44 0 -74 -34q-27 -32 -27 -74q0 -47 33 -78q30 -28 69 -28q45 0 75 34q28 31 28 72q0 47 -33 79q-30 29 -71 29z" />
<glyph unicode="&#xc6;" horiz-adv-x="1861" d="M544 1365h1133l21 -329h-55q-16 123 -74 183q-47 49 -129 58q-81 1 -134 2l-65 1h-198v-517h206q99 0 144 5t71 20q65 38 71 176h49v-482h-50q-5 74 -20 115q-14 37 -46 55t-94 22q-55 4 -126 4h-205v-433q1 -125 21 -142q18 -18 128 -18h162q110 0 165.5 11t100.5 42 q40 27 65.5 60t54.5 94q13 28 32 74l48 -15l-108 -351h-1072v53l19 1q88 2 130 39q34 30 44 84q5 26 5 110v254h-372l-151 -303q-25 -50 -36 -75t-11 -50q0 -58 105 -58h49v-55h-456v55h29q82 0 125 36q36 28 66 86l56 112l28 55l375 746q63 130 63 163q0 61 -92 61h-72v51z M838 1286l-335 -673h335v673z" />
<glyph unicode="&#xc7;" horiz-adv-x="1313" d="M787 -19l-68 -95q32 8 48 8q33 0 60 -19q47 -33 47 -90q0 -35 -19.5 -69.5t-50.5 -55.5q-77 -52 -196 -52q-48 0 -113 13l7 49q64 -11 97 -11q40 0 73 16q46 22 46 70q0 39 -41 59q-22 10 -48 10q-18 0 -49 -7l123 173q-250 14 -424 195q-188 195 -188 487q0 151 50 290 q75 209 261 328q164 106 343 106q134 0 287 -63q47 -20 67 -20q31 0 45 25q7 14 13 54h51q-1 -38 -1 -67q0 -226 33 -382l-53 -9q-26 116 -83 208q-107 173 -313 173q-200 0 -330 -165q-137 -173 -137 -445q0 -192 68 -343q63 -137 178 -208q102 -62 226 -62q279 0 420 275 l57 -34q-79 -154 -201.5 -240.5t-284.5 -101.5z" />
<glyph unicode="&#xc8;" horiz-adv-x="1288" d="M1102 1365l21 -330h-53q-13 115 -71 178q-54 63 -213 67h-315v-517h269q81 0 123.5 13t64.5 45q31 46 33 143h51v-483h-51q-3 114 -45 155q-27 28 -80 37q-33 5 -96 5h-269v-491q0 -68 21 -87q20 -15 93 -15h229q103 0 165 19q114 38 175 158q23 45 43 102l50 -14 l-108 -350h-1071v53l19 1q88 2 130 39q34 30 44 84q5 26 5 110v791q-1 107 -14 142q-32 87 -165 91l-19 1v53h1034zM585 1747l164 -237l-25 -22l-404 259h265z" />
<glyph unicode="&#xc9;" horiz-adv-x="1288" d="M1102 1365l21 -330h-53q-13 115 -71 178q-54 63 -213 67h-315v-517h269q81 0 123.5 13t64.5 45q31 46 33 143h51v-483h-51q-3 114 -45 155q-27 28 -80 37q-33 5 -96 5h-269v-491q0 -68 21 -87q20 -15 93 -15h229q103 0 165 19q114 38 175 158q23 45 43 102l50 -14 l-108 -350h-1071v53l19 1q88 2 130 39q34 30 44 84q5 26 5 110v791q-1 107 -14 142q-32 87 -165 91l-19 1v53h1034zM703 1747h264l-404 -259l-25 22z" />
<glyph unicode="&#xca;" horiz-adv-x="1288" d="M1102 1365l21 -330h-53q-13 115 -71 178q-54 63 -213 67h-315v-517h269q81 0 123.5 13t64.5 45q31 46 33 143h51v-483h-51q-3 114 -45 155q-27 28 -80 37q-33 5 -96 5h-269v-491q0 -68 21 -87q20 -15 93 -15h229q103 0 165 19q114 38 175 158q23 45 43 102l50 -14 l-108 -350h-1071v53l19 1q88 2 130 39q34 30 44 84q5 26 5 110v791q-1 107 -14 142q-32 87 -165 91l-19 1v53h1034zM544 1746h199l203 -229l-35 -28l-271 147l-268 -148l-31 31z" />
<glyph unicode="&#xcb;" horiz-adv-x="1288" d="M1102 1365l21 -330h-53q-13 115 -71 178q-54 63 -213 67h-315v-517h269q81 0 123.5 13t64.5 45q31 46 33 143h51v-483h-51q-3 114 -45 155q-27 28 -80 37q-33 5 -96 5h-269v-491q0 -68 21 -87q20 -15 93 -15h229q103 0 165 19q114 38 175 158q23 45 43 102l50 -14 l-108 -350h-1071v53l19 1q88 2 130 39q34 30 44 84q5 26 5 110v791q-1 107 -14 142q-32 87 -165 91l-19 1v53h1034zM869 1726q45 0 78 -33q32 -34 32 -79q0 -46 -32 -79t-79 -33q-46 0 -79 32q-34 32 -34 80q0 47 33 79q34 33 81 33zM421 1725q44 0 76 -32q34 -33 34 -80 q0 -45 -31 -78q-33 -33 -80 -33q-45 0 -77 31q-35 33 -35 81q0 46 32 78q33 33 81 33z" />
<glyph unicode="&#xcc;" horiz-adv-x="737" d="M471 1078v-791q1 -107 14 -142q32 -87 165 -91l19 -1v-53h-601v53l19 1q88 2 130 39q34 30 44 84q5 26 5 110v791q-1 107 -14 142q-32 87 -165 91l-19 1v53h601v-53l-19 -1q-88 -2 -130 -39q-34 -30 -44 -84q-5 -26 -5 -110zM310 1747l164 -237l-25 -22l-404 259h265z " />
<glyph unicode="&#xcd;" horiz-adv-x="737" d="M471 1078v-791q1 -107 14 -142q32 -87 165 -91l19 -1v-53h-601v53l19 1q88 2 130 39q34 30 44 84q5 26 5 110v791q-1 107 -14 142q-32 87 -165 91l-19 1v53h601v-53l-19 -1q-88 -2 -130 -39q-34 -30 -44 -84q-5 -26 -5 -110zM428 1747h264l-404 -259l-25 22z" />
<glyph unicode="&#xce;" horiz-adv-x="737" d="M471 1078v-791q1 -107 14 -142q32 -87 165 -91l19 -1v-53h-601v53l19 1q88 2 130 39q34 30 44 84q5 26 5 110v791q-1 107 -14 142q-32 87 -165 91l-19 1v53h601v-53l-19 -1q-88 -2 -130 -39q-34 -30 -44 -84q-5 -26 -5 -110zM269 1746h199l203 -229l-35 -28l-271 147 l-268 -148l-31 31z" />
<glyph unicode="&#xcf;" horiz-adv-x="737" d="M471 1078v-791q1 -107 14 -142q32 -87 165 -91l19 -1v-53h-601v53l19 1q88 2 130 39q34 30 44 84q5 26 5 110v791q-1 107 -14 142q-32 87 -165 91l-19 1v53h601v-53l-19 -1q-88 -2 -130 -39q-34 -30 -44 -84q-5 -26 -5 -110zM560 1726q45 0 78 -33q32 -34 32 -79 q0 -46 -32 -79t-79 -33q-46 0 -79 32q-34 32 -34 80q0 47 33 79q34 33 81 33zM180 1725q44 0 76 -32q34 -33 34 -80q0 -45 -31 -78q-33 -33 -80 -33q-45 0 -77 31q-35 33 -35 81q0 46 32 78q33 33 81 33z" />
<glyph unicode="&#xd0;" horiz-adv-x="1539" d="M266 659h-190v74h190v345q-1 107 -14 142q-32 87 -165 91l-19 1v53h504q245 0 343 -17q258 -44 393 -217q138 -177 138 -427q0 -416 -337 -601q-140 -77 -296 -94q-81 -9 -179 -9h-566v53l19 1q88 2 130 39q34 30 44 84q5 26 5 110v372zM471 1259v-526h419v-74h-419v-548 q95 -30 201 -30q148 0 268 71q144 83 214 242q60 134 60 296q0 193 -85 348q-89 161 -263 218q-96 31 -201 31q-106 0 -194 -28z" />
<glyph unicode="&#xd1;" horiz-adv-x="1532" d="M1279 -16l-930 1106v-803q0 -107 14 -142q32 -87 165 -91l19 -1v-53h-485v53l19 1q88 2 130 39q34 30 44 84q5 26 5 110v908q-62 76 -143 104q-44 14 -121 14v52h400l794 -936v649q-1 107 -14 142q-32 87 -165 91l-19 1v53h485v-53l-19 -1q-88 -2 -130 -39 q-34 -30 -44 -84q-5 -26 -5 -110v-1094zM1094 1705q-34 -68 -76 -116q-67 -79 -119 -79q-18 0 -55 12l-72 23q-126 40 -165 40q-78 0 -130 -89l-39 24q37 65 68 102q83 96 142 96q22 0 78 -19l70 -24q80 -27 119 -27q83 0 140 83z" />
<glyph unicode="&#xd2;" horiz-adv-x="1465" d="M751 1385q169 0 324 -100q297 -192 297 -593q0 -321 -192 -518q-91 -94 -210 -144.5t-247 -50.5q-195 0 -355 111q-166 115 -234 312q-42 122 -42 269q0 328 190 517q95 95 217 146t252 51zM737 1303q-123 0 -226 -87q-97 -83 -147 -251q-39 -133 -39 -286 q0 -256 103 -436q49 -86 129 -134t175 -48q131 0 231 91q100 90 147 271q30 117 30 253q0 268 -98 444q-102 183 -305 183zM674 1747l164 -237l-25 -22l-404 259h265z" />
<glyph unicode="&#xd3;" horiz-adv-x="1465" d="M751 1385q169 0 324 -100q297 -192 297 -593q0 -321 -192 -518q-91 -94 -210 -144.5t-247 -50.5q-195 0 -355 111q-166 115 -234 312q-42 122 -42 269q0 328 190 517q95 95 217 146t252 51zM737 1303q-123 0 -226 -87q-97 -83 -147 -251q-39 -133 -39 -286 q0 -256 103 -436q49 -86 129 -134t175 -48q131 0 231 91q100 90 147 271q30 117 30 253q0 268 -98 444q-102 183 -305 183zM792 1747h264l-404 -259l-25 22z" />
<glyph unicode="&#xd4;" horiz-adv-x="1465" d="M751 1385q169 0 324 -100q297 -192 297 -593q0 -321 -192 -518q-91 -94 -210 -144.5t-247 -50.5q-195 0 -355 111q-166 115 -234 312q-42 122 -42 269q0 328 190 517q95 95 217 146t252 51zM737 1303q-123 0 -226 -87q-97 -83 -147 -251q-39 -133 -39 -286 q0 -256 103 -436q49 -86 129 -134t175 -48q131 0 231 91q100 90 147 271q30 117 30 253q0 268 -98 444q-102 183 -305 183zM633 1746h199l203 -229l-35 -28l-271 147l-268 -148l-31 31z" />
<glyph unicode="&#xd5;" horiz-adv-x="1465" d="M751 1385q169 0 324 -100q297 -192 297 -593q0 -321 -192 -518q-91 -94 -210 -144.5t-247 -50.5q-195 0 -355 111q-166 115 -234 312q-42 122 -42 269q0 328 190 517q95 95 217 146t252 51zM737 1303q-123 0 -226 -87q-97 -83 -147 -251q-39 -133 -39 -286 q0 -256 103 -436q49 -86 129 -134t175 -48q131 0 231 91q100 90 147 271q30 117 30 253q0 268 -98 444q-102 183 -305 183zM1061 1705q-34 -68 -76 -116q-67 -79 -119 -79q-18 0 -55 12l-72 23q-126 40 -165 40q-78 0 -130 -89l-39 24q37 65 68 102q83 96 142 96 q22 0 78 -19l70 -24q80 -27 119 -27q83 0 140 83z" />
<glyph unicode="&#xd6;" horiz-adv-x="1465" d="M751 1385q169 0 324 -100q297 -192 297 -593q0 -321 -192 -518q-91 -94 -210 -144.5t-247 -50.5q-195 0 -355 111q-166 115 -234 312q-42 122 -42 269q0 328 190 517q95 95 217 146t252 51zM737 1303q-123 0 -226 -87q-97 -83 -147 -251q-39 -133 -39 -286 q0 -256 103 -436q49 -86 129 -134t175 -48q131 0 231 91q100 90 147 271q30 117 30 253q0 268 -98 444q-102 183 -305 183zM958 1726q45 0 78 -33q32 -34 32 -79q0 -46 -32 -79t-79 -33q-46 0 -79 32q-34 32 -34 80q0 47 33 79q34 33 81 33zM510 1725q44 0 76 -32 q34 -33 34 -80q0 -45 -31 -78q-33 -33 -80 -33q-45 0 -77 31q-35 33 -35 81q0 46 32 78q33 33 81 33z" />
<glyph unicode="&#xd7;" d="M512 615l-270 -270l-68 67l270 271l-270 270l68 68l270 -271l270 271l68 -68l-270 -270l270 -271l-68 -67z" />
<glyph unicode="&#xd8;" horiz-adv-x="1462" d="M1251 1378l60 -49l-119 -145q178 -190 178 -495q0 -320 -191 -516q-91 -93 -210.5 -143.5t-247.5 -50.5q-238 0 -412 154l-122 -144l-58 49l126 149q-68 87 -104 169q-59 137 -59 312q0 326 189 520q92 94 222 147q120 50 239 50q225 0 393 -148zM1038 1120 q-108 183 -298 183q-130 0 -232 -88q-95 -83 -144 -253q-39 -133 -39 -287q0 -172 54 -338zM1075 1044l-661 -785q108 -198 313 -198q134 0 234 90t147 267q30 116 30 252q0 223 -63 374z" />
<glyph unicode="&#xd9;" horiz-adv-x="1500" d="M1270 1078v-566q0 -170 -31 -252q-55 -145 -200 -217q-126 -63 -277 -63q-259 0 -410 151q-85 86 -105 201q-8 49 -8 180v566q-1 107 -14 142q-32 87 -165 91l-19 1v53h601v-53l-19 -1q-88 -2 -130 -39q-34 -30 -44 -84q-5 -26 -5 -110v-566q0 -134 14 -195 q26 -119 117 -184q100 -72 229 -72q111 0 203 54q112 66 147 186q16 56 16 219v558q-1 107 -14 142q-32 87 -165 91l-19 1v53h496v-53l-19 -1q-88 -2 -130 -39q-34 -30 -44 -84q-5 -26 -5 -110zM732 1747l164 -237l-25 -22l-404 259h265z" />
<glyph unicode="&#xda;" horiz-adv-x="1500" d="M1270 1078v-566q0 -170 -31 -252q-55 -145 -200 -217q-126 -63 -277 -63q-259 0 -410 151q-85 86 -105 201q-8 49 -8 180v566q-1 107 -14 142q-32 87 -165 91l-19 1v53h601v-53l-19 -1q-88 -2 -130 -39q-34 -30 -44 -84q-5 -26 -5 -110v-566q0 -134 14 -195 q26 -119 117 -184q100 -72 229 -72q111 0 203 54q112 66 147 186q16 56 16 219v558q-1 107 -14 142q-32 87 -165 91l-19 1v53h496v-53l-19 -1q-88 -2 -130 -39q-34 -30 -44 -84q-5 -26 -5 -110zM851 1747h264l-404 -259l-25 22z" />
<glyph unicode="&#xdb;" horiz-adv-x="1500" d="M1270 1078v-566q0 -170 -31 -252q-55 -145 -200 -217q-126 -63 -277 -63q-259 0 -410 151q-85 86 -105 201q-8 49 -8 180v566q-1 107 -14 142q-32 87 -165 91l-19 1v53h601v-53l-19 -1q-88 -2 -130 -39q-34 -30 -44 -84q-5 -26 -5 -110v-566q0 -134 14 -195 q26 -119 117 -184q100 -72 229 -72q111 0 203 54q112 66 147 186q16 56 16 219v558q-1 107 -14 142q-32 87 -165 91l-19 1v53h496v-53l-19 -1q-88 -2 -130 -39q-34 -30 -44 -84q-5 -26 -5 -110zM691 1746h199l203 -229l-35 -28l-271 147l-268 -148l-31 31z" />
<glyph unicode="&#xdc;" horiz-adv-x="1500" d="M1270 1078v-566q0 -170 -31 -252q-55 -145 -200 -217q-126 -63 -277 -63q-259 0 -410 151q-85 86 -105 201q-8 49 -8 180v566q-1 107 -14 142q-32 87 -165 91l-19 1v53h601v-53l-19 -1q-88 -2 -130 -39q-34 -30 -44 -84q-5 -26 -5 -110v-566q0 -134 14 -195 q26 -119 117 -184q100 -72 229 -72q111 0 203 54q112 66 147 186q16 56 16 219v558q-1 107 -14 142q-32 87 -165 91l-19 1v53h496v-53l-19 -1q-88 -2 -130 -39q-34 -30 -44 -84q-5 -26 -5 -110zM1017 1726q45 0 78 -33q32 -33 32 -79t-32 -79t-79 -33q-46 0 -79 32 q-34 33 -34 80t33 79q34 33 81 33zM569 1725q44 0 76 -32q34 -33 34 -80q0 -45 -31 -78q-33 -33 -80 -33q-45 0 -77 31q-35 33 -35 81q0 46 32 78q33 33 81 33z" />
<glyph unicode="&#xdd;" horiz-adv-x="1334" d="M1365 1365v-53q-99 -2 -151 -35q-51 -34 -127 -159l-317 -527v-304q1 -107 14 -142q32 -87 165 -91l19 -1v-53h-601v53l19 1q88 2 130 39q34 30 44 84q5 26 5 110v302l-344 563q-60 97 -90 121q-50 40 -142 40q-11 0 -34 -1v53h607v-53q-21 -1 -27 -1q-61 -2 -81 -11 q-35 -17 -35 -56q0 -30 15 -56q3 -5 33 -53l265 -426l264 434q44 71 44 110q0 42 -52 52q-28 6 -81 7v53h458zM781 1747h264l-404 -259l-25 22z" />
<glyph unicode="&#xde;" horiz-adv-x="1132" d="M669 1365v-53h-19q-91 -3 -130 -40q-47 -43 -49 -150h68q212 0 324 -45q108 -43 169 -136q52 -78 52 -177q0 -144 -110 -237q-102 -87 -257 -105q-80 -9 -246 -11q-3 -78 -3 -120q0 -97 17 -145q33 -92 165 -92h19v-54h-601v53l19 1q88 2 130 39q34 30 44 84q5 26 5 110 v791q-1 107 -14 142q-32 87 -165 91l-19 1v53h601zM471 487q150 2 240 52q141 77 141 231t-141 231q-90 49 -240 52v-566z" />
<glyph unicode="&#xdf;" horiz-adv-x="1064" d="M685 797q106 -41 160 -91q131 -117 131 -314q0 -178 -113 -306q-93 -105 -217 -105q-86 0 -142 49q-54 48 -54 114q0 40 26 69q28 33 68 33q34 0 55 -25q19 -22 19 -60q0 -17 -9 -48q-3 -10 -3 -20q0 -47 52 -47q40 0 71 39q66 83 66 249q0 151 -58 246q-76 126 -225 156 v73q102 8 146 51q68 66 68 181q0 80 -30 144q-51 110 -169 110q-133 0 -167 -139q-12 -49 -12 -154v-828q0 -109 89 -126v-48h-396v48q17 2 22 3q69 10 91 30q29 28 30 103v815q0 130 38 204q37 71 104 112q89 56 211 56q142 0 247 -71q115 -79 115 -230q0 -182 -214 -273z " />
<glyph unicode="&#xe0;" horiz-adv-x="954" d="M593 122q-135 -154 -274 -154q-99 0 -166 68q-64 63 -64 160q0 155 173 260q71 42 311 128l20 7v129q0 58 -20 100q-16 34 -52 54.5t-79 20.5q-76 0 -119 -54q-25 -31 -25 -65q0 -18 7 -49q5 -25 5 -41q0 -33 -24 -58t-60 -25q-39 0 -64 28t-25 68q0 90 81 167 q93 89 244 89q86 0 154 -30t104 -84q26 -39 33 -85q4 -27 4 -80v-476q0 -51 6 -68q14 -35 47 -35q45 0 94 58l36 -33q-42 -53 -70 -81q-74 -73 -157 -73q-53 0 -83.5 39t-36.5 115zM593 520q-103 -27 -206 -84q-136 -76 -136 -191q0 -68 50 -113q47 -42 110 -42q62 0 130 53 q40 30 47 60q5 21 5 49v268zM221 1406h210l140 -316l-25 -18z" />
<glyph unicode="&#xe1;" horiz-adv-x="954" d="M593 122q-135 -154 -274 -154q-99 0 -166 68q-64 63 -64 160q0 155 173 260q71 42 311 128l20 7v129q0 58 -20 100q-16 34 -52 54.5t-79 20.5q-76 0 -119 -54q-25 -31 -25 -65q0 -18 7 -49q5 -25 5 -41q0 -33 -24 -58t-60 -25q-39 0 -64 28t-25 68q0 90 81 167 q93 89 244 89q86 0 154 -30t104 -84q26 -39 33 -85q4 -27 4 -80v-476q0 -51 6 -68q14 -35 47 -35q45 0 94 58l36 -33q-42 -53 -70 -81q-74 -73 -157 -73q-53 0 -83.5 39t-36.5 115zM593 520q-103 -27 -206 -84q-136 -76 -136 -191q0 -68 50 -113q47 -42 110 -42q62 0 130 53 q40 30 47 60q5 21 5 49v268zM735 1406l-325 -334l-25 18l140 316h210z" />
<glyph unicode="&#xe2;" horiz-adv-x="954" d="M593 122q-135 -154 -274 -154q-99 0 -166 68q-64 63 -64 160q0 155 173 260q71 42 311 128l20 7v129q0 58 -20 100q-16 34 -52 54.5t-79 20.5q-76 0 -119 -54q-25 -31 -25 -65q0 -18 7 -49q5 -25 5 -41q0 -33 -24 -58t-60 -25q-39 0 -64 28t-25 68q0 90 81 167 q93 89 244 89q86 0 154 -30t104 -84q26 -39 33 -85q4 -27 4 -80v-476q0 -51 6 -68q14 -35 47 -35q45 0 94 58l36 -33q-42 -53 -70 -81q-74 -73 -157 -73q-53 0 -83.5 39t-36.5 115zM593 520q-103 -27 -206 -84q-136 -76 -136 -191q0 -68 50 -113q47 -42 110 -42q62 0 130 53 q40 30 47 60q5 21 5 49v268zM544 1390l208 -301l-35 -17l-241 205l-238 -205l-35 17l198 301h143z" />
<glyph unicode="&#xe3;" horiz-adv-x="954" d="M593 122q-135 -154 -274 -154q-99 0 -166 68q-64 63 -64 160q0 155 173 260q71 42 311 128l20 7v129q0 58 -20 100q-16 34 -52 54.5t-79 20.5q-76 0 -119 -54q-25 -31 -25 -65q0 -18 7 -49q5 -25 5 -41q0 -33 -24 -58t-60 -25q-39 0 -64 28t-25 68q0 90 81 167 q93 89 244 89q86 0 154 -30t104 -84q26 -39 33 -85q4 -27 4 -80v-476q0 -51 6 -68q14 -35 47 -35q45 0 94 58l36 -33q-42 -53 -70 -81q-74 -73 -157 -73q-53 0 -83.5 39t-36.5 115zM593 520q-103 -27 -206 -84q-136 -76 -136 -191q0 -68 50 -113q47 -42 110 -42q62 0 130 53 q40 30 47 60q5 21 5 49v268zM784 1327q-98 -193 -190 -193q-44 0 -151 42q-93 36 -122 36q-67 0 -119 -94l-32 21q21 46 67 105q70 89 142 89q36 0 102 -31q93 -44 141 -44q78 0 128 91z" />
<glyph unicode="&#xe4;" horiz-adv-x="954" d="M593 122q-135 -154 -274 -154q-99 0 -166 68q-64 63 -64 160q0 155 173 260q71 42 311 128l20 7v129q0 58 -20 100q-16 34 -52 54.5t-79 20.5q-76 0 -119 -54q-25 -31 -25 -65q0 -18 7 -49q5 -25 5 -41q0 -33 -24 -58t-60 -25q-39 0 -64 28t-25 68q0 90 81 167 q93 89 244 89q86 0 154 -30t104 -84q26 -39 33 -85q4 -27 4 -80v-476q0 -51 6 -68q14 -35 47 -35q45 0 94 58l36 -33q-42 -53 -70 -81q-74 -73 -157 -73q-53 0 -83.5 39t-36.5 115zM593 520q-103 -27 -206 -84q-136 -76 -136 -191q0 -68 50 -113q47 -42 110 -42q62 0 130 53 q40 30 47 60q5 21 5 49v268zM662 1335q42 0 72 -30q31 -30 31 -74q0 -42 -29 -73q-30 -32 -75 -32q-43 0 -73 29q-32 31 -32 76q0 43 31 73q31 31 75 31zM297 1336q40 0 70 -28q34 -31 34 -77q0 -41 -28 -72q-30 -33 -76 -33q-43 0 -73 29q-33 31 -33 77q0 41 28 71 q31 33 78 33z" />
<glyph unicode="&#xe5;" horiz-adv-x="954" d="M593 122q-135 -154 -274 -154q-99 0 -166 68q-64 63 -64 160q0 155 173 260q71 42 311 128l20 7v129q0 58 -20 100q-16 34 -52 54.5t-79 20.5q-76 0 -119 -54q-25 -31 -25 -65q0 -18 7 -49q5 -25 5 -41q0 -33 -24 -58t-60 -25q-39 0 -64 28t-25 68q0 90 81 167 q93 89 244 89q86 0 154 -30t104 -84q26 -39 33 -85q4 -27 4 -80v-476q0 -51 6 -68q14 -35 47 -35q45 0 94 58l36 -33q-42 -53 -70 -81q-74 -73 -157 -73q-53 0 -83.5 39t-36.5 115zM593 520q-103 -27 -206 -84q-136 -76 -136 -191q0 -68 50 -113q47 -42 110 -42q62 0 130 53 q40 30 47 60q5 21 5 49v268zM480 1424q70 0 121 -52q52 -53 52 -127q0 -70 -50 -122q-51 -52 -125 -52q-72 0 -123 49q-54 52 -54 127q0 73 50 123q53 54 129 54zM476 1355q-42 0 -72 -33q-28 -32 -28 -75q0 -47 32 -78q29 -29 69 -29q44 0 73 33q28 31 28 74q0 45 -30 77 q-29 31 -72 31z" />
<glyph unicode="&#xe6;" horiz-adv-x="1449" d="M1318 362h54q-18 -124 -72 -210q-112 -179 -317 -179q-78 0 -151.5 30.5t-123.5 83.5q-25 26 -57 77q-172 -192 -335 -192q-87 0 -155 60q-73 65 -73 171q0 172 213 278q93 45 292 110q1 44 1 64q0 125 -21 169q-15 32 -50.5 51.5t-76.5 19.5q-45 0 -81 -19.5t-54 -53.5 q-11 -21 -11 -46q0 -15 8 -51q4 -20 4 -36q0 -33 -23 -58q-25 -27 -63 -27q-43 0 -68 33q-20 26 -20 61q0 111 108 191q91 67 218 67q105 0 184 -47q43 -26 88 -93q101 139 265 139q117 0 204 -75q125 -107 133 -327h-584q1 -166 32 -246q68 -173 247 -173q133 0 217 96 q41 48 68 132zM593 524q-135 -42 -217 -91q-126 -76 -126 -182q0 -85 66 -130q38 -26 82 -26q107 0 227 130q-33 94 -32 299zM760 629h385q-1 93 -35 147q-51 82 -144 82q-105 0 -168 -107q-29 -47 -38 -122z" />
<glyph unicode="&#xe7;" horiz-adv-x="880" d="M528 -21l-62 -86q17 1 30 1q56 0 88 -39q22 -26 22 -68q0 -103 -109 -151q-59 -26 -142 -26q-63 0 -104 14l9 46q32 -10 73 -10q65 0 100 24q36 26 36 69q0 27 -22 46t-58 19q-24 0 -53 -13l111 167q-136 7 -228 98q-62 61 -97 165q-35 102 -35 217q0 237 134 379 q117 125 298 125q98 0 177 -43q115 -62 115 -164q0 -45 -28 -71q-26 -24 -67 -24q-79 0 -92 96q-17 130 -146 130q-95 0 -154 -81q-76 -103 -76 -264t77 -276q39 -59 96.5 -93.5t115.5 -34.5q107 0 190 90q49 53 79 141l46 -13q-58 -200 -159 -288q-73 -63 -165 -82z" />
<glyph unicode="&#xe8;" horiz-adv-x="944" d="M221 554q1 -15 1 -31q1 -65 21 -137t51 -120q83 -128 237 -128q135 0 212 91q49 58 67 133h55q-27 -143 -78 -221q-52 -82 -134 -126q-79 -42 -169 -42q-83 0 -160.5 36.5t-128.5 99.5q-108 134 -108 353q0 234 133 381q102 112 265 112q211 0 302 -197q32 -68 39 -154 q1 -16 3 -50h-608zM224 629h413q-2 72 -20 116q-47 114 -167 114t-181 -98q-31 -50 -45 -132zM187 1406h210l140 -316l-25 -18z" />
<glyph unicode="&#xe9;" horiz-adv-x="944" d="M221 554q1 -15 1 -31q1 -65 21 -137t51 -120q83 -128 237 -128q135 0 212 91q49 58 67 133h55q-27 -143 -78 -221q-52 -82 -134 -126q-79 -42 -169 -42q-83 0 -160.5 36.5t-128.5 99.5q-108 134 -108 353q0 234 133 381q102 112 265 112q211 0 302 -197q32 -68 39 -154 q1 -16 3 -50h-608zM224 629h413q-2 72 -20 116q-47 114 -167 114t-181 -98q-31 -50 -45 -132zM756 1406l-325 -334l-25 18l140 316h210z" />
<glyph unicode="&#xea;" horiz-adv-x="944" d="M221 554q1 -15 1 -31q1 -65 21 -137t51 -120q83 -128 237 -128q135 0 212 91q49 58 67 133h55q-27 -143 -78 -221q-52 -82 -134 -126q-79 -42 -169 -42q-83 0 -160.5 36.5t-128.5 99.5q-108 134 -108 353q0 234 133 381q102 112 265 112q211 0 302 -197q32 -68 39 -154 q1 -16 3 -50h-608zM224 629h413q-2 72 -20 116q-47 114 -167 114t-181 -98q-31 -50 -45 -132zM538 1390l208 -301l-35 -17l-241 205l-238 -205l-35 17l198 301h143z" />
<glyph unicode="&#xeb;" horiz-adv-x="944" d="M221 554q1 -15 1 -31q1 -65 21 -137t51 -120q83 -128 237 -128q135 0 212 91q49 58 67 133h55q-27 -143 -78 -221q-52 -82 -134 -126q-79 -42 -169 -42q-83 0 -160.5 36.5t-128.5 99.5q-108 134 -108 353q0 234 133 381q102 112 265 112q211 0 302 -197q32 -68 39 -154 q1 -16 3 -50h-608zM224 629h413q-2 72 -20 116q-47 114 -167 114t-181 -98q-31 -50 -45 -132zM656 1335q42 0 72 -30q31 -30 31 -74q0 -42 -29 -73q-30 -32 -75 -32q-43 0 -73 29q-32 31 -32 76q0 43 31 73q31 31 75 31zM291 1336q40 0 70 -28q34 -31 34 -77q0 -41 -28 -72 q-30 -33 -76 -33q-43 0 -73 29q-33 31 -33 77q0 41 28 71q31 33 78 33z" />
<glyph unicode="&#xec;" horiz-adv-x="574" d="M376 975v-791q1 -96 54 -119q25 -11 89 -16l14 -1v-48h-478v48l14 1q72 6 97 21q45 24 46 114v502q0 106 -67 106q-23 0 -68 -16v49q49 17 156 68q100 49 143 82zM30 1406h210l140 -316l-25 -18z" />
<glyph unicode="&#xed;" horiz-adv-x="574" d="M376 975v-791q1 -96 54 -119q25 -11 89 -16l14 -1v-48h-478v48l14 1q72 6 97 21q45 24 46 114v502q0 106 -67 106q-23 0 -68 -16v49q49 17 156 68q100 49 143 82zM531 1406l-325 -334l-25 18l140 316h210z" />
<glyph unicode="&#xee;" horiz-adv-x="573" d="M376 975v-791q1 -96 54 -119q25 -11 89 -16l14 -1v-48h-478v48l14 1q72 6 97 21q45 24 46 114v502q0 106 -67 106q-23 0 -68 -16v49q49 17 156 68q100 49 143 82zM333 1390l208 -301l-35 -17l-241 205l-238 -205l-35 17l198 301h143z" />
<glyph unicode="&#xef;" horiz-adv-x="573" d="M375 975v-791q1 -96 54 -119q25 -11 89 -16l14 -1v-48h-478v48l14 1q72 6 97 21q45 24 46 114v502q0 106 -67 106q-23 0 -68 -16v49q49 17 156 68q100 49 143 82zM437 1335q41 0 71 -30q31 -30 31 -74q0 -42 -29 -73q-30 -32 -75 -32q-43 0 -73 29q-32 31 -32 76 q0 43 31 73q31 31 76 31zM140 1336q40 0 70 -28q34 -31 34 -77q0 -41 -28 -72q-30 -33 -76 -33q-43 0 -73 29q-33 31 -33 77q0 41 28 71q31 33 78 33z" />
<glyph unicode="&#xf0;" horiz-adv-x="1082" d="M294 1277l211 114q14 8 23 8q25 0 110 -48q39 -22 91 -69l143 84l34 -56l-129 -78q104 -137 148 -291q48 -167 48 -370q0 -189 -60 -332q-112 -267 -392 -267q-102 0 -189.5 42.5t-143.5 120.5q-91 125 -91 317q0 216 127 359q128 144 311 144q110 0 189 -57 q29 -21 68 -68q-34 194 -145 325l-164 -96l-33 57l149 88q-90 76 -149 76q-21 0 -70 -27l-57 -30zM545 880q-113 0 -190 -96q-84 -104 -84 -306q0 -195 67 -309q33 -56 86.5 -88.5t113.5 -32.5q146 0 217 159q51 112 51 260q0 161 -44 264q-63 149 -217 149z" />
<glyph unicode="&#xf1;" horiz-adv-x="1143" d="M376 968v-212q52 75 110 125q88 74 205 74q173 0 231 -150q23 -60 23 -185v-436q1 -96 54 -119q25 -11 89 -16l14 -1v-48h-478v48l14 1q72 6 97 21q45 24 46 114v465q0 70 -35 115q-43 54 -133 54q-80 0 -142 -40q-49 -32 -95 -103v-491q1 -96 54 -119q25 -11 89 -16 l14 -1v-48h-478v48l14 1q72 6 97 21q45 24 46 114v501q0 55 -11 77q-17 34 -58 34q-25 0 -77 -13v50q47 9 165 61q68 30 145 74zM879 1327q-98 -193 -190 -193q-44 0 -151 42q-93 36 -122 36q-67 0 -119 -94l-32 21q21 46 67 105q70 89 142 89q36 0 102 -31q93 -44 141 -44 q78 0 128 91z" />
<glyph unicode="&#xf2;" horiz-adv-x="1047" d="M547 956q93 0 176 -43.5t139 -120.5q98 -136 98 -319q0 -198 -114 -339q-61 -75 -148 -118q-88 -43 -183 -43q-166 0 -284 115q-144 139 -144 360q0 200 109 338q64 82 165 128q91 42 186 42zM508 881q-54 0 -102.5 -32t-80.5 -88q-64 -112 -64 -273q0 -199 86 -332 q70 -108 185 -108q58 0 108.5 32.5t81.5 88.5q64 116 64 272q0 167 -63 292q-75 148 -215 148zM239 1406h210l140 -316l-25 -18z" />
<glyph unicode="&#xf3;" horiz-adv-x="1047" d="M547 956q93 0 176 -43.5t139 -120.5q98 -136 98 -319q0 -198 -114 -339q-61 -75 -148 -118q-88 -43 -183 -43q-166 0 -284 115q-144 139 -144 360q0 200 109 338q64 82 165 128q91 42 186 42zM508 881q-54 0 -102.5 -32t-80.5 -88q-64 -112 -64 -273q0 -199 86 -332 q70 -108 185 -108q58 0 108.5 32.5t81.5 88.5q64 116 64 272q0 167 -63 292q-75 148 -215 148zM808 1406l-325 -334l-25 18l140 316h210z" />
<glyph unicode="&#xf4;" horiz-adv-x="1047" d="M547 956q93 0 176 -43.5t139 -120.5q98 -136 98 -319q0 -198 -114 -339q-61 -75 -148 -118q-88 -43 -183 -43q-166 0 -284 115q-144 139 -144 360q0 200 109 338q64 82 165 128q91 42 186 42zM508 881q-54 0 -102.5 -32t-80.5 -88q-64 -112 -64 -273q0 -199 86 -332 q70 -108 185 -108q58 0 108.5 32.5t81.5 88.5q64 116 64 272q0 167 -63 292q-75 148 -215 148zM590 1390l208 -301l-35 -17l-241 205l-238 -205l-35 17l198 301h143z" />
<glyph unicode="&#xf5;" horiz-adv-x="1047" d="M547 956q93 0 176 -43.5t139 -120.5q98 -136 98 -319q0 -198 -114 -339q-61 -75 -148 -118q-88 -43 -183 -43q-166 0 -284 115q-144 139 -144 360q0 200 109 338q64 82 165 128q91 42 186 42zM508 881q-54 0 -102.5 -32t-80.5 -88q-64 -112 -64 -273q0 -199 86 -332 q70 -108 185 -108q58 0 108.5 32.5t81.5 88.5q64 116 64 272q0 167 -63 292q-75 148 -215 148zM830 1327q-98 -193 -190 -193q-44 0 -151 42q-93 36 -122 36q-67 0 -119 -94l-32 21q21 46 67 105q70 89 142 89q36 0 102 -31q93 -44 141 -44q78 0 128 91z" />
<glyph unicode="&#xf6;" horiz-adv-x="1047" d="M547 956q93 0 176 -43.5t139 -120.5q98 -136 98 -319q0 -198 -114 -339q-61 -75 -148 -118q-88 -43 -183 -43q-166 0 -284 115q-144 139 -144 360q0 200 109 338q64 82 165 128q91 42 186 42zM508 881q-54 0 -102.5 -32t-80.5 -88q-64 -112 -64 -273q0 -199 86 -332 q70 -108 185 -108q58 0 108.5 32.5t81.5 88.5q64 116 64 272q0 167 -63 292q-75 148 -215 148zM708 1335q42 0 72 -30q31 -30 31 -74q0 -42 -29 -73q-30 -32 -75 -32q-43 0 -73 29q-32 31 -32 76q0 43 31 73q31 31 75 31zM343 1336q40 0 70 -28q34 -31 34 -77q0 -41 -28 -72 q-30 -33 -76 -33q-43 0 -73 29q-33 31 -33 77q0 41 28 71q31 33 78 33z" />
<glyph unicode="&#xf7;" d="M514 471q38 0 66 -27q29 -29 29 -70q0 -37 -27 -66t-68 -29q-40 0 -68 28q-29 28 -29 69q0 39 27 67q29 28 70 28zM514 1086q38 0 66 -27q29 -28 29 -70q0 -38 -27 -66q-27 -29 -68 -29q-40 0 -68 27q-29 29 -29 70q0 39 27 67q29 28 70 28zM123 634v96h778v-96h-778z " />
<glyph unicode="&#xf8;" horiz-adv-x="1047" d="M843 816q116 -146 116 -343q0 -202 -115 -339q-60 -72 -147 -115q-93 -46 -186 -46q-131 0 -248 85l-74 -97l-51 41l77 101q-128 143 -128 344q0 200 109 339q66 83 165 128q91 42 182 42q142 0 255 -94l77 102l51 -39zM743 685l-400 -523q75 -114 189 -114 q57 0 108 32.5t82 88.5q63 115 63 271q0 132 -42 245zM310 226l402 525q-82 130 -203 130q-116 0 -184 -120q-64 -113 -64 -273q0 -142 49 -262z" />
<glyph unicode="&#xf9;" horiz-adv-x="1129" d="M931 928v-679q0 -63 15 -99q16 -40 70 -40q23 0 60 9v-49q-60 -11 -187 -61q-92 -35 -122 -57v215q-57 -72 -104 -113q-94 -82 -212 -82q-140 0 -208 105q-45 67 -45 200v467q-1 96 -54 119q-25 11 -89 16l-14 1v48h321v-585q0 -103 18 -148q35 -85 144 -85 q144 0 243 131v503q-1 96 -54 119q-25 11 -89 16l-14 1v48h321zM281 1406h210l140 -316l-25 -18z" />
<glyph unicode="&#xfa;" horiz-adv-x="1129" d="M931 928v-679q0 -63 15 -99q16 -40 70 -40q23 0 60 9v-49q-60 -11 -187 -61q-92 -35 -122 -57v215q-57 -72 -104 -113q-94 -82 -212 -82q-140 0 -208 105q-45 67 -45 200v467q-1 96 -54 119q-25 11 -89 16l-14 1v48h321v-585q0 -103 18 -148q35 -85 144 -85 q144 0 243 131v503q-1 96 -54 119q-25 11 -89 16l-14 1v48h321zM849 1406l-325 -334l-25 18l140 316h210z" />
<glyph unicode="&#xfb;" horiz-adv-x="1129" d="M931 928v-679q0 -63 15 -99q16 -40 70 -40q23 0 60 9v-49q-60 -11 -187 -61q-92 -35 -122 -57v215q-57 -72 -104 -113q-94 -82 -212 -82q-140 0 -208 105q-45 67 -45 200v467q-1 96 -54 119q-25 11 -89 16l-14 1v48h321v-585q0 -103 18 -148q35 -85 144 -85 q144 0 243 131v503q-1 96 -54 119q-25 11 -89 16l-14 1v48h321zM631 1390l208 -301l-35 -17l-241 205l-238 -205l-35 17l198 301h143z" />
<glyph unicode="&#xfc;" horiz-adv-x="1129" d="M931 928v-679q0 -63 15 -99q16 -40 70 -40q23 0 60 9v-49q-60 -11 -187 -61q-92 -35 -122 -57v215q-57 -72 -104 -113q-94 -82 -212 -82q-140 0 -208 105q-45 67 -45 200v467q-1 96 -54 119q-25 11 -89 16l-14 1v48h321v-585q0 -103 18 -148q35 -85 144 -85 q144 0 243 131v503q-1 96 -54 119q-25 11 -89 16l-14 1v48h321zM722 1335q42 0 72 -30q31 -30 31 -74q0 -42 -29 -73q-30 -32 -75 -32q-43 0 -73 29q-32 31 -32 76q0 43 31 73q31 31 75 31zM357 1336q40 0 70 -28q34 -31 34 -77q0 -41 -28 -72q-30 -33 -76 -33q-43 0 -73 29 q-33 31 -33 77q0 41 28 71q31 33 78 33z" />
<glyph unicode="&#xfd;" horiz-adv-x="923" d="M923 928v-48q-40 -1 -59 -11q-36 -17 -76 -107q-18 -43 -45 -110l-260 -655q-69 -173 -116 -229q-85 -103 -199 -103q-62 0 -97 37q-26 28 -26 66q0 44 33 70q29 23 69 23q34 0 71 -21q36 -20 54 -20q40 0 69 43q25 36 50 95l24 58l-266 735q-36 99 -83 118 q-27 11 -66 11v48h415v-48q-52 -2 -74 -14q-31 -18 -31 -62q0 -26 13 -62l178 -504l129 331q68 176 68 228q0 65 -64 77q-21 3 -73 6v48h362zM787 1406l-325 -334l-25 18l140 316h210z" />
<glyph unicode="&#xfe;" horiz-adv-x="1038" d="M348 1404v-593q63 54 98 79q91 65 180 65q137 0 233 -135q91 -127 91 -320q0 -247 -151 -397q-52 -53 -128 -84q-80 -32 -149 -32q-89 0 -174 49v-180q1 -96 54 -119q25 -11 89 -16l14 -1v-48h-478v48l14 1q72 6 97 21q45 24 46 114v1294q0 120 -80 120q-23 0 -54 -9v51 q170 35 298 92zM348 738v-533q0 -30 23 -60q63 -83 157 -83q132 0 202 129q48 87 48 237q0 185 -74 287q-34 48 -83.5 76t-99.5 28q-74 0 -173 -81z" />
<glyph unicode="&#xff;" horiz-adv-x="923" d="M923 928v-48q-40 -1 -59 -11q-36 -17 -76 -107q-18 -43 -45 -110l-260 -655q-69 -173 -116 -229q-85 -103 -199 -103q-62 0 -97 37q-26 28 -26 66q0 44 33 70q29 23 69 23q34 0 71 -21q36 -20 54 -20q40 0 69 43q25 36 50 95l24 58l-266 735q-36 99 -83 118 q-27 11 -66 11v48h415v-48q-52 -2 -74 -14q-31 -18 -31 -62q0 -26 13 -62l178 -504l129 331q68 176 68 228q0 65 -64 77q-21 3 -73 6v48h362zM687 1335q42 0 72 -30q31 -30 31 -74q0 -42 -29 -73q-30 -32 -75 -32q-43 0 -73 29q-32 31 -32 76q0 43 31 73q31 31 75 31z M322 1336q40 0 70 -28q34 -31 34 -77q0 -41 -28 -72q-30 -33 -76 -33q-43 0 -73 29q-33 31 -33 77q0 41 28 71q31 33 78 33z" />
<glyph unicode="&#x106;" horiz-adv-x="1313" d="M812 1747h264l-404 -259l-25 22zM1208 1382q-1 -38 -1 -67q0 -226 33 -382l-53 -9q-26 116 -83 208q-107 173 -313 173q-200 0 -330 -165q-137 -173 -137 -444q0 -193 68 -343q63 -138 178 -208q102 -62 226 -62q279 0 420 274l57 -34q-66 -129 -162 -210 q-157 -133 -376 -133q-203 0 -366 118q-166 119 -235 313q-43 119 -43 251q0 151 50 290q75 209 261 328q164 106 343 106q134 0 287 -63q47 -20 67 -20q31 0 45 25q7 14 13 54h51z" />
<glyph unicode="&#x107;" horiz-adv-x="880" d="M765 1406l-325 -334l-25 18l140 316h210zM852 349q-50 -165 -118 -246q-111 -130 -276 -130q-86 0 -160.5 40t-121.5 110q-89 137 -89 330q0 236 134 378q117 125 298 125q98 0 177 -43q115 -62 115 -164q0 -45 -28 -71q-26 -24 -67 -24q-79 0 -92 96q-17 130 -146 130 q-95 0 -154 -80q-76 -104 -76 -264q0 -161 77 -276q39 -59 96.5 -93.5t115.5 -34.5q107 0 190 90q50 53 79 140z" />
<glyph unicode="&#x10c;" horiz-adv-x="1313" d="M487 1744l270 -146l268 148l30 -32l-204 -226h-196l-205 224zM1208 1382q-1 -38 -1 -67q0 -226 33 -382l-53 -9q-26 116 -83 208q-107 173 -313 173q-200 0 -330 -165q-137 -173 -137 -444q0 -193 68 -343q63 -138 178 -208q102 -62 226 -62q279 0 420 274l57 -34 q-66 -129 -162 -210q-157 -133 -376 -133q-203 0 -366 118q-166 119 -235 313q-43 119 -43 251q0 151 50 290q75 209 261 328q164 106 343 106q134 0 287 -63q47 -20 67 -20q31 0 45 25q7 14 13 54h51z" />
<glyph unicode="&#x10d;" horiz-adv-x="880" d="M400 1072l-221 318l42 17l261 -216l258 216l41 -17l-211 -318h-170zM852 349q-50 -165 -118 -246q-111 -130 -276 -130q-86 0 -160.5 40t-121.5 110q-89 137 -89 330q0 236 134 378q117 125 298 125q98 0 177 -43q115 -62 115 -164q0 -45 -28 -71q-26 -24 -67 -24 q-79 0 -92 96q-17 130 -146 130q-95 0 -154 -80q-76 -104 -76 -264q0 -161 77 -276q39 -59 96.5 -93.5t115.5 -34.5q107 0 190 90q50 53 79 140z" />
<glyph unicode="&#x111;" horiz-adv-x="1073" d="M875 1042v-778q0 -73 9 -97q20 -52 73 -52q27 0 68 20v-52q-236 -87 -314 -129v139q-118 -121 -258 -121q-98 0 -183 56q-183 122 -183 425q0 248 121 379q115 124 272 124q135 0 231 -101v187h-259v67h259v13q0 54 -11 76q-17 34 -59 34q-23 0 -76 -13v50q57 13 98.5 31 t211.5 104v-295h139v-67h-139zM711 239v411q0 53 -8 81.5t-31 61.5q-61 88 -161 88q-94 0 -166 -80q-48 -55 -72 -156q-18 -78 -18 -160q0 -192 83 -301q77 -101 191 -101q109 0 167 83q15 20 15 73z" />
<glyph unicode="&#x11e;" horiz-adv-x="1569" d="M1091 1751q-15 -76 -47 -133q-75 -133 -222 -133q-127 0 -206 108q-45 62 -57 158h60q16 -55 51 -80q61 -45 153 -45q156 0 207 125h61zM1305 1383q-5 -38 -5 -83q0 -193 33 -355l-50 -7q-23 113 -95 207q-56 73 -145 115q-93 44 -200 44q-156 0 -282 -92 q-236 -171 -236 -511q0 -180 73 -335q74 -156 220 -239q117 -66 244 -66q135 0 236 78q30 24 30 54v263q0 106 -14 141q-32 85 -165 92h-19v54h605v-54h-23q-91 -3 -130 -40q-34 -29 -44 -84q-5 -25 -5 -109v-337q-111 -63 -198 -91q-148 -48 -312 -48q-310 0 -508 178 q-222 199 -222 524q0 323 211 516q98 90 212 137q124 51 290 51q138 0 289 -56q68 -25 90 -25q55 0 68 78h52z" />
<glyph unicode="&#x11f;" horiz-adv-x="921" d="M183 1379h53q15 -63 50 -92q54 -44 148 -44q93 0 147 44q35 29 50 92h53q-9 -101 -59 -170q-74 -101 -191 -101q-128 0 -203 117q-40 64 -48 154zM874 902v-109h-147q38 -71 38 -152q0 -133 -95 -217q-91 -81 -223 -81q-54 0 -120 18l-11 -13q-53 -63 -53 -91 q0 -50 107 -50q35 0 91 -2q78 -2 100 -2q128 -1 159 -6q88 -14 132 -74q42 -57 42 -131q0 -153 -173 -254q-136 -80 -320 -80q-149 0 -263 68q-91 55 -91 121q0 44 68 127q26 32 95 103q-91 32 -91 110q0 50 51 109q31 36 88 90q-62 36 -93 74q-60 73 -60 179q0 133 96 225 q100 96 231 96q79 0 189 -58h253zM417 896q-60 0 -100 -48q-39 -46 -39 -136q0 -142 59 -230q49 -73 121 -73q61 0 102 47q39 45 39 135q0 120 -52 217q-47 88 -130 88zM273 67q-71 -90 -71 -142q0 -76 88 -110q90 -35 216 -35q184 0 265 82q42 43 42 96q0 72 -76 87 q-48 10 -358 16q-59 1 -106 6z" />
<glyph unicode="&#x130;" horiz-adv-x="737" d="M369 1724q45 0 77 -32q34 -33 34 -81q0 -45 -32 -77t-77 -32q-48 0 -81 33q-32 33 -32 79q0 47 32 78q33 32 79 32zM471 1078v-791q1 -107 14 -142q32 -87 165 -91l19 -1v-53h-601v53l19 1q88 2 130 39q34 30 44 84q5 26 5 110v791q-1 107 -14 142q-32 87 -165 91l-19 1 v53h601v-53l-19 -1q-88 -2 -130 -39q-34 -30 -44 -84q-5 -26 -5 -110z" />
<glyph unicode="&#x131;" horiz-adv-x="573" d="M376 975v-791q1 -96 54 -119q25 -11 89 -16l14 -1v-48h-478v48l14 1q72 6 97 21q45 24 46 114v502q0 106 -67 106q-23 0 -68 -16v49q49 17 156 68q100 49 143 82z" />
<glyph unicode="&#x141;" horiz-adv-x="1247" d="M1226 385l-120 -385h-1038v53l19 1q88 2 130 39q34 30 44 84q5 26 5 110v285l-190 -140v89l190 140v417q-1 107 -14 142q-32 87 -165 91l-19 1v53h601v-53l-19 -1q-88 -2 -130 -39q-34 -30 -44 -84q-5 -26 -5 -110v-299l308 230v-91l-308 -230v-439q0 -102 29 -130 q18 -15 77 -18l57 -1h100q150 1 209 20q160 46 226 265h57z" />
<glyph unicode="&#x142;" horiz-adv-x="560" d="M362 746v-562q1 -96 54 -119q25 -11 89 -16l14 -1v-48h-478v48l14 1q72 6 97 21q45 24 46 114v458l-143 -108v83l143 108v396q0 55 -11 77q-17 33 -60 33q-24 0 -75 -12v50q56 13 165 61q96 43 145 74v-575l143 108v-83z" />
<glyph unicode="&#x152;" horiz-adv-x="1971" d="M1153 1280v-516h182q128 1 177 6q92 12 117 94q11 39 14 101h50v-483h-50q-5 125 -58 164q-39 26 -138 31q-31 2 -107 2h-187v-419q1 -137 18 -157q14 -18 100 -18h197q107 1 151 8q178 33 260 273l51 -17l-108 -349h-944q-90 -21 -159 -21q-181 0 -336 103 q-290 191 -290 593q0 316 181 506q86 90 210 146q130 59 255 59q64 0 156 -21h893l17 -329h-51q-27 151 -104 201q-60 37 -168 41q-48 2 -73 2h-256zM948 278v758q0 118 -7 148q-17 71 -86 100q-47 20 -104 20q-161 0 -272 -124q-89 -99 -129 -273q-25 -109 -25 -228 q0 -237 93 -414q54 -101 144 -156q79 -48 179 -48q90 0 154 40q42 26 50 80q3 23 3 97z" />
<glyph unicode="&#x153;" horiz-adv-x="1653" d="M1521 358h54q-18 -127 -74 -214q-48 -75 -123 -120q-88 -52 -194 -52q-117 0 -213 63q-49 32 -107 109q-68 -83 -157.5 -127t-190.5 -44q-96 0 -183 44.5t-149 123.5q-97 126 -97 307q0 219 132 361q64 68 151 107t177 39q138 0 249 -83q43 -32 91 -101q59 90 119 127 q90 57 194 57q121 0 210 -76q90 -77 119 -202q10 -45 15 -124h-585v-30q0 -122 30 -210q62 -182 248 -182q147 0 233 116q33 46 51 111zM512 880q-90 0 -159 -82q-52 -64 -77 -173q-15 -68 -15 -140q0 -164 69 -296q34 -66 88.5 -103.5t115.5 -37.5q103 0 175 96 q82 109 82 287q0 133 -33 233q-27 83 -79 138q-72 78 -167 78zM964 629h387q-6 82 -25 127q-20 46 -63 73.5t-93 27.5q-53 0 -98.5 -29t-71.5 -79q-23 -44 -36 -120z" />
<glyph unicode="&#x15e;" horiz-adv-x="1044" d="M569 -20l-67 -94q32 8 48 8q33 0 60 -19q47 -33 47 -92q0 -33 -19.5 -67.5t-50.5 -55.5q-77 -52 -196 -52q-49 0 -113 13l7 49q64 -11 97 -11q40 0 73 16q46 22 46 70q0 40 -41 59q-22 10 -48 10q-18 0 -49 -7l123 174q-71 5 -212 52q-44 14 -66 14q-54 0 -70 -61h-53 l7 447h53q4 -111 46 -188q48 -89 146 -135q72 -33 151 -33q117 0 190 69q71 67 71 163q0 103 -85 178q-26 22 -209 134q-147 89 -183 115q-162 119 -162 286q0 172 137 281q104 83 249 83q70 0 216 -42q29 -8 52 -8q54 0 61 64h53l-3 -450h-52q-7 116 -54 199 q-40 70 -108 108q-63 36 -134 36q-98 0 -162 -58q-65 -59 -65 -148q0 -84 67 -145q47 -44 201 -132q215 -124 284 -195q45 -46 70.5 -113.5t25.5 -137.5q0 -143 -93 -248q-107 -120 -286 -136z" />
<glyph unicode="&#x15f;" horiz-adv-x="775" d="M421 -27l-57 -80q19 2 32 2q52 0 85 -39q22 -26 22 -69q0 -103 -109 -151q-59 -26 -141 -26q-63 0 -104 14l8 46q33 -10 73 -10q66 0 100 24q36 25 36 69q0 27 -21 46q-22 19 -59 19q-23 0 -53 -12l114 171q-59 10 -132 33q-17 5 -31 5q-28 0 -44 -34h-50v314h50 q19 -113 72 -173q30 -33 74.5 -53.5t89.5 -20.5q66 0 113 48q40 41 40 99q0 54 -41 95q-30 30 -108 77q-147 87 -196 131q-95 84 -95 197q0 118 85 193q77 68 182 68q52 0 123 -21q52 -15 68 -15q25 0 38 37h49l6 -322h-50q-14 102 -62 160q-69 86 -172 86q-72 0 -112 -53 q-24 -32 -24 -74q0 -54 45 -92q26 -22 155 -98q127 -75 180 -119q87 -74 87 -196q0 -103 -67 -178q-80 -88 -199 -98z" />
<glyph unicode="&#x160;" horiz-adv-x="1044" d="M878 1400l-3 -450h-52q-7 116 -54 199q-40 70 -108 108q-63 36 -134 36q-98 0 -162 -58q-65 -59 -65 -148q0 -84 67 -145q48 -44 201 -132q214 -123 284 -195q45 -46 70.5 -113.5t25.5 -137.5q0 -183 -144 -296q-114 -89 -273 -89q-94 0 -257 54q-44 14 -66 14 q-55 0 -70 -61h-53l7 447h53q4 -111 46 -188q48 -89 146 -135q72 -33 151 -33q117 0 190 69q71 66 71 163q0 103 -85 177q-26 24 -209 134q-147 90 -183 116q-162 118 -162 286q0 172 137 281q104 83 249 83q70 0 216 -42q29 -8 52 -8q54 0 61 64h53zM256 1744l270 -146 l268 148l30 -32l-204 -226h-196l-205 224z" />
<glyph unicode="&#x161;" horiz-adv-x="775" d="M634 957l6 -322h-50q-14 102 -62 160q-69 86 -172 86q-72 0 -112 -53q-24 -32 -24 -74q0 -54 45 -92q26 -22 155 -98q128 -75 180 -119q87 -74 87 -196q0 -129 -103 -211q-82 -65 -180 -65q-69 0 -188 37q-18 5 -32 5q-28 0 -44 -34h-50v314h50q19 -113 72 -173 q30 -33 74.5 -53.5t89.5 -20.5q66 0 113 48q40 41 40 99q0 54 -41 95q-30 30 -108 77q-147 87 -196 131q-95 84 -95 197q0 118 85 193q77 68 182 68q52 0 123 -21q52 -15 68 -15q25 0 38 37h49zM280 1072l-221 318l42 17l261 -216l258 216l41 -17l-211 -318h-170z" />
<glyph unicode="&#x178;" horiz-adv-x="1334" d="M947 1726q45 0 78 -33q32 -33 32 -79t-32 -79t-79 -33q-46 0 -79 32q-34 33 -34 80t33 79q34 33 81 33zM499 1725q44 0 76 -32q34 -33 34 -80q0 -45 -31 -78q-33 -33 -80 -33q-45 0 -77 31q-35 33 -35 81q0 46 32 78q33 33 81 33zM1365 1365v-53q-99 -2 -151 -35 q-51 -34 -127 -159l-317 -527v-304q1 -107 14 -142q32 -87 165 -91l19 -1v-53h-601v53l19 1q88 2 130 39q34 30 44 84q5 26 5 110v302l-344 563q-60 97 -90 121q-50 40 -142 40q-11 0 -34 -1v53h607v-53q-21 -1 -27 -1q-61 -2 -81 -11q-35 -17 -35 -56q0 -30 15 -56 q3 -5 33 -53l265 -426l264 434q44 71 44 110q0 42 -52 52q-28 6 -81 7v53h458z" />
<glyph unicode="&#x17d;" horiz-adv-x="1265" d="M1212 1365l-855 -1280h425q154 1 200 17q94 27 160 134q27 47 43 111h53l-75 -347h-1115l857 1280h-320q-141 0 -185 -11q-120 -32 -150 -127q-17 -51 -26 -134h-53l34 357h1007zM435 1744l270 -146l268 148l30 -32l-204 -226h-196l-205 224z" />
<glyph unicode="&#x17e;" horiz-adv-x="833" d="M790 928v-32l-533 -821h319q123 2 152 63q24 45 24 143h47v-281h-765v30l533 823h-233q-138 0 -165 -70q-14 -37 -14 -134h-49v279h684zM377 1072l-221 318l42 17l261 -216l258 216l41 -17l-211 -318h-170z" />
<glyph unicode="&#x192;" horiz-adv-x="860" d="M382 835h-148l-4 76h166q25 150 54 244q60 200 175 294q66 54 146 54q94 0 155 -58q39 -36 39 -83q0 -37 -25 -64q-21 -22 -58 -22q-61 0 -85 75q-11 38 -19 51q-17 25 -43 25q-66 0 -106 -150q-27 -103 -64 -366h169l3 -76h-185l-78 -445q-54 -311 -172 -492 q-101 -156 -242 -156q-80 0 -131 42q-51 43 -51 105q0 40 29 64q21 18 49 18q59 0 81 -71q12 -40 21 -52q19 -24 44 -24q49 0 91 82q39 79 83 328z" />
<glyph unicode="&#x2c6;" d="M578 1390l208 -301l-35 -17l-241 205l-238 -205l-35 17l198 301h143z" />
<glyph unicode="&#x2c7;" d="M432 1072l-221 318l42 17l261 -216l258 216l41 -17l-211 -318h-170z" />
<glyph unicode="&#x2c9;" d="M771 1282v-100h-517v100h517z" />
<glyph unicode="&#x2d8;" d="M261 1379h53q15 -63 50 -92q54 -44 148 -44q93 0 147 44q35 29 50 92h53q-9 -101 -59 -170q-74 -101 -191 -101q-128 0 -203 117q-40 64 -48 154z" />
<glyph unicode="&#x2d9;" d="M513 1336q40 0 70 -28q34 -31 34 -77q0 -41 -28 -72q-30 -33 -76 -33q-43 0 -73 29q-33 31 -33 77q0 41 28 71q31 33 78 33z" />
<glyph unicode="&#x2da;" d="M515 1424q70 0 121 -52q52 -53 52 -127q0 -70 -50 -122q-51 -52 -125 -52q-72 0 -123 49q-54 52 -54 127q0 73 50 123q53 54 129 54zM511 1355q-42 0 -72 -33q-28 -32 -28 -75q0 -47 32 -78q29 -29 69 -29q44 0 73 33q28 31 28 74q0 45 -30 77q-29 31 -72 31z" />
<glyph unicode="&#x2db;" d="M669 0q-51 -43 -83 -75q-54 -56 -54 -106q0 -42 33 -64q21 -15 47 -15q64 0 126 40l-12 -53q-108 -75 -202 -75q-68 0 -101 36q-29 31 -29 72q0 119 210 240h65z" />
<glyph unicode="&#x2dc;" d="M819 1327q-98 -193 -190 -193q-44 0 -151 42q-93 36 -122 36q-67 0 -119 -94l-32 21q21 46 67 105q70 89 142 89q36 0 102 -31q93 -44 141 -44q78 0 128 91z" />
<glyph unicode="&#x2dd;" d="M595 1406l-277 -334l-25 18l106 316h196zM895 1406l-277 -334l-25 18l106 316h196z" />
<glyph unicode="&#x3c0;" d="M1137 959v-118h-301q-66 -165 -66 -257v-316q0 -93 8 -128q14 -60 72 -60q46 0 101 23v-36l-232 -87q-17 -6 -24 -6q-29 0 -65 55q-34 53 -34 155v309q0 72 18 126q7 28 78 154q24 43 47 68h-349q-1 -43 -3 -199q-5 -307 -37 -536q-12 -78 -36 -109q-27 -35 -75 -35 q-36 0 -56 22q-21 23 -21 56q0 48 43 151q40 95 64.5 256.5t33.5 393.5q-79 -3 -115 -11q-90 -16 -209 -164l-26 29l138 183q36 47 71 62q46 19 120 19h855z" />
<glyph unicode="&#x2013;" d="M910 566v-113h-796v113h796z" />
<glyph unicode="&#x2014;" horiz-adv-x="1296" d="M1296 566v-113h-1296v113h1296z" />
<glyph unicode="&#x2018;" horiz-adv-x="506" d="M355 1406q27 0 27 -23q0 -10 -25 -29q-153 -112 -153 -239q0 -26 7 -41q6 -13 27 -13q13 0 38 9q15 5 32 5q39 0 65 -28q26 -29 26 -72q0 -37 -21 -66q-28 -40 -86 -40q-79 0 -132 68q-44 57 -44 147q0 140 114 243q88 79 125 79z" />
<glyph unicode="&#x2019;" horiz-adv-x="506" d="M219 1407q73 0 127 -68q44 -56 44 -148q0 -138 -114 -241q-88 -80 -128 -80q-24 0 -24 23q0 10 25 29q153 112 153 239q0 26 -7 41q-6 13 -27 13q-13 0 -38 -9q-15 -5 -31 -5q-40 0 -65 28q-26 29 -26 72q0 36 21 66q27 40 90 40z" />
<glyph unicode="&#x201a;" horiz-adv-x="506" d="M219 191q73 0 127 -68q44 -56 44 -148q0 -138 -114 -241q-88 -80 -128 -80q-24 0 -24 23q0 10 25 28q153 113 153 240q0 26 -7 41q-6 13 -27 13q-13 0 -38 -8q-16 -5 -32 -5q-39 0 -64 28q-26 29 -26 72q0 35 21 65q27 40 90 40z" />
<glyph unicode="&#x201c;" horiz-adv-x="872" d="M721 1406q27 0 27 -23q0 -10 -25 -29q-153 -112 -153 -239q0 -26 7 -41q6 -13 27 -13q13 0 38 9q15 5 32 5q39 0 65 -28q26 -29 26 -72q0 -37 -21 -66q-28 -40 -86 -40q-79 0 -132 68q-44 57 -44 147q0 140 114 243q88 79 125 79zM355 1406q27 0 27 -23q0 -10 -25 -29 q-153 -112 -153 -239q0 -26 7 -41q6 -13 27 -13q13 0 38 9q15 5 32 5q39 0 65 -28q26 -29 26 -72q0 -37 -21 -66q-28 -40 -86 -40q-79 0 -132 68q-44 57 -44 147q0 140 114 243q88 79 125 79z" />
<glyph unicode="&#x201d;" horiz-adv-x="872" d="M219 1407q73 0 127 -68q44 -56 44 -148q0 -138 -114 -241q-88 -80 -128 -80q-24 0 -24 23q0 10 25 29q153 112 153 239q0 26 -7 41q-6 13 -27 13q-13 0 -38 -9q-15 -5 -31 -5q-40 0 -65 28q-26 29 -26 72q0 36 21 66q27 40 90 40zM584 1407q74 0 128 -68q44 -57 44 -148 q0 -138 -114 -242q-88 -79 -128 -79q-24 0 -24 23q0 10 25 29q153 112 153 239q0 26 -7 41q-6 13 -27 13q-13 0 -38 -9q-15 -5 -32 -5q-39 0 -65 28q-26 29 -26 72q0 36 21 66q28 40 90 40z" />
<glyph unicode="&#x201e;" horiz-adv-x="872" d="M219 191q73 0 127 -68q44 -56 44 -148q0 -138 -114 -241q-88 -80 -128 -80q-24 0 -24 23q0 10 25 28q153 113 153 240q0 26 -7 41q-6 13 -27 13q-13 0 -38 -8q-16 -5 -32 -5q-39 0 -64 28q-26 29 -26 72q0 35 21 65q27 40 90 40zM584 191q74 0 128 -68q44 -57 44 -148 q0 -138 -114 -241q-88 -80 -128 -80q-24 0 -24 23q0 10 25 28q153 113 153 240q0 26 -7 41q-6 13 -27 13q-13 0 -38 -8q-16 -5 -32 -5q-39 0 -65 28q-26 29 -26 72q0 36 21 65q28 40 90 40z" />
<glyph unicode="&#x2020;" d="M632 694q-88 -319 -93 -1022h-54q1 43 1 60q0 296 -32 603q-15 148 -64 359q89 81 95 229q-50 -2 -147 -44q-49 -23 -84 -23q-38 0 -62 21q-28 25 -28 69q0 47 33 72q25 19 56 19q33 0 85 -27q72 -38 147 -40q-8 94 -47 183q-33 80 -33 124q0 51 30 83q31 32 76 32 q53 0 82 -43q22 -32 22 -70q0 -30 -37 -128q-40 -107 -40 -164q0 -5 1 -17q55 0 151 45q46 22 79 22q48 0 71 -31q20 -27 20 -63q0 -45 -30 -69q-24 -19 -61 -19q-35 0 -114 39q-56 26 -121 29q13 -159 98 -229z" />
<glyph unicode="&#x2021;" d="M632 532q-84 -120 -98 -387q79 5 160 47q41 20 75 20q44 0 69 -27q22 -23 22 -61q0 -42 -26 -70q-22 -24 -65 -24q-33 0 -79 22q-96 45 -151 45q-1 -12 -1 -17q0 -56 62 -223q15 -39 15 -69q0 -47 -29 -82q-29 -34 -75 -34q-52 0 -82 41q-24 32 -24 76q0 45 33 125 q39 89 47 183q-7 1 -8 1q-58 0 -139 -41q-52 -26 -85 -26q-38 0 -64 26q-25 25 -25 65q0 51 37 76q22 14 53 14q34 0 84 -23q96 -43 147 -44q-6 247 -95 387q89 139 95 388q-51 -2 -147 -44q-49 -23 -84 -23q-38 0 -62 21q-28 25 -28 69q0 47 33 72q25 19 56 19q33 0 85 -27 q72 -38 147 -40q-8 94 -47 183q-33 80 -33 125q0 51 30 84q31 33 76 33q53 0 81 -44q20 -33 20 -73q0 -37 -34 -127q-40 -107 -40 -164q0 -4 1 -17q55 0 151 45q47 22 79 22q48 0 71 -31q20 -27 20 -63q0 -45 -30 -69q-24 -19 -61 -19q-34 0 -114 39q-56 26 -121 29 q14 -268 98 -388z" />
<glyph unicode="&#x2022;" horiz-adv-x="1365" d="M689 978q113 0 196 -83q84 -83 84 -201t-84 -201q-82 -83 -200 -83t-200 83q-84 83 -84 200q0 121 84 202q85 83 204 83z" />
<glyph unicode="&#x2026;" horiz-adv-x="1519" d="M255 211q46 0 80 -33q36 -35 36 -85q0 -46 -33 -81t-83 -35q-48 0 -83 34q-35 35 -35 84q0 48 33 81q35 35 85 35zM761 211q46 0 80 -33q36 -35 36 -85q0 -46 -33 -81t-83 -35q-48 0 -83 34q-35 35 -35 84q0 48 33 81q35 35 85 35zM1268 211q46 0 80 -33q36 -35 36 -85 q0 -46 -33 -81t-83 -35q-49 0 -83 34q-35 35 -35 84q0 48 33 81q35 35 85 35z" />
<glyph unicode="&#x2030;" horiz-adv-x="1900" d="M1092 1463l-772 -1565h-94l769 1565h97zM313 1381q48 0 92.5 -30.5t69.5 -81.5q49 -98 49 -233q0 -145 -53 -248q-27 -54 -74.5 -85t-101.5 -31q-108 0 -164 113q-49 97 -49 229q0 148 54 250q30 54 77 85.5t100 31.5zM305 1326q-62 0 -88 -104q-22 -85 -22 -203 q0 -98 19 -184q24 -108 86 -108q68 0 92 118q20 94 20 186q0 295 -107 295zM1012 689q48 0 92 -30.5t70 -81.5q49 -97 49 -233q0 -145 -53 -248q-28 -54 -75 -85t-101 -31q-109 0 -164 113q-49 98 -49 229q0 148 54 250q29 54 76.5 85.5t100.5 31.5zM1004 634 q-62 0 -88 -104q-22 -85 -22 -203q0 -97 19 -184q24 -108 86 -108q68 0 92 118q20 94 20 185q0 296 -107 296zM1607 689q48 0 92 -30.5t70 -81.5q49 -97 49 -233q0 -145 -53 -248q-28 -54 -75 -85t-101 -31q-108 0 -164 113q-49 97 -49 229q0 148 54 250q29 54 76.5 85.5 t100.5 31.5zM1599 634q-62 0 -88 -104q-22 -85 -22 -203q0 -97 19 -184q24 -108 86 -108q68 0 92 118q20 96 20 185q0 296 -107 296z" />
<glyph unicode="&#x2039;" horiz-adv-x="571" d="M68 504l362 447h59l-232 -447l232 -449h-59z" />
<glyph unicode="&#x203a;" horiz-adv-x="571" d="M503 504l-361 -449h-60l233 449l-233 447h60z" />
<glyph unicode="&#x20a3;" horiz-adv-x="1399" d="M991 1365l20 -326h-45q-15 121 -64 180q-42 49 -137 59q-29 2 -79 2h-280v-517l233 3q80 2 107 15q69 35 69 167v16h42v-483h-43q-3 111 -34 150q-25 33 -66 41q-11 2 -75 4l-233 4v-393q1 -107 12 -141q26 -88 138 -92l16 -1v-53h-504v53l16 1q73 2 109 40q29 28 37 84 q4 24 4 109v791q0 107 -11 141q-27 88 -139 92l-16 1v53h923zM1144 591v-102q62 90 132 90q39 0 66 -20q29 -22 29 -56q0 -32 -26 -55q-22 -20 -50 -20q-31 0 -53 34q-8 13 -19 13q-35 0 -59 -45q-18 -33 -18 -95v-219q0 -53 30 -64q16 -7 53 -10l16 -1v-41h-329v41l15 1 q43 4 59 12q25 12 25 62v295q0 59 -37 59q-14 0 -54 -10v44q36 2 121 37q66 27 99 50z" />
<glyph unicode="&#x2122;" horiz-adv-x="1878" d="M722 1365l15 -192h-44q-7 65 -32 92q-38 35 -153 34h-60v-544q0 -59 8 -77q17 -43 92 -47h30v-44h-397v44h30q52 2 73 20q19 15 24 44q3 14 3 60v544h-50q-124 1 -160 -32q-31 -28 -36 -95h-45l15 193h687zM1565 1182l-304 -598l-304 594v-423q0 -59 8 -77q17 -43 93 -47 h18v-44h-305v44h18q53 2 74 20q19 16 24 44q3 14 3 60v443q0 58 -8 76q-18 44 -92 47l-19 1v43h246l281 -552l281 552h242v-43l-19 -1q-50 -1 -73 -20q-19 -15 -24 -43q-3 -14 -3 -60v-443q0 -59 8 -77q17 -43 92 -47h18v-44h-374v44h18q53 2 74 20q19 16 24 44q3 14 3 60 v427z" />
<glyph unicode="&#x2126;" horiz-adv-x="1532" d="M1491 336l-67 -336h-541v158q121 60 195 185q45 76 70.5 185t25.5 223q0 192 -79 340q-53 101 -139.5 156.5t-189.5 55.5q-210 0 -327 -209q-82 -147 -82 -347q0 -257 115 -429q48 -73 104 -115q25 -19 75 -45v-158h-544l-66 336h49q33 -98 72 -130q47 -38 158 -38h198 q-131 54 -227 158q-166 180 -166 427q0 235 156 414q191 218 485 218q282 0 469 -198q172 -182 172 -436q0 -237 -157 -416q-89 -102 -234 -167h211q102 0 151 50q31 33 62 118h51z" />
<glyph unicode="&#x2202;" d="M295 1374l19 36q198 -83 345 -223q161 -153 240 -371q63 -174 63 -344q0 -228 -135 -369q-126 -132 -317 -132q-175 0 -297 111q-151 138 -151 362q0 120 45.5 221t128.5 166q117 90 270 90q120 0 203 -66q35 -28 73 -79q-83 262 -229 407q-110 112 -258 191zM516 871 q-99 0 -164 -70q-46 -50 -79 -137q-38 -104 -38 -216q0 -139 53 -263q71 -165 222 -165q87 0 160 71q51 51 83 137q37 103 37 230q0 144 -52 253q-76 160 -222 160z" />
<glyph unicode="&#x2206;" horiz-adv-x="1365" d="M728 1397l630 -1397h-1350l628 1397h92zM628 1193l-408 -910q-32 -72 -32 -104q0 -37 29 -51q24 -12 84 -12h800z" />
<glyph unicode="&#x220f;" horiz-adv-x="1365" d="M17 1365h1332v-38h-42q-62 0 -89 -10q-40 -15 -48 -65q-4 -27 -4 -88v-1440q0 -98 19 -128q23 -35 116 -36h46v-38h-554v38h44q93 0 117 36q19 28 19 128v1440q0 96 -19 127q-23 36 -122 36h-295q-63 0 -89 -10q-40 -13 -48 -65q-4 -27 -4 -88v-1440q1 -101 19 -128 q24 -36 112 -36h50v-38h-554v38h44q58 0 84 10q40 14 48 65q4 26 4 89v1440q0 99 -19 127q-25 36 -117 36h-50v38z" />
<glyph unicode="&#x2211;" horiz-adv-x="1365" d="M110 1365h1067v-332h-39q-14 142 -82 206q-49 47 -130 62q-44 8 -124 8h-464l417 -780l-491 -899h534q114 1 186 20q181 46 239 293h38l-68 -421h-1083l502 919z" />
<glyph unicode="&#x2212;" d="M123 634v96h778v-96h-778z" />
<glyph unicode="&#x2215;" horiz-adv-x="248" d="M504 1365l-661 -1365h-99l661 1365h99z" />
<glyph unicode="&#x2219;" horiz-adv-x="488" d="M245 613q42 0 73 -30q33 -31 33 -77q0 -43 -30 -74q-31 -33 -76 -33q-44 0 -76 31q-32 32 -32 77q0 44 31 75t77 31z" />
<glyph unicode="&#x221a;" horiz-adv-x="1365" d="M1331 1686v-60h-241l-379 -1626h-183l-177 733h-317v60h468l161 -690l372 1583h296z" />
<glyph unicode="&#x221e;" horiz-adv-x="1365" d="M636 576q-47 -78 -92 -128q-94 -106 -216 -106q-128 0 -218 91q-92 94 -92 240q0 162 105 269q95 97 226 97q137 0 241 -107q55 -56 108 -142q129 251 327 251q137 0 230 -101q92 -99 92 -247q0 -161 -106 -268q-100 -100 -238 -100q-146 0 -256 109q-55 54 -111 142z M729 745q77 -125 141 -183q106 -96 218 -96q79 0 135 51q71 64 71 170q0 101 -70 157q-79 63 -213 63q-105 0 -175 -51q-42 -31 -80 -78q-27 -32 -27 -33zM600 629q-59 95 -110 153q-99 114 -226 114q-81 0 -130 -51q-63 -64 -63 -161q0 -96 70 -154q68 -57 185 -57 q108 0 171 49q32 26 103 107z" />
<glyph unicode="&#x222b;" horiz-adv-x="1025" d="M610 1016v-991q0 -160 -10 -233q-26 -180 -133 -266q-79 -63 -199 -63q-125 0 -198 65q-72 65 -72 154q0 52 35 87q33 34 82 34q46 0 80 -32q32 -31 32 -72q0 -24 -24 -59q-6 -9 -6 -24q0 -76 69 -76q75 0 116 101q35 85 35 230v1006q0 163 11 237q24 174 135 264 q79 65 197 65q122 0 196 -65q73 -65 73 -153q0 -52 -35 -88q-33 -34 -82 -34q-47 0 -80 31q-32 30 -32 72q0 26 22 62q8 13 8 26q0 27 -14 48q-17 24 -52 24q-78 0 -119 -106q-35 -90 -35 -244z" />
<glyph unicode="&#x2248;" d="M935 667l36 -20q-45 -72 -106 -123q-93 -78 -190 -78q-43 0 -109 19q-13 4 -92 28q-126 39 -190 39q-76 0 -131 -49q-24 -22 -63 -66l-36 20q50 73 99 119q87 84 201 84q62 0 198 -44q119 -38 174 -38q113 0 209 109zM935 988l36 -20q-45 -71 -106 -122q-93 -78 -190 -78 q-49 0 -201 47q-125 38 -190 38q-76 0 -131 -49q-24 -21 -63 -65l-36 20q48 70 99 118q87 84 201 84q62 0 198 -43q118 -38 174 -38q113 0 209 108z" />
<glyph unicode="&#x2260;" d="M343 484h-220v96h275l118 205h-393v96h448l94 163l83 -48l-67 -115h220v-96h-275l-118 -205h393v-96h-448l-94 -163l-83 48z" />
<glyph unicode="&#x2264;" d="M937 1266v-85l-620 -403l620 -415v-225l-850 570v13zM87 78h850v-78h-850v78z" />
<glyph unicode="&#x2265;" d="M87 78h850v-78h-850v78zM87 138v84l620 403l-620 416v225l850 -575v-13z" />
<glyph unicode="&#x25ca;" horiz-adv-x="1365" d="M683 1419l532 -736l-532 -736l-532 736zM683 1237l-404 -554l404 -555l403 555z" />
<glyph unicode="&#x25fc;" horiz-adv-x="930" d="M0 930h930v-930h-930v930z" />
<glyph unicode="&#xf000;" horiz-adv-x="1365" d="M983 1416q0 -140 -77 -237q-92 -114 -227 -118q3 147 83 239q91 104 221 116zM1276 935q-63 -48 -94 -86q-71 -88 -71 -199q0 -145 107 -243q39 -36 97 -62q-66 -161 -140 -257q-109 -143 -204 -143q-50 0 -132 38q-49 23 -106 23q-73 0 -120 -17q-14 -6 -58 -24 q-51 -22 -94 -22q-52 0 -111.5 44.5t-111.5 122.5q-172 255 -172 526q0 94 32.5 182t89.5 151q99 108 259 108q65 0 173 -41q56 -21 86 -21t119 33q91 33 155 33q190 0 296 -146z" />
<glyph unicode="&#xf001;" horiz-adv-x="1143" d="M74 928h138v50q0 203 128 324q114 107 295 107q137 0 226 -63q59 -42 59 -98q0 -43 -31 -68q-23 -18 -56 -18q-40 0 -70 31q-15 15 -44 65q-44 77 -144 77q-129 0 -175 -123q-24 -63 -24 -229v-55h228q127 0 202.5 11t138.5 38v-793q1 -96 54 -119q25 -11 89 -16l14 -1 v-48h-478v48l14 1q72 6 97 21q45 24 46 114v513q-2 109 -9 129q-11 27 -44 33q-8 1 -68 1h-284v-676q1 -96 54 -119q25 -11 89 -16l14 -1v-48h-478v48l14 1q72 6 97 21q45 24 46 114v676h-138v68z" />
<glyph unicode="&#xf002;" horiz-adv-x="1143" d="M212 928v50q0 200 119 318q106 106 277 106q121 0 224 -57q67 31 113 59v-1220q1 -96 54 -119q25 -11 89 -16l14 -1v-48h-478v48l14 1q72 6 97 21q45 24 46 114v967q-59 184 -207 184q-129 0 -174 -123q-24 -63 -24 -229v-55h235v-68h-235v-676q1 -96 54 -119 q25 -11 89 -16l14 -1v-48h-478v48l14 1q72 6 97 21q45 24 46 114v676h-138v68h138z" />
<glyph />
<glyph d="M662 1335q41 0 71 -30q31 -30 31 -74q0 -42 -29 -73q-30 -32 -75 -32q-43 0 -73 29q-32 31 -32 76q0 43 31 73q31 31 76 31zM365 1336q40 0 70 -28q34 -31 34 -77q0 -41 -28 -72q-30 -33 -76 -33q-43 0 -73 29q-33 31 -33 77q0 41 28 71q31 33 78 33z" />
<glyph d="M246 1744l270 -146l268 148l30 -32l-204 -226h-196l-205 224z" />
<glyph d="M778 1751q-15 -76 -47 -133q-75 -133 -222 -133q-127 0 -206 108q-45 62 -57 158h60q16 -55 51 -80q61 -45 153 -45q156 0 207 125h61z" />
<glyph d="M412 1746h199l203 -229l-35 -28l-271 147l-268 -148l-31 31z" />
<glyph d="M453 1747l164 -237l-25 -22l-404 259h265z" />
<glyph d="M572 1747h264l-404 -259l-25 22z" />
<glyph d="M738 1726q45 0 78 -33q32 -34 32 -79q0 -46 -32 -79t-79 -33q-46 0 -79 32q-34 32 -34 80q0 47 33 79q34 33 81 33zM290 1725q44 0 76 -32q34 -33 34 -80q0 -45 -31 -78q-33 -33 -80 -33q-45 0 -77 31q-35 33 -35 81q0 46 32 78q33 33 81 33z" />
<glyph d="M840 1705q-34 -68 -76 -116q-67 -79 -119 -79q-18 0 -55 12l-72 23q-126 40 -165 40q-78 0 -130 -89l-39 24q37 65 68 102q83 96 142 96q22 0 78 -19l70 -24q80 -27 119 -27q83 0 140 83z" />
<glyph d="M704 1726q45 0 78 -33q32 -34 32 -79q0 -46 -32 -79t-79 -33q-46 0 -79 32q-34 32 -34 80q0 47 33 79q34 33 81 33zM324 1725q44 0 76 -32q34 -33 34 -80q0 -45 -31 -78q-33 -33 -80 -33q-45 0 -77 31q-35 33 -35 81q0 46 32 78q33 33 81 33z" />
<glyph d="M517 1815q70 0 121 -51q56 -55 56 -132q0 -72 -50 -124q-53 -55 -131 -55q-71 0 -123 47q-59 53 -59 132q0 73 49 124q55 59 137 59zM511 1741q-44 0 -74 -34q-27 -32 -27 -74q0 -47 33 -78q30 -28 69 -28q45 0 75 34q28 31 28 72q0 47 -33 79q-30 29 -71 29z" />
<glyph d="M513 1724q45 0 77 -32q34 -33 34 -81q0 -45 -32 -77t-77 -32q-48 0 -81 33q-32 33 -32 79q0 47 32 78q33 32 79 32z" />
<glyph horiz-adv-x="512" />
</font>
</defs>
</svg>
